<svg width="15" height="17" viewBox="0 0 15 17" fill="none" xmlns="http://www.w3.org/2000/svg">
<g clip-path="url(#clip0_289_437)">
<path d="M14.642 12.4679C14.6451 12.4733 14.6477 12.479 14.6498 12.4849C14.6829 12.5774 14.5018 12.8929 14.4642 12.9855C14.3184 13.3449 14.1529 13.6964 13.968 14.0374C13.5986 14.7186 13.1513 15.3584 12.6304 15.9325C12.1974 16.4097 11.6754 16.861 11.0389 16.9617C10.1231 17.1066 9.26659 16.4975 8.351 16.3512C7.77567 16.2593 7.18295 16.3539 6.62947 16.536C6.00255 16.7423 5.37687 17.065 4.72138 16.9884C4.06324 16.9115 3.52062 16.445 3.07413 15.9555C2.02159 14.8013 1.25249 13.3994 0.785299 11.9089C0.264866 10.2485 0.127657 8.39755 0.81395 6.79858C1.50024 5.1996 3.147 3.94617 4.8812 4.08893C5.48725 4.13886 6.06755 4.34761 6.63883 4.55612C6.98156 4.68123 7.33589 4.80884 7.70023 4.78913C7.98922 4.77356 8.26414 4.66608 8.53458 4.56299C9.10321 4.34612 9.68252 4.14118 10.2863 4.06458C11.7595 3.87777 13.3106 4.53028 14.2073 5.71407C12.9813 6.3992 12.2096 7.82354 12.3051 9.2247C12.3918 10.494 13.1856 11.6878 14.3084 12.2801C14.4037 12.3304 14.5898 12.374 14.6421 12.4678L14.642 12.4679Z" fill="white"/>
<path d="M11.0576 -5.32397e-05C11.1892 -0.0114804 10.9076 1.40359 10.8643 1.52167C10.7001 1.97047 10.4282 2.38922 10.1255 2.75737C9.52761 3.48441 8.63373 3.96766 7.69413 4.04898C7.63907 4.05378 7.57721 4.05502 7.53622 4.01793C7.49407 3.97975 7.49026 3.91591 7.49076 3.8591C7.49813 2.89831 7.87548 1.94505 8.52765 1.23946C9.17966 0.53396 10.1004 0.082918 11.0576 -5.32397e-05Z" fill="white"/>
</g>
<defs>
<clipPath id="clip0_289_437">
<rect width="14.3076" height="17" fill="white" transform="translate(0.346191)"/>
</clipPath>
</defs>
</svg>
