<svg width="255" height="230" viewBox="0 0 255 230" fill="none" xmlns="http://www.w3.org/2000/svg">
<path d="M247.29 97.7801C235.95 67.4501 212.8 40.7301 182.11 22.5401C152.99 5.28007 121.16 -1.71994 92.3399 0.710064L92.8199 1.67006C121.33 -0.639935 152.79 6.33007 181.6 23.4001C212.1 41.4701 235.09 68.0101 246.35 98.1301C250.97 110.5 253.4 122.87 253.63 134.85C253.97 135 254.3 135.16 254.63 135.33C254.46 123.09 252.02 110.44 247.29 97.7801ZM157.04 228.85C128.9 230.14 99.4799 222.48 72.9599 206.77C29.8899 181.25 3.75992 139.71 1.18992 99.8201C0.849922 99.6901 0.509922 99.5501 0.169922 99.4001C2.57992 139.76 28.9299 181.84 72.4499 207.63C97.2099 222.3 124.47 229.99 150.92 229.99C153.11 229.99 155.3 229.94 157.48 229.83C157.33 229.51 157.18 229.18 157.04 228.85Z" fill="url(#paint0_linear_94_3059)"/>
<defs>
<linearGradient id="paint0_linear_94_3059" x1="0.169922" y1="115.116" x2="254.63" y2="115.116" gradientUnits="userSpaceOnUse">
<stop stop-color="#657DE9"/>
<stop offset="1" stop-color="#764CA5"/>
</linearGradient>
</defs>
</svg>
