<svg width="26" height="27" viewBox="0 0 26 27" fill="none" xmlns="http://www.w3.org/2000/svg">
<rect y="0.75" width="25.75" height="25.75" rx="12.875" fill="url(#paint0_linear_163_493)"/>
<path d="M17.5417 12.9585H8.20833C7.47195 12.9585 6.875 13.5554 6.875 14.2918V18.9585C6.875 19.6949 7.47195 20.2918 8.20833 20.2918H17.5417C18.278 20.2918 18.875 19.6949 18.875 18.9585V14.2918C18.875 13.5554 18.278 12.9585 17.5417 12.9585Z" stroke="white" stroke-linecap="round" stroke-linejoin="round"/>
<path d="M9.54167 12.9584V10.2918C9.54084 9.46513 9.84719 8.66768 10.4013 8.05421C10.9553 7.44075 11.7176 7.05504 12.54 6.97196C13.3625 6.88889 14.1864 7.11437 14.852 7.60464C15.5175 8.09492 15.9772 8.815 16.1417 9.6251" stroke="white" stroke-linecap="round" stroke-linejoin="round"/>
<defs>
<linearGradient id="paint0_linear_163_493" x1="0" y1="13.625" x2="25.75" y2="13.625" gradientUnits="userSpaceOnUse">
<stop stop-color="#657DE9"/>
<stop offset="1" stop-color="#764CA5"/>
</linearGradient>
</defs>
</svg>
