<svg width="82" height="100" viewBox="0 0 82 100" fill="none" xmlns="http://www.w3.org/2000/svg">
<path d="M57.5581 37.905C57.5581 37.905 57.7567 40.6423 57.1387 41.6799C56.5205 42.7174 53.5641 39.4657 53.6302 38.5386C53.6964 37.6113 57.5581 37.905 57.5581 37.905Z" fill="#DB6E5F"/>
<path d="M57.4888 38.0211C56.4633 37.8175 55.0632 37.2848 54.2748 36.5982C54.2473 36.5744 54.2968 36.4284 54.3549 36.4232C55.2561 36.3439 56.6486 36.6693 57.5029 36.9669C57.6588 37.2944 57.657 37.6752 57.498 38.0016L57.4888 38.0211Z" fill="#DB6E5F"/>
<path d="M53.7653 38.79C54.9788 39.0644 56.1924 39.339 57.406 39.6134" stroke="#A83B33" stroke-width="0.154034" stroke-miterlimit="10"/>
<path d="M54.0676 39.5254C54.5955 39.8341 55.1233 40.1428 55.6511 40.4514C56.2003 40.7727 56.7495 41.0939 57.2989 41.4151" stroke="#A83B33" stroke-width="0.154034" stroke-miterlimit="10"/>
<path d="M44.0303 18.8871C44.5672 18.9559 45.3283 18.7269 45.6218 19.1818C46.3811 20.3588 47.1597 21.2984 47.2689 22.1723C47.3297 22.6582 47.0404 23.1433 47.1324 23.6237C47.2369 24.1698 47.5867 24.657 47.9118 25.0936C48.6197 26.0445 49.379 26.9816 49.8171 28.0833C50.2551 29.1849 50.3239 30.5094 49.6741 31.501C49.8023 30.7996 49.5493 30.1069 49.1346 29.5269C49.378 29.8672 48.9473 31.258 48.8132 31.6205C48.5731 32.2693 48.0985 32.7932 47.6101 33.2691C45.6986 35.1313 43.2961 36.6314 40.6837 37.2169C39.9139 37.3894 39.1197 37.4124 38.3311 37.4346C37.0947 37.4695 35.8501 37.5038 34.6275 37.3153C32.4106 36.9731 30.3714 35.915 28.4558 34.7478C27.9319 34.4287 27.3981 34.0851 27.0576 33.5749C26.9769 33.4542 26.9061 33.3079 26.9461 33.1683C26.9773 33.0596 27.0685 32.981 27.1544 32.9074C28.1504 32.0551 29.0991 31.0032 29.6766 29.8175C30.3375 28.4606 30.1588 27.0451 30.0798 25.5879C29.9253 22.7359 30.3581 19.9595 32.9006 18.2915C35.1847 16.793 38.5426 15.8197 40.9607 17.5151C41.9882 18.2354 42.7504 18.7232 44.0303 18.8871Z" fill="#FBC2BB"/>
<path d="M33.3159 29.2914C32.1097 32.3234 35.373 35.724 32.6945 38.3358C32.6548 38.3744 32.7053 38.4377 32.7528 38.4114C33.8707 37.7947 34.1329 36.3934 34.0241 35.2147C33.8392 33.2131 32.6918 31.3501 33.4459 29.3271C33.4765 29.2452 33.3476 29.2121 33.3159 29.2914Z" fill="#EAA9A4"/>
<path d="M32.7945 29.0777C31.9071 30.5369 32.072 32.1754 31.9639 33.8105C31.8159 36.0489 30.7822 37.6753 28.7804 38.7083C28.7181 38.7404 28.7613 38.8465 28.8286 38.8227C30.2776 38.3105 31.4154 37.0423 31.8715 35.5839C32.5328 33.4706 31.7471 31.1249 32.89 29.1336C32.9257 29.0718 32.8317 29.0169 32.7945 29.0777Z" fill="#EAA9A4"/>
<path d="M45.7775 28.2451C47.1558 29.6998 48.2357 31.1108 47.7015 33.2178C47.6908 33.2597 47.7495 33.2855 47.7719 33.2473C48.8602 31.393 47.0859 29.401 45.873 28.1498C45.8122 28.0874 45.7177 28.1821 45.7775 28.2451Z" fill="#EAA9A4"/>
<path d="M45.6717 28.9442C46.9414 30.3527 47.1696 31.8684 47.1143 33.6878C47.1129 33.7371 47.1862 33.746 47.1994 33.6993C47.674 32.0113 46.895 30.097 45.7603 28.8557C45.7058 28.7961 45.6181 28.8847 45.6717 28.9442Z" fill="#EAA9A4"/>
<path d="M44.5044 31.2199C44.8182 32.4865 44.9543 33.7662 45.2063 35.0414C45.217 35.095 45.302 35.0823 45.3008 35.0287C45.271 33.7461 44.9445 32.4224 44.6342 31.1842C44.6132 31.1002 44.4834 31.1357 44.5044 31.2199Z" fill="#EAA9A4"/>
<path d="M46.9966 37.6704C47.2387 37.662 46.1736 45.7515 46.2952 46.6551C46.7643 50.1373 48.2202 53.9017 51.572 56.3788C55.5781 59.3393 61.4754 59.9637 66.7415 61.29C68.2845 61.6786 69.8244 62.1493 71.0916 62.934C73.0772 64.1636 73.985 66.6025 74.2633 68.5062C74.4136 69.5341 74.2432 70.5967 73.7694 71.5641C73.4434 72.2297 71.7464 73.4086 71.6667 73.9319C71.7632 73.2983 71.0095 72.9319 70.282 72.6322C69.5546 72.3328 68.6838 72.3098 67.8711 72.4139C64.0104 72.9091 61.6321 75.8306 58.6804 77.8203C55.2025 80.1645 50.6452 81.3015 46.1398 82.0603C44.0767 82.4078 41.9667 82.6898 39.8622 82.5574C35.5317 82.2848 31.6569 80.2974 27.3571 79.8147C24.9669 79.5465 22.4206 79.7357 20.2466 78.9209C18.7119 78.3459 17.5414 77.3311 16.4026 76.3486C14.4774 74.6875 12.4844 73.0218 10.0015 71.8879C9.08308 71.4686 8.05085 71.1184 6.98781 71.1839C5.92497 71.2494 4.85639 71.8514 4.76294 72.6739C6.16752 67.7882 8.58072 63.8749 13.8035 60.8193C16.7032 59.1228 19.8535 57.6205 22.2234 55.4868C25.124 52.8754 26.5779 49.5701 28.0001 46.3641C28.9791 44.1573 30.2646 38.9407 33.6299 38.4956C38.1752 37.8949 42.3826 37.831 46.9966 37.6704Z" fill="#A6A6E8"/>
<path d="M37.7963 36.2901L35.793 36.0868L21.5997 30.8667L23.009 34.3351C23.009 34.3351 24.3029 35.5849 25.9381 36.8543C27.5734 38.1238 31.0593 40.1701 31.9256 41.8349C31.9256 41.8349 38.1237 41.678 37.7963 36.2901Z" fill="#DB6E5F"/>
<path d="M25.291 92.2803C25.6103 95.009 26.6551 98.6694 27.0525 99.9999H34.1545C34.052 98.1521 33.8107 93.5929 33.8072 91.6305C33.8031 89.1395 34.7497 69.9587 34.7497 69.9587L35.4587 70.3898L51.2572 100H60.5715C59.045 95.7604 55.2477 90.5707 54.2383 89.3432C53.0173 87.8581 53.4083 80.1494 51.2145 71.8751C49.0206 63.6008 43.5072 58.3674 43.018 57.5187C42.5288 56.6701 42.6586 55.5385 42.6586 55.5385C43.0552 54.3789 45.1657 49.7293 47.4043 46.2979L49.067 39.9989C48.6078 40.2382 48.0995 40.3593 47.5357 40.2967C46.295 39.9422 45.2041 39.0006 45.1049 37.7161C44.6311 37.7749 44.2142 37.8071 44.0143 37.75C43.5666 37.6221 42.4793 33.2091 42.7352 32.8893C42.9911 32.5695 39.3454 33.465 39.3454 33.465C39.3454 33.465 39.6652 36.1511 39.3454 36.535C39.0257 36.9186 35.8277 36.0873 35.8277 36.0873C35.8277 36.0873 34.4845 38.07 33.0136 39.2852C31.5427 40.5004 29.432 41.9714 30.3275 44.2739C31.2229 46.5764 31.4147 50.7975 31.3507 51.7568C31.2868 52.7162 30.9227 53.7225 30.9227 53.7225C30.9227 53.7225 27.6783 56.9889 24.978 63.0013C21.6979 70.3048 22.9798 77.2979 23.6658 81.4499C24.3522 85.6012 24.8938 88.8866 25.291 92.2803Z" fill="#DB6E5F"/>
<path d="M42.975 34.979C42.7358 33.9654 42.5877 33.0297 42.7004 32.8888C42.9563 32.5691 39.3107 33.4645 39.3107 33.4645C39.3107 33.4645 39.4678 34.7865 39.4514 35.7081C40.6465 35.8405 41.9184 35.5764 42.975 34.979Z" fill="#BF4F43"/>
<path d="M25.291 92.2804C25.6104 95.009 26.6551 98.6695 27.0525 99.9999H34.1545C34.0521 98.1521 33.8107 93.5929 33.8072 91.6305C33.8031 89.1395 34.7497 69.9588 34.7497 69.9588L35.4587 70.3899L51.2572 100H60.5716C59.045 95.7605 55.2477 90.5708 54.2383 89.3432C53.0173 87.8582 53.4084 80.1495 51.2145 71.8752C49.0207 63.6009 43.5073 58.3674 43.0181 57.5188C42.5289 56.6702 42.6587 55.5385 42.6587 55.5385C42.6895 55.4486 42.7318 55.3352 42.7823 55.2054C38.845 55.7624 34.7021 54.9663 31.0057 53.4712C30.9568 53.6281 30.8097 53.7283 30.8097 53.7283C30.8097 53.7283 27.6785 56.9889 24.9782 63.0014C21.6981 70.3048 22.9801 77.298 23.6661 81.4499C24.3522 85.6012 24.8938 88.8867 25.291 92.2804Z" fill="#6C6CD3"/>
<path d="M45.584 29.285C46.2349 29.4004 46.9252 28.9909 47.2735 28.2826C47.6218 27.5742 47.6091 26.6061 47.2425 25.9129C47.1418 25.7225 47.0135 25.5492 46.8514 25.4483C46.4709 25.2122 45.9929 25.442 45.7087 25.841C45.4245 26.2401 45.2318 27.4235 45.2279 27.3838L45.584 29.285Z" fill="#DB6E5F"/>
<path d="M45.8389 28.1041C45.838 27.62 45.9759 27.1363 46.2318 26.7256C46.3755 26.4947 46.571 26.2766 46.8321 26.2002" stroke="#BF4F43" stroke-width="0.205379" stroke-miterlimit="10"/>
<path d="M45.9703 27.3798C46.0315 27.2964 46.1535 27.2746 46.2515 27.3079C46.3495 27.3411 46.4263 27.4192 46.4856 27.5038C46.6072 27.6771 46.6709 27.8905 46.6641 28.1023" stroke="#BF4F43" stroke-width="0.205379" stroke-miterlimit="10"/>
<path d="M31.9188 26.8476C31.9188 26.8476 32.8234 28.5925 33.599 30.1435C34.3745 31.6945 34.4392 32.9223 35.8608 33.9564C36.9384 34.7401 39.2808 35.0866 40.3518 35.2086C40.7141 35.2499 41.0793 35.1854 41.4054 35.0221C42.6644 34.3916 45.8839 32.6374 46.0827 31.0946C46.3302 29.1741 45.6192 25.6199 45.3608 24.5211C45.1022 23.4225 43.7469 20.0455 41.8967 19.7224C40.0466 19.3993 36.1945 17.8565 33.5449 21.4755C30.8954 25.0945 31.9188 26.8476 31.9188 26.8476Z" fill="#DB6E5F"/>
<path d="M34.8949 31.82C37.0466 31.8157 39.1815 30.9642 41.2185 30.3502C41.9297 30.1357 45.8323 29.0526 45.3905 27.862C45.1632 27.2491 43.8995 27.3194 43.4107 27.3301C42.2384 27.3559 41.1396 27.6164 40.0371 27.9988C38.0793 28.678 35.8499 29.5681 34.6086 31.3212C34.4595 31.5317 34.6599 31.8205 34.8949 31.82Z" fill="#D15E52"/>
<path d="M38.7663 29.3384C38.7599 29.6428 38.6753 29.9395 38.627 30.2402C38.5788 30.5409 38.5701 30.8627 38.7059 31.1352C38.8419 31.4078 39.1588 31.6084 39.452 31.5259" stroke="#A5312B" stroke-width="0.205379" stroke-miterlimit="10"/>
<path d="M33.5449 26.8829C33.9662 26.3206 34.6172 25.9565 35.3015 25.7973C35.9858 25.6381 36.7032 25.6716 37.3947 25.7963C37.319 25.5782 37.2198 25.4005 37.0998 25.2031C36.9856 25.015 36.8493 24.8353 36.6673 24.7117C36.4853 24.588 36.2516 24.5268 36.0407 24.5891C35.3942 24.7803 34.8768 25.0325 34.4038 25.5129C33.931 25.9934 33.8435 26.2783 33.5449 26.8829Z" fill="#1E171D"/>
<path d="M42.8269 24.3228C42.4909 25.0212 41.876 25.8927 41.1337 26.1868C40.7893 26.3231 40.3964 26.3527 40.0471 26.2299C39.6786 26.1005 39.3738 25.8009 39.2383 25.4345C39.6184 25.4293 39.9577 25.3067 40.3354 25.2632C40.5459 25.2389 40.7562 25.2086 40.9608 25.1537C41.632 24.9736 42.2746 24.7446 42.8269 24.3228Z" fill="#1E171D"/>
<path d="M33.2292 28.3133C33.2085 28.4294 33.3979 28.4803 33.4812 28.4834C33.5995 28.4879 33.7819 28.4462 33.7784 28.301C33.778 28.2821 33.7632 28.2682 33.7447 28.2673C33.6496 28.2626 33.5771 28.3287 33.4812 28.3324C33.4046 28.3355 33.3073 28.2825 33.236 28.3066C33.2331 28.3076 33.2299 28.3098 33.2292 28.3133Z" fill="#1E171D"/>
<path d="M37.5118 29.5375C37.5118 29.5375 36.3939 27.1986 34.707 27.5369C33.02 27.8751 34.31 30.0398 34.6454 30.2407C34.9807 30.4417 36.3021 30.8576 37.5118 29.5375Z" fill="#F8F9F2"/>
<mask id="mask0_175_13886" style="mask-type:luminance" maskUnits="userSpaceOnUse" x="33" y="27" width="5" height="4">
<path d="M37.5118 29.5375C37.5118 29.5375 36.3939 27.1986 34.707 27.5369C33.02 27.8751 34.31 30.0398 34.6454 30.2407C34.9807 30.4417 36.3021 30.8576 37.5118 29.5375Z" fill="white"/>
</mask>
<g mask="url(#mask0_175_13886)">
<path d="M37.4683 28.6155C37.5948 29.3567 37.0965 30.0603 36.3553 30.1868C35.6141 30.3136 34.9105 29.8151 34.784 29.0739C34.6572 28.3327 35.1557 27.6291 35.8969 27.5025C36.6381 27.376 37.3415 27.8743 37.4683 28.6155Z" fill="#7978E3"/>
</g>
<mask id="mask1_175_13886" style="mask-type:luminance" maskUnits="userSpaceOnUse" x="33" y="27" width="5" height="4">
<path d="M37.5118 29.5375C37.5118 29.5375 36.3939 27.1986 34.707 27.5369C33.02 27.8751 34.31 30.0398 34.6454 30.2407C34.9807 30.4417 36.3021 30.8576 37.5118 29.5375Z" fill="white"/>
</mask>
<g mask="url(#mask1_175_13886)">
<path d="M37.0654 28.691C37.1504 29.1888 36.8156 29.6614 36.3178 29.7464C35.8199 29.8314 35.3474 29.4967 35.2623 28.9988C35.1773 28.501 35.5121 28.0284 36.0099 27.9434C36.5076 27.8584 36.9801 28.1929 37.0654 28.691Z" fill="#1E171D"/>
</g>
<path d="M37.5442 29.5494C37.5442 29.5494 36.7925 27.3662 35.0279 27.1547C34.5718 27.1001 33.2997 27.8552 32.6476 27.8189C32.6476 27.8189 33.1694 28.341 33.8271 28.3173C33.8271 28.3173 34.306 27.6585 35.3233 27.8142C36.3405 27.9694 37.5442 29.5494 37.5442 29.5494Z" fill="#1E171D"/>
<path d="M41.4248 28.4252C41.7974 27.9199 42.0722 27.4589 42.6392 27.1422C43.1997 26.8292 43.777 26.8959 44.372 26.7493C44.4227 26.7368 44.4254 26.67 44.3858 26.6437C43.2695 25.9017 41.4197 27.1812 41.3396 28.4022C41.3363 28.4521 41.4006 28.458 41.4248 28.4252Z" fill="#1E171D"/>
<path d="M41.4849 28.3658C41.6194 27.9764 41.7432 27.5798 41.9673 27.2301C42.1704 26.9132 42.4882 26.6698 42.6607 26.3359C42.6822 26.294 42.6568 26.2243 42.6005 26.2309C41.7309 26.3326 41.2234 27.6096 41.3596 28.3658C41.3717 28.4338 41.4658 28.4209 41.4849 28.3658Z" fill="#1E171D"/>
<path d="M41.8966 31.6998C40.842 31.6928 39.8007 32.258 39.2321 33.146C39.7447 33.4393 40.4908 33.7544 41.041 33.5398C41.1947 33.4798 41.3397 33.3968 41.4623 33.2865C41.8966 32.8951 41.8317 31.9852 41.8966 31.6998Z" fill="#E84969"/>
<path d="M38.3463 33.3232C38.5065 33.1932 38.718 33.1285 38.9236 33.1464C39.5728 33.2031 40.1177 33.116 40.6926 32.8094C41.3188 32.4754 41.7646 31.8899 42.1904 31.3222C42.3748 31.0762 42.6858 31.0041 42.9751 31.1082" stroke="#BC2A54" stroke-width="0.205379" stroke-miterlimit="10"/>
<path d="M34.5573 23.996C34.5573 23.996 35.8308 22.0771 38.0806 21.4947C40.3305 20.9122 42.0113 20.7409 42.0113 20.7409C42.0113 20.7409 39.648 18.8845 37.5119 19.6101C34.3977 20.668 34.5573 23.996 34.5573 23.996Z" fill="#E5A29C"/>
<path d="M42.0112 20.7411C42.0112 20.7411 42.9444 23.8121 44.8883 25.0062C44.8883 25.0062 44.8834 26.2672 45.8388 26.6381C45.8388 26.6381 45.4375 22.2602 45.0175 21.2588C44.5975 20.2574 41.707 19.235 41.707 19.235C41.707 19.235 40.2942 16.8717 38.346 16.8333C36.398 16.7949 33.3099 18.1336 32.2668 22.329C31.2237 26.5245 28.6394 28.7418 27.0888 29.5713C25.5382 30.4008 24.6014 30.2369 24.8276 31.062C25.0537 31.887 28.8218 33.34 31.503 30.4649C34.1842 27.5898 34.4586 24.8028 34.8277 23.0633C34.8277 23.0633 34.8472 22.8604 34.9338 22.5504C35.5607 20.3089 38.0314 19.1391 40.1903 20.0083L42.0112 20.7411Z" fill="#FBC2BB"/>
<path d="M55.5317 38.7958C55.354 38.6839 54.1413 37.8365 52.0678 38.192C51.6714 38.26 51.2621 38.2838 50.8591 38.2783C50.0479 39.4309 48.9696 40.4557 47.5359 40.2963C47.1214 40.1778 46.7251 39.992 46.3749 39.7517C44.9818 43.4694 46.0054 48.614 46.0054 48.614C47.2252 46.8765 49.2461 44.7011 49.6714 44.3168C50.4428 43.62 52.0134 43.5278 53.3167 43.0539C54.62 42.5799 55.3904 41.6426 55.3904 41.6426C55.3904 41.6426 55.7096 38.9076 55.5317 38.7958Z" fill="#DB6E5F"/>
<path d="M63.4463 36.3271L37.6 35.0514V34.6514L63.4463 35.927V36.3271Z" fill="#CDC1EA"/>
<path d="M62.0535 36.6929L62.8915 36.0322L62.1638 35.2515C62.1135 35.1975 62.1694 35.119 62.2452 35.1375L66.5824 36.1371C66.6302 36.1482 66.6271 36.2174 66.5782 36.224L62.1166 36.8179C62.039 36.8245 61.9956 36.7385 62.0535 36.6929Z" fill="#DBBA73"/>
<path d="M34.8087 22.7897C34.456 24.6081 34.0058 26.4774 33.044 28.0814C32.1971 29.494 30.9796 30.4544 29.6354 31.3648C29.5842 31.3995 29.6284 31.4761 29.684 31.448C33.0488 29.7436 34.3496 26.3554 34.9341 22.8242C34.9475 22.743 34.8247 22.7069 34.8087 22.7897Z" fill="#EAA9A4"/>
<path d="M29.9185 27.347C32.0318 23.6325 32.3826 17.2357 37.9293 17.2698C37.9934 17.2703 38.0092 17.1711 37.9447 17.1565C35.924 16.6938 34.0226 18.16 32.9651 19.7549C31.4434 22.0496 31.0982 24.875 29.8064 27.2816C29.7669 27.355 29.877 27.4199 29.9185 27.347Z" fill="#EAA9A4"/>
<path d="M37.6291 17.1789C39.7698 17.3717 40.8653 19.9499 43.0581 19.8757C43.1466 19.8726 43.1427 19.7504 43.0581 19.741C40.9031 19.5017 39.8041 17.1649 37.6291 17.0538C37.5478 17.0495 37.5501 17.1717 37.6291 17.1789Z" fill="#EAA9A4"/>
<path d="M41.9654 20.8245C42.1998 22.5398 43.2829 24.1313 44.9046 24.8144C44.9654 24.84 45.0055 24.7398 44.9492 24.7088C43.4156 23.8667 42.3513 22.5501 42.0722 20.7951C42.0609 20.7242 41.956 20.7552 41.9654 20.8245Z" fill="#EAA9A4"/>
<path d="M42.1151 20.6105C42.981 22.5536 45.1853 22.8385 46.7846 23.9409C49.2833 25.6635 50.115 28.4585 49.6644 31.357C49.6509 31.4436 49.7735 31.4827 49.799 31.3941C50.4223 29.2264 49.7836 26.7869 48.3373 25.0886C47.5733 24.1913 46.6312 23.57 45.5686 23.0784C44.2595 22.4727 42.8787 21.9387 42.2191 20.5497C42.1856 20.4793 42.0839 20.5407 42.1151 20.6105Z" fill="#EAA9A4"/>
<path d="M42.0821 20.617C42.8887 22.7651 45.2961 23.2625 46.9163 24.6096C47.8508 25.3867 48.6089 26.3717 49.133 27.4676C49.6824 28.6163 49.7814 29.7449 49.9999 30.9753C50.005 31.0045 50.044 30.9932 50.0471 30.9689C50.2973 29.0546 49.2215 26.872 48.0053 25.4607C47.3051 24.6482 46.4715 24.0321 45.538 23.5122C44.2099 22.7729 42.7769 22.0998 42.1984 20.585C42.1709 20.5135 42.0548 20.5443 42.0821 20.617Z" fill="#EAA9A4"/>
<path d="M36.3666 17.1675C38.23 16.3686 39.7252 17.1147 41.1012 18.3895C41.7323 18.9742 42.4941 19.6542 43.413 19.5439C43.4431 19.5402 43.4547 19.4963 43.4206 19.4873C42.4699 19.234 41.8102 18.8079 41.0905 18.1537C40.5798 17.6894 40.0912 17.2336 39.4418 16.9691C38.4097 16.5487 37.3134 16.6216 36.3058 17.0638C36.2348 17.0948 36.2964 17.1977 36.3666 17.1675Z" fill="#EAA9A4"/>
<path d="M34.6617 17.5897C33.3615 17.8827 32.5424 18.8731 32.0277 20.0552C31.2475 21.8472 30.7102 23.9069 30.2502 25.8036C30.2325 25.8767 30.3364 25.9034 30.3615 25.8344C30.892 24.3729 31.2723 22.8519 31.7353 21.3678C32.2263 19.7934 32.9252 18.1255 34.695 17.7104C34.7734 17.6919 34.7402 17.572 34.6617 17.5897Z" fill="#EAA9A4"/>
<path d="M50.859 38.2784C49.1531 38.2552 47.5614 37.7029 47.5614 37.7029V37.7031C47.2916 37.5647 47.0346 37.4782 46.8288 37.494C46.3686 37.5294 45.6929 37.6432 45.1051 37.7161C45.1875 38.7834 45.9554 39.6127 46.9241 40.0664C46.9313 40.0697 46.9385 40.0728 46.9457 40.0763C47.0272 40.1139 47.1098 40.1486 47.1938 40.1808C47.2137 40.1884 47.2334 40.1964 47.2534 40.2036C47.3466 40.2377 47.4407 40.2695 47.536 40.2968C47.6175 40.3059 47.6974 40.31 47.7765 40.3116C47.8023 40.3123 47.8278 40.3112 47.8533 40.311C47.9065 40.3104 47.9593 40.3088 48.0114 40.3049C48.0406 40.3028 48.0695 40.3003 48.0983 40.2975C48.1478 40.2921 48.1967 40.2851 48.2451 40.2769C48.2725 40.2724 48.3 40.2687 48.3269 40.2634C48.3957 40.2496 48.4637 40.2336 48.5306 40.2145C48.5618 40.2057 48.592 40.1946 48.6228 40.1847C48.6614 40.1722 48.7 40.1597 48.7378 40.1455C48.7738 40.1321 48.8093 40.1173 48.8446 40.1024C48.8761 40.089 48.9073 40.0752 48.9385 40.0609C48.9748 40.044 49.0112 40.027 49.0471 40.0085C49.0537 40.005 49.0607 40.0023 49.0673 39.9988L49.0677 39.9974C49.7758 39.6279 50.3669 38.9777 50.859 38.2784Z" fill="#DB6E5F"/>
<path d="M46.0827 37.5767C45.5787 37.6459 44.414 37.717 43.9796 37.7499C42.9159 39.8051 41.795 40.8993 40.1523 41.0955C37.6042 41.3999 35.7494 38.6531 37.0125 36.4192C37.0207 36.4046 37.0292 36.3901 37.0374 36.3757C36.3586 36.2338 35.793 36.0869 35.793 36.0869C35.793 36.0869 34.4498 38.0696 32.9789 39.2849C31.5077 40.5001 29.3973 41.971 30.2927 44.2735C30.7485 45.4454 31.0216 47.1137 31.172 48.5965C35.7106 49.3275 40.1589 50.4176 44.552 51.3459C44.8397 50.7729 45.1808 50.1178 45.5064 49.5154C43.9024 45.7656 44.1626 41.1799 46.0827 37.5767Z" fill="#DCD3EF"/>
<path d="M19.4305 31.1118C19.1009 31.5158 18.7717 32.7477 19.6318 34.4611C20.4917 36.1744 21.2648 37.4186 24.8642 37.3229C29.5771 37.1974 37.0621 36.2336 37.0621 36.2336L37.2459 34.6788C37.2459 34.6788 26.0926 31.4813 24.1618 31.1141C23.5054 30.9894 19.9376 30.4908 19.4305 31.1118Z" fill="#DB6E5F"/>
<path d="M37.8462 37.0028C37.8462 37.0028 41.3208 37.7225 41.8507 37.7225C42.3805 37.7225 39.847 36.6348 39.847 36.6348L37.8462 37.0028Z" fill="#C6544B"/>
<path d="M37.6672 34.8511L37.1201 36.3752C37.1201 36.3752 37.6079 37.1762 38.7171 37.0961C39.8264 37.016 41.0116 36.3528 41.3386 36.3908C41.6656 36.4286 44.9824 36.5261 45.6364 36.2704L46.0506 35.9766L37.6672 34.8511Z" fill="#C6544B"/>
<path d="M36.7535 34.5382C36.7535 34.5382 39.5947 34.2684 40.1602 34.2807C40.7256 34.2928 43.0599 35.1739 43.4051 35.4943C43.7502 35.8147 44.5592 36.7491 44.5592 36.7491C44.5592 36.7491 43.9075 36.9136 43.2361 36.391C42.5647 35.8683 40.8163 35.2205 40.8163 35.2205C40.8163 35.2205 39.2263 36.4289 38.7172 36.5647C38.208 36.7005 37.1201 36.3753 37.1201 36.3753L36.7535 34.5382Z" fill="#DB6E5F"/>
<path d="M36.7535 34.5382C36.7535 34.5382 39.5947 34.2684 40.1602 34.2807C40.7256 34.2928 43.0599 35.1739 43.4051 35.4943C43.7502 35.8147 44.5592 36.7491 44.5592 36.7491C44.5592 36.7491 43.9075 36.9136 43.2361 36.391" stroke="#A83B33" stroke-width="0.154034" stroke-miterlimit="10"/>
<path d="M24.8641 37.3232C29.577 37.1977 37.062 36.2339 37.062 36.2339" stroke="#A83B33" stroke-width="0.154034" stroke-miterlimit="10"/>
<path d="M31.196 52.7607L35.3167 54.8223L42.975 55.0852L42.7565 56.8546L34.274 58.6775L30.0785 54.5726L31.196 52.7607Z" fill="#C5C4FE"/>
<path d="M35.0689 57.9928C34.4575 57.2585 34.5571 56.1676 35.2915 55.5562C35.6437 55.2629 36.0777 55.1351 36.5018 55.1604C35.7325 54.589 34.6462 54.5923 33.8773 55.2327C32.9752 55.9838 32.8528 57.3239 33.6039 58.2259C34.3137 59.0784 35.5493 59.2335 36.4443 58.6138C35.9331 58.6272 35.4213 58.4161 35.0689 57.9928Z" fill="#E8E8FC"/>
<path d="M33.2192 69.7373C33.8317 69.9379 34.4441 70.1384 35.0566 70.339C35.5885 70.5132 36.1621 70.7995 36.7285 70.7251C36.8483 70.7093 36.9477 70.5614 36.8374 70.4622C36.4248 70.0901 35.8483 70.002 35.325 69.8496C34.6657 69.6576 34.0065 69.4653 33.3472 69.2733C33.0482 69.1858 32.9264 69.6413 33.2192 69.7373Z" fill="#657CDB"/>
<path d="M41.103 58.1576C45.1983 64.2941 47.8339 70.9822 49.2598 78.2066C49.9758 81.8334 50.571 85.5019 51.7714 89.0097C52.9803 92.5416 54.6566 95.9146 56.4054 99.2047C57.1501 100.606 59.2782 99.3621 58.5335 97.9608C56.7944 94.6889 55.1092 91.3404 53.9653 87.8068C52.8043 84.2207 52.2354 80.4853 51.4861 76.801C50.0362 69.6711 47.2722 62.9694 43.231 56.9136C42.3548 55.6008 40.2193 56.8333 41.103 58.1576Z" fill="#657CDB"/>
<path d="M56.7174 38.2139C56.7174 38.2139 56.7694 33.1433 56.5459 29.8806C56.3225 26.618 53.7129 21.2808 49.8769 15.7354C46.0408 10.19 42.0735 4.84415 44.3199 2.31861C45.2062 1.32211 46.7231 2.18758 46.6442 3.08591L46.9297 3.08755C46.9297 3.08755 48.079 0.9321 44.8504 0.117568C41.6219 -0.69717 40.4769 2.86266 41.5136 6.46767C42.7525 10.7755 47.3396 15.7524 50.5542 23.4868C52.248 27.5621 53.3096 32.7034 53.8452 38.2623L56.7174 38.2139Z" fill="#DBBA73"/>
<path d="M56.717 38.1919C56.717 38.1919 56.9776 43.2559 56.8885 46.5251C56.7994 49.7944 54.4114 55.2124 50.8068 60.9111C47.2022 66.6097 43.4584 72.1143 45.8069 74.5454C46.7333 75.5045 48.2133 74.5774 48.0975 73.683L48.3827 73.6696C48.3827 73.6696 49.6199 75.7758 46.4275 76.7228C43.2353 77.6696 41.9447 74.1601 42.8322 70.5154C43.8927 66.1604 48.271 60.9986 51.1646 53.1387C52.6893 48.9973 53.5384 43.8166 53.8448 38.2404L56.717 38.1919Z" fill="#DBBA73"/>
<path d="M42.986 69.9592C42.9298 70.1459 42.8772 70.3318 42.8324 70.5154C41.945 74.16 43.2356 77.6696 46.4278 76.7228C49.62 75.776 48.383 73.6696 48.383 73.6696L48.0977 73.683C48.2135 74.5772 46.7336 75.5043 45.8071 74.5453C43.4586 72.1143 47.2027 66.6097 50.8071 60.9111C54.4117 55.2124 56.7996 49.7943 56.8887 46.5251C56.9489 44.3167 56.8495 41.2912 56.7787 39.5591C54.1989 49.9399 51.4663 59.3878 44.3157 67.7303C43.7453 68.3883 43.3029 69.1459 42.986 69.9592Z" fill="#CEAB65"/>
<path d="M42.8357 8.59357C42.3399 7.02447 41.5851 5.4486 41.6666 3.7645C41.7106 2.85898 41.9959 1.86146 42.733 1.26812C43.5056 0.646029 44.2361 0.799242 45.1363 0.724689C45.2363 0.716474 45.3117 0.589345 45.2248 0.511095C43.9716 -0.616844 42.0983 1.08554 41.6346 2.25907C40.7893 4.39789 41.9305 6.65787 42.6966 8.63197C42.7293 8.71659 42.8642 8.68393 42.8357 8.59357Z" fill="#FFCDA4"/>
<path d="M43.1996 9.51474C43.3302 9.82076 43.5143 10.1112 43.6866 10.3952C43.8219 10.6182 43.9357 10.9111 44.1616 11.0508C44.2068 11.0787 44.2791 11.0432 44.274 10.9863C44.2483 10.7082 44.0197 10.45 43.872 10.2182C43.6997 9.94727 43.5286 9.66631 43.3206 9.4213C43.2588 9.3488 43.1684 9.44163 43.1996 9.51474Z" fill="#FFCDA4"/>
<path d="M31.2296 27.9102L31.216 28.3246L31.5496 28.5707L31.1513 28.6859L31.0203 29.0792L30.7878 28.736L30.3732 28.7329L30.6278 28.4057L30.5026 28.0106L30.8924 28.1515L31.2296 27.9102Z" fill="url(#paint0_linear_175_13886)"/>
<path d="M25.2733 30.8397C26.5364 30.7778 27.7904 30.5386 28.9876 30.1315C29.422 29.9838 29.8563 29.8097 30.2123 29.5205C31.033 28.8534 31.28 27.7727 31.6222 26.828C32.0559 25.6306 32.4897 24.4333 32.9235 23.2359C33.4661 21.7381 34.081 20.1435 35.3913 19.2372C36.3732 18.558 37.679 18.3715 38.8119 18.7486C39.8297 19.0875 41.992 19.6917 43.0583 19.8086" stroke="url(#paint1_linear_175_13886)" stroke-width="0.0513447" stroke-miterlimit="10"/>
<path d="M29.0384 30.1546C29.0384 30.2503 28.9608 30.3277 28.8653 30.3277C28.7696 30.3277 28.6921 30.2503 28.6921 30.1546C28.6921 30.0591 28.7696 29.9814 28.8653 29.9814C28.961 29.9814 29.0384 30.0589 29.0384 30.1546Z" fill="url(#paint2_linear_175_13886)"/>
<path d="M25.427 30.8266C25.427 30.8962 25.3705 30.9525 25.3011 30.9525C25.2314 30.9525 25.1752 30.896 25.1752 30.8266C25.1752 30.757 25.2317 30.7007 25.3011 30.7007C25.3707 30.7005 25.427 30.757 25.427 30.8266Z" fill="url(#paint3_linear_175_13886)"/>
<path d="M27.3071 15.8076L27.3313 17.1387L28.6667 17.2689L27.3981 17.7031L27.686 19.0035L26.8779 17.9405L25.7203 18.6141L26.4895 17.5231L25.4862 16.6388L26.7696 17.0276L27.3071 15.8076Z" fill="#EDA4DA"/>
<path d="M29.8415 16.0811C29.785 16.3612 29.5106 16.543 29.2282 16.4869C28.9458 16.4311 28.7629 16.1585 28.8191 15.8784C28.8756 15.5982 29.15 15.4165 29.4324 15.4726C29.7148 15.5286 29.898 15.8012 29.8415 16.0811Z" fill="#EEBCF7"/>
<path d="M28.1067 14.1707C28.0822 14.2919 27.9633 14.3707 27.8411 14.3465C27.7189 14.3223 27.6397 14.2044 27.6641 14.083C27.6885 13.9618 27.8074 13.883 27.9296 13.9072C28.0518 13.9316 28.1311 14.0495 28.1067 14.1707Z" fill="#EEBCF7"/>
<path d="M30.0455 13.3526C30.0286 13.4366 29.9463 13.4913 29.8614 13.4744C29.7768 13.4576 29.7218 13.3758 29.7386 13.2918C29.7555 13.2078 29.8378 13.1532 29.9226 13.17C30.0075 13.1869 30.0625 13.2686 30.0455 13.3526Z" fill="#EEBCF7"/>
<path d="M24.7327 17.2465C24.141 17.1422 24.0946 17.1773 23.7675 17.0235C23.1737 16.9462 22.4978 16.8171 22.13 16.6614C21.8299 16.6495 21.5192 16.5963 21.3812 16.5326C21.1897 16.609 20.8903 16.4548 20.8519 16.5242C20.59 16.3876 20.1569 16.3564 19.7652 16.3519C19.3703 16.3445 19.032 16.378 18.9098 16.3098C18.8412 16.3262 18.7628 16.3515 18.7361 16.3757C18.7355 16.3792 18.732 16.3843 18.7447 16.3712C18.747 16.3648 18.7499 16.3591 18.7527 16.3521C18.7538 16.3437 18.7515 16.3379 18.7544 16.3387C18.7517 16.3303 18.7726 16.357 18.7928 16.3741C18.8905 16.4562 19.0302 16.5386 19.1606 16.6156C19.4264 16.7708 19.6866 16.9226 19.8942 17.0713C19.9256 17.0321 20.1875 17.0964 20.3832 17.2771C20.55 17.2332 21.2218 17.517 21.7999 17.8211C21.8042 17.7747 22.4267 17.9452 22.7375 18.1307L22.7354 18.13L22.7379 18.1307C22.7917 18.1629 22.8369 18.1958 22.8669 18.2284C23.0347 18.2863 22.8589 18.1557 22.7379 18.1307L22.7377 18.1304C23.1552 18.2395 23.6874 18.4069 23.8732 18.5735C24.0398 18.5554 24.6837 18.777 24.8823 18.9097C24.8999 18.8665 24.988 18.8867 25.171 19.0043C25.2567 19.0282 25.2419 18.9801 25.2597 18.9555C25.9124 19.1637 25.9621 19.2812 26.623 19.4451C26.0798 19.4052 27.5158 19.7195 27.1821 19.7248C27.6559 19.8462 27.6596 19.7275 27.9757 19.9975C27.9804 19.8456 28.6351 20.2442 29.1531 20.2812C28.9849 20.267 29.2326 20.3683 29.0656 20.3319C29.1266 20.3793 29.1991 20.3808 29.4244 20.4664C29.3833 20.4194 29.2782 20.3742 29.1432 20.3298C29.2887 20.3752 29.9042 20.5042 29.9387 20.5958C30.0693 20.5026 30.5316 20.7427 30.8269 20.7839C32.5712 21.4062 33.4373 21.7657 35.1896 22.1472C36.496 22.6069 37.9123 23.0109 38.8402 23.2321C38.7753 23.2842 38.9776 23.3208 38.97 23.3692C38.9223 23.3037 39.2768 23.3027 39.2639 23.4485C39.4522 23.4204 39.488 23.5249 39.8474 23.6309C39.6196 23.4226 40.8455 23.8435 41.1006 23.9388C41.1873 23.9575 41.17 23.9104 41.1862 23.8847C42.9404 24.4074 43.2135 24.451 44.8697 24.8106C44.5996 24.8414 45.0917 24.8706 45.3858 24.9404C45.3252 24.9478 45.2979 24.9757 45.2971 25.0199C45.9366 25.0698 46.9561 25.3286 47.729 25.6453C47.8064 25.6475 47.8132 25.6075 47.9578 25.65C47.9144 25.7309 48.1669 25.7344 48.6195 25.834C49.5345 26.0357 50.6195 26.2421 51.6581 26.5128C52.6303 26.7666 53.4775 27.0609 54.0308 27.0517C53.9663 27.1306 54.6556 27.1903 54.5385 27.2817C55.2707 27.2671 56.2091 27.6054 57.3824 27.7325C57.4902 27.7607 57.3734 27.7529 57.3793 27.782C58.0088 27.8748 58.751 27.9812 59.3881 27.9981C59.5428 27.9995 59.7056 27.9975 59.8124 27.9642C59.8398 27.9576 59.8519 27.9434 59.8472 27.9508C59.841 27.9572 59.8393 27.9697 59.8398 27.9784C59.84 27.9847 59.8402 27.9827 59.8379 27.9773C59.8223 27.9494 59.7763 27.9048 59.7332 27.8707C59.5491 27.728 59.3668 27.6315 59.2624 27.5618C58.9172 27.4992 58.5407 27.1811 58.137 27.1427C58.056 27.1055 58.0908 27.0755 58.0881 27.0431C57.711 26.9373 57.2128 26.7635 57.2403 26.7134C57.0552 26.729 56.9277 26.6103 56.7235 26.6007C56.9041 26.5713 56.5001 26.5196 56.3857 26.3994C56.442 26.4341 55.5738 26.1675 55.228 26.0453C54.7016 25.8562 54.122 25.5422 53.7891 25.5615C52.5667 25.017 51.0658 24.6658 49.8121 24.2764C49.8407 24.2435 49.7522 24.2138 49.7546 24.1815C49.4796 24.1774 48.4149 23.7691 47.9358 23.6334C47.8617 23.6122 47.8756 23.6662 47.8532 23.6603L47.9789 23.4146C48.0796 23.5843 49.4462 23.7971 50.288 24.2162C50.4453 24.2023 50.4079 24.2269 50.6614 24.2797C50.6525 24.2772 50.5723 24.3035 50.5786 24.3058C51.3303 24.5609 52.1789 24.6783 52.9148 24.9652C53.1884 25.0702 54.5309 25.4859 55.1304 25.8036C56.4282 26.1616 57.711 26.6212 58.9199 27.1766C59.2209 27.3201 59.5183 27.4622 59.7987 27.6551C59.8683 27.7062 59.9375 27.7559 60.0014 27.8389C60.0172 27.8603 60.0324 27.8868 60.0439 27.9198C60.054 27.9551 60.0585 28.0059 60.0359 28.0467C59.9907 28.1322 59.9281 28.1474 59.8837 28.165C59.6974 28.2184 59.5385 28.2084 59.374 28.2086C58.7268 28.1844 58.1125 28.0942 57.5155 28.0285C57.412 27.9968 57.5099 27.9313 57.3711 27.9057C57.1869 27.8792 57.35 27.9849 57.442 27.9919C56.6174 27.8574 55.5931 27.6779 54.595 27.4694C53.9006 27.3257 52.899 27.117 52.4472 26.9151C52.2095 26.9597 51.4098 26.7056 51.5589 26.6929C51.3389 26.7011 50.5016 26.5191 50.1533 26.347C49.8335 26.33 49.2393 26.161 49.1872 26.1464C49.1656 26.1404 49.0036 26.1431 48.8877 26.1008C48.8612 26.0911 48.7655 25.9954 48.7501 25.9919C48.5386 25.9463 48.8557 26.0665 48.6657 26.0478C48.0718 25.9897 47.3322 25.5919 46.6698 25.5643C46.3092 25.3479 45.9627 25.3686 45.341 25.2343L45.3632 25.0874C45.2932 25.1758 45.1201 25.0345 45.0533 25.1113C45.0798 25.1558 45.149 25.1254 45.2745 25.1669C45.1453 25.2421 44.696 25.0289 44.696 24.9449C44.5641 24.9174 44.5288 24.9449 44.5945 24.9823C44.3891 24.9049 43.9726 24.7759 43.8699 24.8367C43.7849 24.7079 43.4949 24.8174 43.4397 24.6502C43.1975 24.7091 42.2953 24.4428 42.1104 24.3314C41.8843 24.3485 41.7157 24.2571 41.3627 24.2117C41.5822 24.229 41.4604 24.1725 41.2275 24.0998C41.2257 24.124 41.3144 24.1425 41.3707 24.163C41.2906 24.2273 41.2023 24.1409 41.0764 24.0854C40.7775 24.1645 39.3732 23.6327 38.7211 23.481C38.511 23.4019 38.6445 23.422 38.6642 23.3635C38.603 23.3604 38.5406 23.3567 38.4399 23.3282C38.4752 23.3584 38.5097 23.3886 38.5005 23.4212C37.8585 23.2701 37.2029 23.0045 36.3906 22.7396C35.3444 22.4007 33.0374 21.9402 32.3071 21.5019C31.3609 21.2847 30.2036 20.8293 28.8077 20.4599C29.0911 20.3908 28.2724 20.3465 28.1632 20.2107C27.8742 20.2689 26.5838 19.6595 25.6395 19.3383C24.8991 19.0875 24.2324 19.0635 23.9833 18.7673C23.7857 18.7686 23.6529 18.6708 23.3232 18.5954C23.538 18.5977 22.8632 18.3829 22.6761 18.3709C22.574 18.3235 22.6882 18.3523 22.688 18.3229C22.1259 18.1454 22.2863 18.2422 21.8274 18.0154C21.8683 17.9912 21.9166 18.0586 22.0425 18.0933C21.949 17.9651 21.6974 17.9721 21.5547 17.8626C21.6334 17.9752 20.8913 17.7026 20.772 17.5652C20.6878 17.5369 20.6997 17.5854 20.6806 17.609C20.3567 17.4278 19.8361 17.2424 19.3056 17.0011C19.1731 16.9399 19.0398 16.876 18.9098 16.8019C18.7794 16.7213 18.6531 16.6595 18.5297 16.4997C18.5028 16.462 18.4586 16.3794 18.4905 16.2767C18.533 16.1718 18.6005 16.1512 18.6451 16.1274C18.7375 16.0923 18.8102 16.0875 18.8819 16.082C19.023 16.075 19.1487 16.088 19.2651 16.106C19.3003 16.1112 19.3982 16.1849 19.4227 16.1872C19.5818 16.1976 19.3582 16.1266 19.344 16.1336C19.4348 16.0863 19.7634 16.1079 20.1292 16.1652C20.4956 16.221 20.901 16.3071 21.1653 16.3486C21.9154 16.4648 22.8539 16.5961 23.489 16.7678C23.3616 16.8409 23.6779 16.8573 23.703 16.9107C23.8537 16.9483 23.695 16.8364 23.6358 16.822C23.6198 16.7811 24.0924 16.9181 23.8547 16.916C24.1815 16.9282 24.3207 16.968 24.7514 17.0746C24.7036 17.0871 24.6563 17.0999 24.7463 17.1239C24.7451 17.1611 24.3 17.0676 24.6662 17.1576C24.6459 17.1853 24.4405 17.1436 24.4429 17.1112C24.2936 17.1356 24.6317 17.2136 24.7327 17.2465ZM39.7658 23.6601C39.9568 23.7371 40.1359 23.7856 40.2842 23.773C40.1429 23.6753 39.5601 23.6369 39.7658 23.6601Z" fill="#DEC8ED"/>
<path d="M44.5947 24.9824C44.6153 24.9939 44.6442 25.0065 44.6849 25.0186C44.665 25.0093 44.6323 24.9964 44.5947 24.9824Z" fill="#DEC8ED"/>
<path d="M4.65507 57.8939C3.33962 57.8939 2.27329 56.8276 2.27329 55.5122C2.27329 54.8812 2.52036 54.3093 2.92064 53.8833C1.63846 54.194 0.685303 55.3462 0.685303 56.7237C0.685303 58.3396 1.99521 59.6495 3.61113 59.6495C5.13832 59.6495 6.39072 58.4789 6.5236 56.9862C6.08758 57.5384 5.41353 57.8939 4.65507 57.8939Z" fill="#EEBCF7"/>
<path d="M73.1092 10.6448C72.2265 11.62 70.7203 11.6949 69.7451 10.8122C69.2775 10.3889 69.0191 9.82187 68.9719 9.23901C68.3418 10.398 68.5562 11.8779 69.5775 12.8025C70.7755 13.8869 72.6258 13.7949 73.7102 12.5969C74.735 11.4647 74.7077 9.7506 73.6902 8.65039C73.8069 9.34416 73.6182 10.0825 73.1092 10.6448Z" fill="#CDC1EA"/>
<path d="M65.7176 49.9502L66.1884 51.5887L67.7289 51.4575C67.8189 51.4499 67.8587 51.5678 67.7827 51.6165L66.3839 52.5095L66.992 53.9461C67.028 54.0311 66.9234 54.1059 66.8546 54.0441L65.7014 53.0059L64.4137 54.0625C64.3426 54.1209 64.2416 54.0424 64.2806 53.9592L64.9202 52.5918L63.4484 51.605C63.3753 51.5559 63.4137 51.4417 63.5016 51.447L65.1266 51.544L65.5507 49.9521C65.5739 49.8671 65.6936 49.866 65.7176 49.9502Z" fill="#EEBCF7"/>
<path d="M14.1189 45.4448L14.3377 46.2867C14.4675 46.7862 14.8378 47.1879 15.3249 47.3579L15.2812 47.3748C14.8189 47.5534 14.4704 47.9426 14.3436 48.4218L14.1189 49.2708L13.8943 48.4218C13.7675 47.9426 13.419 47.5534 12.9567 47.3748L12.913 47.3579C13.4001 47.1879 13.7704 46.7862 13.9002 46.2867L14.1189 45.4448Z" fill="#A5A5EF"/>
<path d="M16.0386 48.3345L16.2023 48.9646C16.2995 49.3384 16.5765 49.639 16.9413 49.7664L16.9086 49.7791C16.5628 49.9128 16.3017 50.2042 16.2068 50.5628L16.0386 51.1983L15.8704 50.5628C15.7755 50.2042 15.5147 49.9128 15.1686 49.7791L15.136 49.7664C15.5005 49.639 15.7778 49.3384 15.8749 48.9646L16.0386 48.3345Z" fill="#6262D1"/>
<path d="M11.8355 45.8457L11.9407 46.2509C12.0031 46.4912 12.1814 46.6845 12.4157 46.7664L12.3946 46.7746C12.1721 46.8607 12.0043 47.048 11.9434 47.2784L11.8353 47.6871L11.7273 47.2784C11.6663 47.048 11.4985 46.8605 11.2761 46.7746L11.2551 46.7664C11.4895 46.6847 11.6677 46.4912 11.7302 46.2509L11.8355 45.8457Z" fill="#BDBDF4"/>
<path d="M5.10991 19.2227L5.42763 20.4457C5.61617 21.1713 6.15406 21.755 6.86179 22.002L6.79833 22.0267C6.12674 22.2863 5.62028 22.8519 5.43626 23.5479L5.10991 24.7816L4.78357 23.5479C4.59955 22.8519 4.09288 22.2863 3.42149 22.0267L3.35803 22.002C4.06577 21.755 4.60365 21.1713 4.79219 20.4457L5.10991 19.2227Z" fill="#CDC1EA"/>
<path d="M9.06402 24.1968L9.22689 24.824C9.32362 25.1962 9.59944 25.4954 9.96235 25.6221L9.92969 25.6346C9.58527 25.7677 9.32567 26.0577 9.2312 26.4147L9.06381 27.0472L8.89643 26.4147C8.80196 26.0577 8.54236 25.7677 8.19794 25.6346L8.16528 25.6221C8.52819 25.4954 8.80401 25.1962 8.90074 24.824L9.06402 24.1968Z" fill="#CDC1EA"/>
<path d="M78.707 78.4512L79.0247 79.6742C79.2132 80.3998 79.7511 80.9835 80.4588 81.2306L80.3954 81.2552C79.7238 81.5148 79.2173 82.0804 79.0333 82.7762L78.707 84.01L78.3806 82.7762C78.1966 82.0802 77.6899 81.5146 77.0185 81.2552L76.9551 81.2306C77.6628 80.9835 78.2007 80.3998 78.3892 79.6742L78.707 78.4512Z" fill="#EEBCF7"/>
<path d="M80.4075 74.8145L80.572 75.4476C80.6696 75.8233 80.9481 76.1256 81.3147 76.2533L81.2818 76.2661C80.9341 76.4004 80.6718 76.6933 80.5765 77.0537L80.4075 77.6924L80.2385 77.0537C80.1432 76.6933 79.8809 76.4004 79.5332 76.2661L79.5004 76.2533C79.8668 76.1254 80.1455 75.8233 80.243 75.4476L80.4075 74.8145Z" fill="#BDBDF4"/>
<path d="M78.564 30.1329C78.5328 30.1617 78.5256 30.2011 78.4874 30.1036C78.5375 30.1081 78.5279 30.0333 78.6067 30.1151C78.5926 30.0218 78.5531 30.1138 78.539 30.0206C78.5577 30.0144 78.5712 30.0465 78.5913 30.0294C78.5895 30.0114 78.5891 29.9124 78.5521 29.9233C78.5441 30.0598 78.4858 29.7707 78.4876 29.7047C78.3962 29.7394 78.3823 29.3897 78.3083 29.4423C78.3055 29.3704 78.3059 29.3681 78.3215 29.3447C78.3022 29.3461 78.302 29.3188 78.302 29.2915C78.256 29.2685 78.2738 29.3823 78.2451 29.3151C78.2972 29.2905 78.2077 29.211 78.2342 29.197C78.2527 29.2254 78.2718 29.2508 78.2921 29.2648C78.2724 29.1794 78.2418 29.174 78.219 29.1114C78.2321 29.0985 78.2368 29.0535 78.2136 29.0522C78.2202 29.0882 78.2155 29.1143 78.1906 29.1231C78.2075 29.2196 78.2426 29.2322 78.2352 29.2884C78.2141 29.2126 78.173 29.2858 78.149 29.2326C78.1218 29.1291 78.2036 29.2324 78.1765 29.1291C78.1473 29.1469 78.1231 29.1262 78.1042 29.0672C78.0003 29.0831 78.1861 29.3531 78.2132 29.4509C78.2247 29.4928 78.1806 29.4607 78.2471 29.4981C78.2449 29.6294 78.2584 29.5677 78.3106 29.625C78.2909 29.6737 78.3576 29.7394 78.3268 29.8023C78.3515 29.8559 78.3508 29.7468 78.389 29.8376C78.3771 29.8573 78.3673 29.8793 78.366 29.9085C78.4513 29.9553 78.3621 29.8725 78.4131 29.8582C78.4305 30.0282 78.4741 29.8826 78.519 29.9672C78.4981 30.0155 78.4911 29.9748 78.4576 30.0235C78.4595 29.9785 78.449 29.9522 78.4139 29.9498C78.4227 29.9875 78.4125 30.0089 78.4389 30.0619C78.4724 29.9898 78.5425 30.3352 78.564 30.1329Z" fill="#DEC8ED"/>
<path d="M78.0517 29.0592C77.9925 28.8976 78.0379 28.9117 77.9634 28.8201L78.0061 28.8023C77.963 28.7573 77.9334 28.6119 77.8804 28.64C77.9363 28.6166 77.866 28.5314 77.9603 28.5453C77.9057 28.4687 77.8902 28.4772 77.8586 28.4038C77.8422 28.4201 77.8714 28.4753 77.8837 28.516C77.8212 28.5468 77.7802 28.4213 77.7383 28.3007C77.7904 28.3398 77.7516 28.2874 77.7711 28.2564C77.7465 28.2075 77.7052 28.2812 77.6892 28.1679C77.7099 28.1791 77.7266 28.2229 77.7514 28.2032L77.7646 28.1056C77.7282 28.0122 77.7383 28.1816 77.712 28.0968C77.7062 28.0943 77.7327 28.0292 77.6717 27.899C77.6469 27.9081 77.6422 27.9341 77.6487 27.9701C77.6194 27.9873 77.6074 27.8785 77.5853 27.8432C77.566 27.7538 77.6214 27.8824 77.629 27.9169C77.6596 27.8947 77.6214 27.8136 77.6707 27.8076C77.7036 27.83 77.7282 27.9109 77.767 27.89C77.7989 27.8754 77.6571 27.7626 77.7516 27.8043C77.7085 27.739 77.7204 27.7411 77.6927 27.6448C77.6808 27.7131 77.6504 27.7657 77.6039 27.8045C77.5914 27.746 77.6054 27.739 77.6368 27.7602C77.5994 27.7298 77.5861 27.6558 77.6019 27.6213C77.5836 27.6039 77.4824 27.5515 77.5308 27.6509C77.4809 27.6452 77.5 27.6178 77.4772 27.5505C77.5027 27.5269 77.5216 27.553 77.544 27.5534C77.4986 27.5139 77.5179 27.4872 77.4949 27.4205C77.4056 27.4221 77.4893 27.3359 77.4129 27.3322C77.4002 27.2907 77.3982 27.128 77.354 27.1728C77.368 27.0607 77.2324 26.8503 77.3027 26.8569C77.2714 26.7579 77.2254 26.7674 77.1823 26.7538C77.1702 26.6951 77.1805 26.6554 77.1759 26.6031C77.1351 26.7132 77.1784 26.4618 77.0983 26.4821C77.1036 26.4324 77.0714 26.3503 77.0821 26.3049C77.0519 26.2484 77.0718 26.3464 77.0295 26.2962C77.0192 26.2077 76.9876 26.2042 76.9511 26.0837C76.9938 26.0272 76.9853 26.0077 77.0016 25.9093C76.9607 25.8364 76.9615 25.9442 76.9303 25.9391C76.904 25.7943 76.8486 25.6271 76.7644 25.5791C76.7543 25.499 76.7541 25.4552 76.7097 25.3872C76.7231 25.3874 76.7338 25.408 76.7481 25.402C76.7233 25.354 76.6927 25.348 76.6705 25.281C76.6906 25.264 76.7042 25.296 76.7231 25.2899C76.6857 25.2063 76.6159 25.174 76.6641 25.1305C76.6444 25.0779 76.6128 25.1128 76.5964 25.036C76.6424 24.9722 76.4892 24.761 76.5397 24.6612C76.4965 24.6807 76.4783 24.6167 76.4193 24.5581C76.4682 24.5312 76.3388 24.3928 76.4228 24.4341C76.2589 24.0383 76.1673 23.7502 76.1412 23.5398C76.1273 23.5097 76.1069 23.5281 76.0887 23.531C76.0975 23.6181 76.055 23.4739 76.1074 23.4926C76.0435 23.3971 76.0367 23.2868 75.9566 23.2182C75.9679 23.1373 75.9412 23.0135 75.8991 22.887L75.9687 22.9449C75.8087 22.9169 75.6348 22.9075 75.5335 22.9149C75.5132 22.8982 75.5068 22.8761 75.5116 22.8496C75.4345 22.8596 75.3261 22.8467 75.3076 22.8991C75.2485 22.842 75.3031 22.86 75.1969 22.8681C75.1971 22.7592 74.6545 22.7709 74.6701 22.7323C74.6381 22.7309 74.6531 22.7457 74.6685 22.7477C74.2253 22.6423 73.8287 22.6497 73.3828 22.5218C73.382 22.5368 73.4159 22.5384 73.4372 22.5448C73.1111 22.5154 72.9357 22.4602 72.6284 22.3854C72.6093 22.3988 72.6063 22.4359 72.4837 22.4119C72.4997 22.4016 72.5155 22.3912 72.5163 22.3698C72.4812 22.3717 72.4567 22.3813 72.4557 22.408C72.2111 22.3066 71.9378 22.278 71.7014 22.2718C71.8624 22.2521 71.4904 22.1936 71.5921 22.2254C71.3816 22.1587 71.0322 22.2127 70.8394 22.0739C70.5788 22.087 69.8731 21.9221 69.412 21.8436C69.4112 21.8157 69.4494 21.8161 69.4461 21.7861C69.374 21.7777 69.3954 21.8371 69.3545 21.851C69.1306 21.7791 68.9682 21.8578 68.8556 21.7192C68.7735 21.7851 68.524 21.7095 68.4911 21.6684C68.4512 21.6684 68.486 21.6951 68.5161 21.7029C68.419 21.7602 68.3227 21.6306 68.2888 21.7023C67.9935 21.5894 67.595 21.5961 67.257 21.4963C67.2919 21.5358 67.1075 21.4811 66.9779 21.4419C66.9785 21.5191 66.6267 21.385 66.4745 21.3563C66.3531 21.3333 66.2028 21.3513 66.0508 21.3283C65.8247 21.294 65.5811 21.2033 65.3837 21.1731C65.0974 21.1295 64.8249 21.163 64.6218 21.1135C64.6495 21.1203 64.5577 21.027 64.5657 21.1057C64.4406 21.0433 64.2301 21.0741 64.1213 20.9971C64.0085 21.0303 63.8152 20.9677 63.73 20.927C63.6209 20.9153 63.5125 20.9036 63.4084 20.8925L63.4059 20.8923L63.4037 20.8898C62.2685 19.6512 61.3285 18.3966 60.1067 17.0924C59.6955 16.6535 59.2185 16.1783 58.9381 15.7049C59.0704 15.6508 59.1729 15.9671 59.3103 16.1318C59.6081 16.4892 60.0687 16.8597 60.3599 17.2421C60.5902 17.3754 60.7241 17.6611 60.9295 17.8718C60.9681 17.9205 60.9978 17.9312 61.0188 17.9041C61.2607 18.1733 61.4425 18.4945 61.6625 18.7362C61.7672 18.8515 61.8771 18.9248 61.9826 19.0566C61.9835 19.0579 61.9375 19.0486 61.9416 19.0564C61.9831 19.1359 62.3051 19.3781 62.3583 19.558C62.5008 19.6202 62.5801 19.8426 62.7454 19.9318C62.7547 19.9595 62.7532 19.9835 62.7491 20.0063C62.7668 19.9969 62.8643 20.0679 62.7976 20.0383C62.9835 20.2754 63.2404 20.5296 63.4591 20.8428L63.4195 20.8204L63.4273 20.8225C63.4932 20.8112 63.5429 20.7672 63.5971 20.8305C63.706 20.7412 64.1194 20.92 64.2732 20.8938C64.2591 20.911 64.2344 20.9202 64.1861 20.9129C64.2375 20.9387 64.3184 20.9229 64.3794 20.971C64.3511 20.9478 64.5106 20.927 64.5476 20.9944C64.5751 20.9285 64.7175 21.0408 64.7203 20.9718C64.8444 20.9486 64.8838 21.0578 64.9668 21.0685C65.0259 21.0761 65.098 20.9823 65.1631 21.0958C65.2153 21.1008 65.1853 21.0461 65.2252 21.0422C65.4018 21.0979 65.4215 21.0689 65.5616 21.0891C65.5414 21.1503 65.6597 21.0876 65.5852 21.139C65.7088 21.1174 65.8931 21.1827 66.0604 21.2207C66.0276 21.1353 66.1352 21.2213 66.1522 21.1558C66.3219 21.164 66.389 21.2117 66.4548 21.2601C66.5236 21.268 66.4656 21.2102 66.4313 21.2102C66.4587 21.1774 66.4963 21.262 66.5981 21.2491C66.4798 21.2755 66.6258 21.2585 66.6201 21.3144C66.7096 21.3275 66.7597 21.2482 66.7604 21.3339C66.8162 21.3415 66.8002 21.2969 66.8756 21.3187C66.8398 21.3343 66.8622 21.3413 66.8711 21.3647C66.8867 21.3417 67.0465 21.3404 66.9629 21.2998C67.0791 21.2926 67.3751 21.3684 67.3806 21.3891C67.4363 21.3967 67.4202 21.3522 67.4958 21.3739C67.5599 21.4341 67.5952 21.4166 67.7172 21.436C67.7109 21.4631 67.7484 21.4731 67.7394 21.5011C67.8242 21.5027 67.7156 21.4647 67.7454 21.4396L67.8575 21.4555C67.7998 21.5093 67.9748 21.4528 67.9355 21.5284C68.158 21.5255 68.0547 21.4818 68.244 21.5715C68.3434 21.5584 68.8347 21.6294 68.9998 21.6923C69.0483 21.6307 69.1592 21.7023 69.2319 21.6469C69.3182 21.6693 69.542 21.7079 69.7883 21.7711L69.7837 21.8171C69.8439 21.7941 69.838 21.8315 69.8944 21.8481C69.9341 21.8034 69.8047 21.8239 69.8443 21.7789C70.0448 21.8937 70.3409 21.9018 70.5145 21.9036C70.5617 21.9457 70.6862 21.995 70.739 21.9348C70.8343 22.0254 71.138 21.9806 71.1787 22.0895C71.162 22.0617 71.2962 22.0055 71.322 22.0784C71.398 22.0706 71.4105 22.0773 71.3843 22.025C71.4422 22.0661 71.4828 22.0967 71.4032 22.1209C71.5638 22.073 71.9037 22.0856 72.0218 22.1915C72.0179 22.1644 72.1824 22.1798 72.1105 22.1572C72.1066 22.1082 72.1877 22.2076 72.1961 22.1535C72.261 22.2016 72.0575 22.1946 72.0454 22.2414C72.1318 22.2439 72.1318 22.1837 72.2744 22.2267C72.275 22.2117 72.2413 22.21 72.2197 22.2035C72.2351 22.1537 72.3705 22.2069 72.3569 22.2538C72.4487 22.2593 72.5518 22.2655 72.5547 22.2657C72.6266 22.2739 72.6284 22.3057 72.6919 22.316C72.7367 22.3232 72.7521 22.2776 72.8449 22.2905C72.7831 22.2866 72.9484 22.378 72.9739 22.3396C72.9817 22.3671 72.949 22.3655 72.9147 22.3624C72.9188 22.3996 73.0193 22.3756 73.0285 22.3626C73.1088 22.3825 72.9831 22.3805 72.9959 22.4047C73.0484 22.4099 73.0906 22.4078 73.1111 22.3897C73.1865 22.4144 73.0507 22.4386 73.1612 22.4589C73.1544 22.3914 73.2565 22.5082 73.3046 22.4479C73.2815 22.3897 73.1793 22.4437 73.1967 22.3862C73.2594 22.4113 73.3649 22.4195 73.4181 22.4481C73.407 22.4327 73.3962 22.4173 73.3651 22.4097C73.4719 22.3928 73.7646 22.4692 73.8079 22.5337C73.804 22.5199 73.8203 22.5208 73.8375 22.5222C73.8184 22.5052 73.7888 22.492 73.7564 22.4799C73.7866 22.4633 73.8071 22.44 73.8465 22.4302C73.9133 22.4538 74.0006 22.514 73.9496 22.538C73.9726 22.5382 73.9792 22.5265 74.0074 22.5304C73.9954 22.4908 73.902 22.4826 73.9322 22.4267C74.0571 22.5019 74.0774 22.4692 74.0649 22.523C74.2066 22.5518 74.0782 22.4511 74.1801 22.5078C74.1737 22.5201 74.1895 22.5238 74.2068 22.5271C74.2045 22.5419 74.1713 22.5343 74.1491 22.5347C74.1505 22.5637 74.2431 22.5573 74.2581 22.5811C74.1756 22.5269 74.4676 22.5025 74.4309 22.5586C74.4639 22.5606 74.4573 22.5339 74.4633 22.5164C74.4921 22.5544 74.6796 22.531 74.6255 22.6013C74.7291 22.5306 74.8379 22.6462 74.9667 22.6021C75.0283 22.6766 75.2142 22.637 75.2117 22.714C75.2758 22.6894 75.445 22.7389 75.4582 22.8106C75.6315 22.7436 75.7288 22.8588 75.9868 22.8276L75.9944 22.8268L76.0106 22.8473C76.0229 22.8631 76.0373 22.8814 76.0531 22.9015C76.0591 22.9428 76.139 23.2314 76.2148 23.294C76.1291 23.2626 76.161 23.4096 76.1644 23.4684C76.1994 23.4499 76.2053 23.4066 76.1821 23.3384C76.2347 23.4322 76.2651 23.5417 76.3187 23.6185C76.331 23.7079 76.2649 23.6068 76.2848 23.5713C76.2478 23.608 76.2643 23.6013 76.2135 23.6011C76.2499 23.5972 76.2702 23.7118 76.3099 23.6836C76.3396 23.859 76.3559 23.8399 76.3413 23.9465C76.4462 23.9728 76.3772 24.1309 76.4768 24.1352C76.4768 24.1626 76.4772 24.1899 76.4965 24.1884C76.4873 24.2915 76.4947 24.4556 76.5947 24.454C76.5988 24.506 76.6023 24.5573 76.553 24.5635C76.5766 24.6208 76.6101 24.6056 76.644 24.5869C76.6713 24.7419 76.6719 24.8259 76.7728 25.0237C76.6582 24.9395 76.8274 25.1576 76.7356 25.1005C76.7545 25.1597 76.7785 25.1802 76.8077 25.1625C76.7794 25.2389 76.8617 25.2971 76.858 25.387C76.9098 25.369 76.9254 25.4983 76.9301 25.4488C76.9525 25.449 76.9667 25.5105 76.9837 25.5491C76.941 25.5485 76.9365 25.5811 76.9706 25.6464C76.9488 25.6421 76.9289 25.6246 76.9126 25.5786C76.8903 25.5953 76.9621 25.731 76.9903 25.6994C77.0244 25.7625 76.9925 25.9089 77.0591 25.8853C77.0611 25.9294 77.0689 25.9783 77.0316 25.9888C77.0264 25.9662 77.0361 25.9563 77.0262 25.9298C77.0166 25.9397 77.0219 25.9623 77.0075 25.9682C77.0283 26.0136 77.0546 26.0186 77.0841 25.9976C77.0784 26.0728 77.1593 26.1089 77.1049 26.1424C77.1232 26.1724 77.1433 26.1892 77.1671 26.1777C77.1866 26.2747 77.223 26.3667 77.2895 26.464C77.2988 26.4961 77.2719 26.4973 77.2567 26.5084C77.2729 26.5542 77.2928 26.5729 77.3148 26.5762C77.3316 26.6269 77.2745 26.6142 77.3016 26.6737C77.3248 26.6341 77.4762 26.9101 77.4097 26.966C77.4655 26.9682 77.4101 26.9719 77.4587 27.0989C77.4737 27.0876 77.4528 27.0455 77.4435 27.0132C77.5103 27.0485 77.4838 27.1549 77.498 27.205C77.5195 27.2773 77.5686 27.1469 77.5844 27.2609C77.5596 27.2455 77.5333 27.2418 77.5035 27.2642C77.4937 27.3215 77.5922 27.456 77.5493 27.5209C77.6346 27.556 77.6039 27.6339 77.6465 27.6951C77.6456 27.6304 77.6424 27.5735 77.6331 27.5215C77.6617 27.5523 77.6715 27.5796 77.6695 27.6242C77.7097 27.6164 77.6426 27.5164 77.6968 27.5207C77.7239 27.6554 77.8465 27.8532 77.8399 27.9516C77.8393 27.9551 77.8389 27.9575 77.8385 27.96C77.7662 27.8448 77.828 28.005 77.8385 27.96C77.842 27.9658 77.8455 27.9711 77.8498 27.9781C77.8964 28.0557 77.9217 28.1966 77.9108 28.3205C77.9211 28.3106 77.928 28.3252 77.9348 28.3412C77.9476 28.3157 77.9404 28.2734 77.9239 28.2231C77.9823 28.2512 77.9779 28.3765 77.9303 28.3736C77.9549 28.4223 77.9931 28.3716 78.0122 28.462C77.9806 28.4975 77.964 28.4211 77.9356 28.4326C77.9554 28.5188 77.9966 28.4445 78.0133 28.5536C78.027 28.547 78.0124 28.5164 78.0079 28.4944C78.0605 28.5425 78.0365 28.5911 78.0909 28.6743C78.0472 28.6914 78.0564 28.7536 78.035 28.7897C78.0702 28.8475 78.043 28.7018 78.1106 28.7275C78.0934 28.7688 78.0685 28.8216 78.14 28.8072C78.2215 28.9384 78.134 29.0185 78.1858 29.0641C78.1772 29.1808 78.0971 28.9961 78.0517 29.0592ZM74.9316 22.6758C74.9102 22.6695 74.8763 22.6678 74.8769 22.6526C74.8925 22.6549 74.91 22.6446 74.8784 22.6372C74.8728 22.6662 74.7751 22.6105 74.7397 22.6023C74.7307 22.6304 74.7681 22.6405 74.7617 22.6676C74.7461 22.6656 74.7287 22.6756 74.7603 22.683C74.7677 22.6719 74.7855 22.6684 74.8178 22.6756C74.8168 22.684 74.8387 22.6962 74.8459 22.6795C74.8157 22.6717 74.781 22.6448 74.8209 22.645C74.8063 22.668 74.9203 22.7109 74.9316 22.6758ZM76.8738 25.5649C76.8541 25.3998 76.7077 25.493 76.8071 25.562C76.8026 25.54 76.7882 25.5094 76.8017 25.5031C76.8315 25.4811 76.8459 25.5731 76.8738 25.5649ZM77.1829 26.3556C77.1784 26.3336 77.1833 26.3199 77.2016 26.3172C77.1862 26.2656 77.1638 26.2654 77.148 26.217C77.0899 26.194 77.1614 26.37 77.1829 26.3556ZM77.3947 26.9725C77.3819 26.9374 77.4107 26.9378 77.4035 26.9077C77.3511 26.8684 77.3902 26.9208 77.3706 26.952C77.3485 26.9171 77.3244 26.8964 77.2985 26.8902C77.3216 26.9832 77.3583 26.9773 77.3947 26.9725Z" fill="#DEC8ED"/>
<path d="M77.5367 27.3114C77.5897 27.3742 77.617 27.4397 77.6312 27.5157C77.6885 27.4543 77.5499 27.2397 77.5367 27.3114Z" fill="#DEC8ED"/>
<path d="M77.6296 27.5184L77.6325 27.5221L77.6315 27.5161C77.6307 27.5169 77.6296 27.5184 77.6296 27.5184Z" fill="#DEC8ED"/>
<path d="M78.671 30.3334C78.6616 30.3014 78.6406 30.2591 78.6558 30.2478C78.7031 30.2728 78.6591 30.3435 78.7138 30.3156C78.6955 30.2698 78.6862 30.2316 78.6887 30.2034C78.6657 30.2077 78.6396 30.2348 78.622 30.2005C78.6121 30.1738 78.6217 30.1642 78.6166 30.1416C78.5456 30.1685 78.6532 30.2798 78.6328 30.3188C78.5887 30.2659 78.5955 30.2024 78.5696 30.1921C78.5895 30.2755 78.5297 30.1794 78.5127 30.2157C78.5608 30.2882 78.6072 30.3755 78.671 30.3334Z" fill="#DEC8ED"/>
<path d="M59.7572 16.5846C59.7071 16.3137 59.5204 16.0822 59.3429 15.8608C59.6005 15.958 59.8759 16.065 60.1353 16.0136C60.1696 16.0069 60.171 15.9623 60.1511 15.9415C59.95 15.7327 59.6003 15.6676 59.3099 15.592C59.5302 15.4306 59.7506 15.2689 59.9712 15.1075C60.0788 15.0286 59.9685 14.8543 59.8576 14.9321C59.6381 15.0865 59.4183 15.2408 59.1987 15.3952C59.2772 15.1356 59.3557 14.8762 59.4341 14.6166C59.4733 14.487 59.2714 14.4439 59.2304 14.5704C59.1443 14.8358 59.0583 15.1013 58.9724 15.3669C58.8046 15.1379 58.6368 14.9089 58.469 14.6799C58.3902 14.5723 58.2158 14.6826 58.2936 14.7935C58.4407 15.0028 58.5877 15.212 58.7348 15.4213C58.4764 15.3433 58.2183 15.2652 57.9599 15.1872C57.8303 15.148 57.7872 15.3498 57.9137 15.3909C58.2084 15.4864 58.5031 15.5819 58.7978 15.6774C58.7944 15.6799 58.7909 15.6824 58.7874 15.6848C58.5138 15.8771 58.1811 16.0375 58.016 16.3361C57.9963 16.3716 58.0328 16.4026 58.0665 16.3962C58.3238 16.3486 58.5456 16.1775 58.7572 16.0083C58.6609 16.2636 58.5565 16.5359 58.6075 16.7924C58.6142 16.8267 58.6588 16.8282 58.6796 16.8082C58.911 16.5854 58.9661 16.1812 59.0544 15.8762C59.2429 16.1475 59.4031 16.4729 59.6974 16.6355C59.7325 16.6548 59.7635 16.6183 59.7572 16.5846Z" fill="#EEBCF7"/>
<path d="M64.1646 21.8185C64.1145 21.5476 63.9278 21.3161 63.7504 21.0947C64.0079 21.1919 64.2834 21.2989 64.5425 21.2475C64.5768 21.2407 64.5783 21.1962 64.5584 21.1754C64.3573 20.9666 64.0075 20.9015 63.7171 20.8259C63.9375 20.6644 64.1579 20.5028 64.3784 20.3414C64.4861 20.2625 64.3758 20.0882 64.2649 20.166C64.0451 20.3204 63.8256 20.4747 63.606 20.6291C63.6845 20.3695 63.7629 20.1101 63.8414 19.8505C63.8806 19.7209 63.6787 19.6778 63.6376 19.8043C63.5516 20.0699 63.4655 20.3352 63.3797 20.6008C63.2119 20.3718 63.0441 20.1428 62.8763 19.9138C62.7974 19.8062 62.6231 19.9165 62.7009 20.0274C62.848 20.2366 62.995 20.4459 63.1421 20.6552C62.8837 20.5772 62.6255 20.4991 62.3672 20.4209C62.2376 20.3816 62.1945 20.5837 62.3208 20.6246C62.6155 20.7201 62.9102 20.8156 63.2049 20.9111C63.2014 20.9136 63.1979 20.916 63.1944 20.9185C62.9209 21.1107 62.5882 21.2711 62.423 21.5698C62.4033 21.6053 62.4399 21.6363 62.4736 21.6299C62.7309 21.5823 62.9527 21.4112 63.1642 21.2422C63.0679 21.4975 62.9636 21.7698 63.0145 22.0263C63.0213 22.0606 63.0659 22.062 63.0866 22.0421C63.3181 21.8195 63.3731 21.4151 63.4614 21.1101C63.65 21.3814 63.8102 21.7067 64.1045 21.8694C64.14 21.8887 64.1708 21.8522 64.1646 21.8185Z" fill="#EEBCF7"/>
<path d="M76.7373 23.7908C76.6872 23.5199 76.5005 23.2885 76.323 23.0669C76.5808 23.164 76.856 23.271 77.1154 23.2197C77.1497 23.2129 77.1511 23.1683 77.1312 23.1476C76.9301 22.9387 76.5804 22.8736 76.29 22.798C76.5103 22.6366 76.7307 22.475 76.9513 22.3136C77.0589 22.2347 76.9486 22.0603 76.8377 22.1382C76.6182 22.2926 76.3984 22.4468 76.1788 22.6013C76.2573 22.3417 76.3358 22.0823 76.4142 21.8227C76.4534 21.6931 76.2516 21.65 76.2105 21.7765C76.1244 22.0418 76.0384 22.3074 75.9525 22.5729C75.7847 22.3439 75.6169 22.115 75.4491 21.886C75.3703 21.7783 75.1959 21.8886 75.2737 21.9995C75.4208 22.2088 75.5678 22.4181 75.7149 22.6274C75.4565 22.5493 75.1984 22.4713 74.94 22.3932C74.8104 22.354 74.7673 22.5559 74.8938 22.597C75.1885 22.6925 75.4832 22.788 75.778 22.8835C75.7745 22.8859 75.771 22.8884 75.7675 22.8909C75.4939 23.0831 75.1612 23.2435 74.9961 23.5421C74.9764 23.5777 75.0129 23.6087 75.0466 23.6023C75.3039 23.5547 75.5257 23.3836 75.7373 23.2143C75.641 23.4696 75.5366 23.742 75.5876 23.9985C75.5943 24.0328 75.6389 24.0342 75.6597 24.0143C75.8911 23.7915 75.9462 23.3873 76.0345 23.0823C76.223 23.3536 76.3832 23.6789 76.6775 23.8416C76.7126 23.8611 76.7434 23.8245 76.7373 23.7908Z" fill="#EEBCF7"/>
<path d="M79.3665 31.2897C79.3164 31.0188 79.1297 30.7873 78.9523 30.5659C79.2098 30.663 79.4852 30.7701 79.7444 30.7187C79.7787 30.7119 79.7801 30.6674 79.7602 30.6466C79.5592 30.4377 79.2094 30.3726 78.919 30.2971C79.1394 30.1356 79.3597 29.974 79.5803 29.8126C79.6879 29.7337 79.5776 29.5593 79.4667 29.6372C79.247 29.7916 79.0274 29.9459 78.8079 30.1003C78.8863 29.8407 78.9648 29.5813 79.0432 29.3217C79.0825 29.1921 78.8806 29.149 78.8395 29.2755C78.7535 29.5409 78.6676 29.8064 78.5816 30.072C78.4138 29.843 78.246 29.614 78.0782 29.385C77.9993 29.2774 77.8249 29.3876 77.9028 29.4986C78.0498 29.7078 78.1969 29.9171 78.3439 30.1264C78.0856 30.0484 77.8274 29.9703 77.569 29.8921C77.4394 29.8528 77.3963 30.0547 77.5228 30.0958C77.8175 30.1913 78.1123 30.2868 78.407 30.3823C78.4035 30.3848 78.4 30.3872 78.3965 30.3897C78.1229 30.5819 77.7902 30.7423 77.6251 31.0409C77.6054 31.0765 77.6419 31.1075 77.6756 31.1011C77.933 31.0535 78.1548 30.8824 78.3663 30.7132C78.27 30.9684 78.1657 31.2408 78.2166 31.4973C78.2234 31.5316 78.2679 31.533 78.2887 31.5131C78.5201 31.2903 78.5752 30.8861 78.6635 30.5811C78.852 30.8524 79.0122 31.1777 79.3065 31.3404C79.3419 31.3597 79.3727 31.3233 79.3665 31.2897Z" fill="#EEBCF7"/>
<path d="M5.13257 25.3662V28.7042" stroke="#CDC1EA" stroke-width="0.102689" stroke-miterlimit="10"/>
<path d="M5.13257 15.2998V18.6378" stroke="#CDC1EA" stroke-width="0.102689" stroke-miterlimit="10"/>
<path d="M7.07324 22.002H8.92987" stroke="#CDC1EA" stroke-width="0.102689" stroke-miterlimit="10"/>
<path d="M1.16565 22.002H3.02207" stroke="#CDC1EA" stroke-width="0.102689" stroke-miterlimit="10"/>
<path d="M46.7497 8.46191L46.9799 9.34833C47.1165 9.8741 47.5065 10.2972 48.0193 10.4763L47.9733 10.4941C47.4866 10.6823 47.1196 11.0922 46.9861 11.5966L46.7495 12.4908L46.5129 11.5966C46.3794 11.0922 46.0124 10.6823 45.5256 10.4941L45.4796 10.4763C45.9927 10.2972 46.3825 9.8741 46.519 9.34833L46.7497 8.46191Z" fill="#E9E7F2"/>
<path d="M50.5106 5.12793L50.6287 5.58243C50.6987 5.85209 50.8988 6.06897 51.1616 6.16078L51.138 6.16982C50.8885 6.26634 50.7002 6.47645 50.6318 6.73522L50.5104 7.19363L50.389 6.73522C50.3206 6.47665 50.1323 6.26634 49.8828 6.16982L49.8591 6.16078C50.1222 6.06897 50.3221 5.85209 50.3921 5.58243L50.5106 5.12793Z" fill="#E9E7F2"/>
<path d="M46.8032 12.9146H46.7289V15.3337H46.8032V12.9146Z" fill="#E9E7F2"/>
<path d="M46.8032 5.61914H46.7289V8.0383H46.8032V5.61914Z" fill="#E9E7F2"/>
<path d="M49.518 10.4395H48.1726V10.5138H49.518V10.4395Z" fill="#E9E7F2"/>
<path d="M45.2364 10.4395H43.891V10.5138H45.2364V10.4395Z" fill="#E9E7F2"/>
<path d="M5.13254 84.2749L5.59505 86.3922L7.75153 86.1777L5.88094 87.2718L6.75133 89.2566L5.13254 87.8154L3.51395 89.2566L4.38434 87.2718L2.51355 86.1777L4.67023 86.3922L5.13254 84.2749Z" fill="#CDC1EA"/>
<path d="M69.184 46.1938L69.4245 47.2943L70.5453 47.1827L69.573 47.7514L70.0253 48.7828L69.184 48.0338L68.3428 48.7828L68.7953 47.7514L67.823 47.1827L68.9437 47.2943L69.184 46.1938Z" fill="#CDC1EA"/>
<path d="M66.0438 47.8461C66.0438 48.1158 65.8252 48.3343 65.5556 48.3343C65.2859 48.3343 65.0674 48.1158 65.0674 47.8461C65.0674 47.5764 65.2859 47.3579 65.5556 47.3579C65.825 47.3579 66.0438 47.5764 66.0438 47.8461Z" fill="#EEBCF7"/>
<path d="M66.4301 45.2519C66.4301 45.3587 66.3436 45.4451 66.2368 45.4451C66.13 45.4451 66.0436 45.3587 66.0436 45.2519C66.0436 45.1451 66.13 45.0586 66.2368 45.0586C66.3436 45.0586 66.4301 45.1451 66.4301 45.2519Z" fill="#EEBCF7"/>
<defs>
<linearGradient id="paint0_linear_175_13886" x1="30.4396" y1="28.128" x2="31.4868" y2="28.6882" gradientUnits="userSpaceOnUse">
<stop stop-color="#8690ED"/>
<stop offset="0.9216" stop-color="#8690ED"/>
</linearGradient>
<linearGradient id="paint1_linear_175_13886" x1="25.272" y1="24.6981" x2="43.0609" y2="24.6981" gradientUnits="userSpaceOnUse">
<stop stop-color="#8690ED"/>
<stop offset="0.9216" stop-color="#8690ED"/>
</linearGradient>
<linearGradient id="paint2_linear_175_13886" x1="28.6922" y1="30.1545" x2="29.0384" y2="30.1545" gradientUnits="userSpaceOnUse">
<stop stop-color="#8690ED"/>
<stop offset="0.9216" stop-color="#8690ED"/>
</linearGradient>
<linearGradient id="paint3_linear_175_13886" x1="25.1751" y1="30.8265" x2="25.427" y2="30.8265" gradientUnits="userSpaceOnUse">
<stop stop-color="#8690ED"/>
<stop offset="0.9216" stop-color="#8690ED"/>
</linearGradient>
</defs>
</svg>
