<svg width="18" height="17" viewBox="0 0 18 17" fill="none" xmlns="http://www.w3.org/2000/svg">
<path d="M15.9455 7.11269H15.375V7.08329H8.99996V9.91663H13.0031C12.4191 11.566 10.8498 12.75 8.99996 12.75C6.6529 12.75 4.74996 10.847 4.74996 8.49996C4.74996 6.1529 6.6529 4.24996 8.99996 4.24996C10.0834 4.24996 11.069 4.65867 11.8195 5.32627L13.823 3.32275C12.5579 2.14373 10.8657 1.41663 8.99996 1.41663C5.08819 1.41663 1.91663 4.58819 1.91663 8.49996C1.91663 12.4117 5.08819 15.5833 8.99996 15.5833C12.9117 15.5833 16.0833 12.4117 16.0833 8.49996C16.0833 8.02502 16.0344 7.56142 15.9455 7.11269Z" fill="#FFC107"/>
<path d="M2.7334 5.20302L5.06063 6.90975C5.69034 5.35071 7.21538 4.24996 9.00002 4.24996C10.0834 4.24996 11.0691 4.65867 11.8195 5.32627L13.8231 3.32275C12.558 2.14373 10.8658 1.41663 9.00002 1.41663C6.27931 1.41663 3.91986 2.95265 2.7334 5.20302Z" fill="#FF3D00"/>
<path d="M9.00003 15.5833C10.8297 15.5833 12.4921 14.8831 13.7491 13.7445L11.5568 11.8894C10.8218 12.4486 9.92355 12.751 9.00003 12.75C7.15765 12.75 5.5933 11.5752 5.00397 9.93579L2.69409 11.7155C3.86638 14.0094 6.24709 15.5833 9.00003 15.5833Z" fill="#4CAF50"/>
<path d="M15.9456 7.11277H15.375V7.08337H9V9.91671H13.0031C12.7238 10.7017 12.2206 11.3876 11.5557 11.8898L11.5567 11.8891L13.749 13.7442C13.5939 13.8851 16.0833 12.0417 16.0833 8.50004C16.0833 8.0251 16.0345 7.5615 15.9456 7.11277Z" fill="#1976D2"/>
</svg>
