<svg width="47" height="47" viewBox="0 0 47 47" fill="none" xmlns="http://www.w3.org/2000/svg">
<rect width="47" height="47" rx="23.5" fill="url(#paint0_linear_126_21158)"/>
<path d="M16 29.3333V17.6667C16 16.7462 16.7462 16 17.6667 16H26.9763C27.4183 16 27.8422 16.1756 28.1548 16.4882L30.5118 18.8452C30.8244 19.1577 31 19.5817 31 20.0237V29.3333C31 30.2538 30.2538 31 29.3333 31H17.6667C16.7462 31 16 30.2538 16 29.3333Z" stroke="white" stroke-width="1.25"/>
<path d="M20.6667 21H26.3334C26.6096 21 26.8334 20.7761 26.8334 20.5V16.5C26.8334 16.2239 26.6096 16 26.3334 16H20.6667C20.3906 16 20.1667 16.2239 20.1667 16.5V20.5C20.1667 20.7761 20.3906 21 20.6667 21Z" stroke="white" stroke-width="1.25"/>
<path d="M18.5 24.8335V31.0002H28.5V24.8335C28.5 24.5573 28.2762 24.3335 28 24.3335H19C18.7239 24.3335 18.5 24.5573 18.5 24.8335Z" stroke="white" stroke-width="1.25"/>
<defs>
<linearGradient id="paint0_linear_126_21158" x1="0" y1="23.5" x2="47" y2="23.5" gradientUnits="userSpaceOnUse">
<stop stop-color="#657DE9"/>
<stop offset="1" stop-color="#764CA5"/>
</linearGradient>
</defs>
</svg>
