<svg width="23" height="22" viewBox="0 0 23 22" fill="none" xmlns="http://www.w3.org/2000/svg">
<path d="M0.5 11C0.5 4.92487 5.42487 0 11.5 0C17.5751 0 22.5 4.92487 22.5 11C22.5 17.0751 17.5751 22 11.5 22C5.42487 22 0.5 17.0751 0.5 11Z" fill="url(#paint0_linear_170_6824)"/>
<path d="M12.6816 7.82537L13.4215 7.08538C13.8121 6.69485 14.4452 6.69485 14.8358 7.08538L15.5429 7.79249C15.9334 8.18301 15.9334 8.81618 15.5429 9.2067L14.8029 9.9467M12.6816 7.82537L7.87371 12.6332C7.70768 12.7993 7.60536 13.0184 7.5847 13.2523L7.46366 14.6226C7.43627 14.9326 7.69571 15.192 8.00572 15.1646L9.37593 15.0436C9.60984 15.0229 9.82901 14.9206 9.99504 14.7546L14.8029 9.9467M12.6816 7.82537L14.8029 9.9467" stroke="white" stroke-width="0.750003" stroke-linecap="round" stroke-linejoin="round"/>
<defs>
<linearGradient id="paint0_linear_170_6824" x1="0.5" y1="11" x2="22.5" y2="11" gradientUnits="userSpaceOnUse">
<stop stop-color="#657DE9"/>
<stop offset="1" stop-color="#764CA5"/>
</linearGradient>
</defs>
</svg>
