<svg width="19" height="18" viewBox="0 0 19 18" fill="none" xmlns="http://www.w3.org/2000/svg">
<path d="M10.2367 2.07306C9.97325 1.86812 9.84148 1.76565 9.69598 1.72626C9.56765 1.69151 9.43235 1.69151 9.30402 1.72626C9.15852 1.76565 9.02675 1.86812 8.76328 2.07306L3.67654 6.0294C3.33652 6.29387 3.16651 6.42611 3.04402 6.59171C2.93553 6.73839 2.8547 6.90365 2.80552 7.07935C2.75 7.2777 2.75 7.49309 2.75 7.92389V13.3501C2.75 14.1901 2.75 14.6101 2.91349 14.9311C3.0573 15.2133 3.28677 15.4428 3.56902 15.5866C3.88988 15.7501 4.30992 15.7501 5.15 15.7501H6.65C6.86002 15.7501 6.96503 15.7501 7.04525 15.7092C7.11581 15.6733 7.17318 15.6159 7.20913 15.5453C7.25 15.4651 7.25 15.3601 7.25 15.1501V10.2001C7.25 9.77999 7.25 9.56999 7.33174 9.40956C7.40365 9.26841 7.51839 9.15374 7.65951 9.08181C7.81994 9.00006 8.02993 9.00006 8.45 9.00006H10.55C10.9701 9.00006 11.1801 9.00006 11.3405 9.08181C11.4817 9.15374 11.5963 9.26841 11.6682 9.40956C11.75 9.56999 11.75 9.77999 11.75 10.2001V15.1501C11.75 15.3601 11.75 15.4651 11.7909 15.5453C11.8268 15.6159 11.8842 15.6733 11.9547 15.7092C12.035 15.7501 12.14 15.7501 12.35 15.7501H13.85C14.6901 15.7501 15.1102 15.7501 15.431 15.5866C15.7132 15.4428 15.9427 15.2133 16.0865 14.9311C16.25 14.6101 16.25 14.1901 16.25 13.3501V7.92389C16.25 7.49309 16.25 7.2777 16.1945 7.07935C16.1453 6.90365 16.0644 6.73839 15.956 6.59171C15.8335 6.42611 15.6635 6.29387 15.3235 6.02941L10.2367 2.07306Z" stroke="white" stroke-linecap="round" stroke-linejoin="round"/>
</svg>
