<svg width="26" height="26" viewBox="0 0 26 26" fill="none" xmlns="http://www.w3.org/2000/svg">
<rect width="25.7425" height="25.75" rx="12.8712" fill="url(#paint0_linear_1366_519)"/>
<g clip-path="url(#clip0_1366_519)">
<path d="M13.3398 4.875C13.7048 4.92631 14.0728 4.96261 14.4345 5.03145C15.5225 5.23795 16.5171 5.671 17.4274 6.2997C17.5784 6.40399 17.6163 6.53499 17.535 6.65556C17.4553 6.77404 17.3139 6.78948 17.1645 6.68643C16.1933 6.01726 15.1282 5.58088 13.9584 5.42444C11.7486 5.12948 9.76403 5.67266 8.04605 7.09903C6.69019 8.2246 5.84497 9.66766 5.48702 11.3969C4.75819 14.9188 6.74151 18.5654 10.099 19.8671C10.2104 19.91 10.3231 19.9501 10.4349 19.9926C10.6051 20.0569 10.6731 20.1737 10.623 20.313C10.5746 20.447 10.4457 20.4916 10.2709 20.4307C8.67475 19.8758 7.37647 18.915 6.38773 17.5467C5.30471 16.0469 4.81034 14.3631 4.88168 12.5179C5.02102 8.90504 7.64305 5.80491 11.1875 5.05815C11.5325 4.98555 11.8859 4.95343 12.2355 4.9017C12.2809 4.89503 12.326 4.88418 12.3715 4.875C12.6944 4.875 13.0168 4.875 13.3398 4.875Z" fill="white"/>
<path d="M20.8675 13.3696C20.8274 13.6625 20.8036 13.9587 20.7448 14.2482C20.1136 17.3571 18.293 19.4426 15.3026 20.4822C14.0102 20.9315 12.6727 20.9762 11.3281 20.7134C11.1332 20.6754 11.0414 20.5719 11.0711 20.4292C11.1024 20.2799 11.2242 20.2198 11.4136 20.254C13.5233 20.6374 15.4774 20.2511 17.2246 19.0008C19.0164 17.7184 20.0794 15.9678 20.3347 13.7718C20.6155 11.3533 19.8704 9.26988 18.1695 7.52812C18.137 7.49475 18.1015 7.46346 18.0706 7.42841C17.9676 7.31327 17.9647 7.1731 18.0623 7.08048C18.1545 6.99287 18.2972 6.98995 18.3977 7.09675C18.6647 7.38085 18.9426 7.65829 19.1812 7.96492C20.1587 9.22065 20.7123 10.6454 20.8404 12.2336C20.8441 12.2795 20.8579 12.3245 20.8671 12.37V13.3696H20.8675Z" fill="white"/>
<path d="M14.7978 13.7116C15.0769 13.8726 15.3531 14.0283 15.6255 14.1901C15.7861 14.2852 15.8178 14.4521 15.7018 14.5681C15.6005 14.6699 15.4895 14.654 15.3748 14.5865C15.1057 14.4292 14.8353 14.2744 14.59 14.133C14.4394 14.2852 14.298 14.4279 14.1365 14.591C14.2475 14.7838 14.3819 15.0166 14.5158 15.2489C14.5471 15.3032 14.5809 15.3557 14.608 15.4117C14.6714 15.5418 14.6359 15.6724 14.5229 15.7362C14.4077 15.8009 14.2801 15.7679 14.2025 15.639C14.0627 15.4075 13.9309 15.1714 13.7949 14.9377C13.7665 14.8889 13.7356 14.8418 13.7102 14.8017C13.5233 14.8472 13.3456 14.8847 13.1733 14.9381C13.1403 14.9486 13.1098 15.0232 13.1086 15.0687C13.1023 15.3182 13.1057 15.5685 13.1053 15.818C13.1053 15.8597 13.1069 15.9014 13.1032 15.9427C13.0894 16.0887 12.9926 16.1826 12.8637 16.1784C12.7398 16.1743 12.6443 16.0837 12.6405 15.9436C12.6334 15.6628 12.6343 15.3816 12.6384 15.1004C12.6401 14.9932 12.6259 14.9331 12.4945 14.9177C12.3422 14.8998 12.1945 14.8401 12.031 14.795C11.8904 15.0379 11.7477 15.2848 11.6046 15.5314C11.5813 15.5719 11.5596 15.6136 11.5329 15.652C11.4511 15.7675 11.3314 15.7988 11.2204 15.7366C11.1069 15.6732 11.0656 15.5397 11.1349 15.4133C11.2542 15.1943 11.3827 14.9799 11.507 14.7638C11.5458 14.6966 11.5842 14.6294 11.6076 14.5885C11.4553 14.4367 11.313 14.2948 11.1524 14.1346C10.925 14.2652 10.6614 14.4196 10.3948 14.5681C10.333 14.6023 10.2479 14.6528 10.1962 14.634C10.1144 14.604 10.0243 14.5351 9.98719 14.4588C9.93629 14.3537 10.0039 14.2581 10.1028 14.1997C10.3268 14.0679 10.5525 13.939 10.7773 13.8084C10.8312 13.7771 10.8846 13.7458 10.9396 13.7137C10.8946 13.5289 10.8558 13.3478 10.8028 13.1709C10.7936 13.1405 10.726 13.1109 10.6851 13.1096C10.4407 13.1038 10.1958 13.1067 9.95131 13.1067C9.90459 13.1067 9.85745 13.1084 9.81072 13.1046C9.65386 13.0917 9.55624 12.9949 9.56208 12.861C9.5675 12.7308 9.66179 12.6428 9.81489 12.6403C10.0802 12.6357 10.346 12.6386 10.6113 12.6386C10.6676 12.6386 10.7244 12.6386 10.7803 12.6386C10.8358 12.4317 10.8879 12.2381 10.9442 12.0299C10.7035 11.8906 10.4565 11.7479 10.21 11.6048C10.1649 11.5785 10.1174 11.556 10.0765 11.5243C9.97342 11.4438 9.9413 11.3411 10.0047 11.2214C10.0627 11.1109 10.1954 11.065 10.313 11.128C10.5237 11.2406 10.7285 11.3645 10.9363 11.4838C11.0172 11.5301 11.0982 11.576 11.1545 11.6081C11.3051 11.4563 11.4469 11.3136 11.6071 11.1522C11.477 10.9256 11.3234 10.662 11.1741 10.3958C11.1416 10.3382 11.0902 10.2606 11.1065 10.2122C11.1349 10.1288 11.1941 10.0341 11.2675 9.99279C11.3781 9.93105 11.4795 9.99822 11.5412 10.1021C11.6793 10.3345 11.8124 10.5698 11.9484 10.8038C11.9768 10.8526 12.0081 10.8998 12.0331 10.9402C12.215 10.8948 12.3877 10.8589 12.5546 10.8051C12.5925 10.793 12.6322 10.7187 12.6334 10.672C12.6409 10.3912 12.6376 10.11 12.6376 9.82884C12.6376 9.70785 12.6826 9.61482 12.8024 9.57352C12.9534 9.52137 13.0986 9.63151 13.1032 9.81299C13.1103 10.0887 13.109 10.3645 13.1044 10.6407C13.1028 10.7479 13.1169 10.808 13.2484 10.8234C13.4006 10.8414 13.5483 10.9006 13.7123 10.9461C13.8579 10.6941 14.0055 10.4379 14.1541 10.1826C14.1799 10.138 14.2041 10.0896 14.2392 10.0529C14.3251 9.96276 14.4294 9.94398 14.535 10.0145C14.6313 10.0787 14.6822 10.1793 14.6242 10.2844C14.4161 10.662 14.2041 11.0383 13.9784 11.4058C13.8958 11.5401 13.7623 11.5122 13.6317 11.4446C13.192 11.2168 12.7377 11.1889 12.2746 11.3699C11.5462 11.6549 11.1249 12.4384 11.2859 13.2031C11.4461 13.9623 12.1432 14.5147 12.9104 14.4909C13.6993 14.4659 14.3568 13.8793 14.4699 13.1096C14.5216 12.7562 14.4586 12.4275 14.3005 12.1121C14.2025 11.9164 14.2279 11.8213 14.4131 11.7129C14.7319 11.5264 15.0514 11.3416 15.3718 11.1584C15.5275 11.0696 15.6664 11.095 15.7373 11.2197C15.8091 11.3457 15.7611 11.4717 15.6017 11.5652C15.3335 11.7225 15.0635 11.8772 14.8024 12.0287C14.8487 12.2193 14.8858 12.397 14.9392 12.5693C14.9496 12.6027 15.0222 12.6357 15.0669 12.6365C15.3531 12.6428 15.6397 12.6369 15.9259 12.6415C16.0794 12.6436 16.1741 12.7308 16.1804 12.8605C16.187 12.9945 16.0898 13.0921 15.933 13.1059C15.8917 13.1096 15.8499 13.1084 15.8082 13.1084C15.5637 13.1084 15.3189 13.1113 15.0744 13.1071C14.9822 13.1054 14.9392 13.1263 14.9229 13.231C14.8987 13.3887 14.8441 13.5418 14.7974 13.7137L14.7978 13.7116Z" fill="white"/>
<path d="M12.8654 8.6229C15.2976 8.6229 17.2346 10.6592 17.1153 13.0897C17.0131 15.1703 15.376 16.8874 13.2988 17.0927C11.0189 17.3179 8.968 15.7059 8.66262 13.4456C8.64051 13.2808 8.63175 13.1139 8.62591 12.9479C8.61881 12.7501 8.70225 12.6433 8.85244 12.64C9.0043 12.6367 9.0869 12.7406 9.09316 12.9375C9.12778 14.0464 9.54622 14.9871 10.3885 15.7076C11.4941 16.6534 12.7686 16.9099 14.137 16.4197C15.497 15.9325 16.3335 14.9387 16.5879 13.5119C17.0168 11.1077 15.0694 8.94748 12.6347 9.09641C11.0227 9.19487 9.63383 10.3321 9.21915 11.8924C9.20997 11.9275 9.20246 11.9633 9.18953 11.9971C9.13988 12.1285 9.03433 12.189 8.90751 12.154C8.77609 12.1177 8.71602 12.0209 8.74355 11.8928C8.77943 11.726 8.82699 11.5599 8.88581 11.3993C9.497 9.73596 11.0948 8.62207 12.8654 8.62207V8.6229Z" fill="white"/>
<path d="M7.05897 10.326C7.34015 10.4887 7.61883 10.6497 7.8971 10.8107C7.94216 10.8366 7.98888 10.8604 8.03102 10.8904C8.14783 10.9722 8.18037 11.0911 8.11863 11.2021C8.0548 11.3168 7.9238 11.3585 7.79489 11.2897C7.60215 11.187 7.41525 11.0736 7.22584 10.9647C7.04562 10.8608 6.86581 10.7561 6.68517 10.653C6.58421 10.595 6.52121 10.507 6.55584 10.3952C6.62092 10.1833 6.68141 9.96426 6.78696 9.77194C6.92463 9.52162 7.17411 9.42942 7.44445 9.52955C7.69101 9.6205 7.91838 9.76192 8.15659 9.87707C8.22835 9.91169 8.30386 10.0172 8.38688 9.91545C8.46489 9.81991 8.40065 9.72813 8.33515 9.65012C8.11988 9.39563 7.90294 9.14323 7.68684 8.88958C7.65638 8.85412 7.62301 8.81991 7.59923 8.77986C7.53415 8.67181 7.54583 8.56626 7.63969 8.48366C7.73898 8.39647 7.86372 8.38937 7.94925 8.487C8.23711 8.81532 8.53832 9.13656 8.78654 9.49367C9.04145 9.86038 8.82493 10.3547 8.4069 10.4127C8.28342 10.4298 8.13949 10.3869 8.02059 10.3351C7.84495 10.2588 7.686 10.1462 7.51579 10.0565C7.23168 9.90669 7.17161 9.93381 7.0744 10.2438C7.06689 10.2676 7.06439 10.293 7.05813 10.326H7.05897Z" fill="white"/>
<path d="M7.90625 15.197C8.08188 15.2066 8.22206 15.2099 8.36098 15.2233C8.52827 15.2391 8.62923 15.3439 8.61755 15.4778C8.60545 15.6154 8.49657 15.6955 8.32427 15.6876C8.14738 15.6797 7.97049 15.6713 7.79444 15.6534C7.706 15.6446 7.66511 15.6768 7.63049 15.7548C7.45235 16.1536 7.47696 16.3555 7.75981 16.6309C7.94171 16.5262 8.12902 16.4181 8.31634 16.3101C8.44692 16.235 8.57625 16.157 8.70892 16.0848C8.84867 16.0084 8.98092 16.0364 9.05143 16.1503C9.12569 16.2708 9.08564 16.4048 8.93879 16.4907C8.58001 16.701 8.21914 16.9079 7.85827 17.1148C7.74021 17.1824 7.63424 17.1645 7.52994 17.0739C7.09774 16.6985 6.91751 16.2558 7.1503 15.698C7.15823 15.6797 7.15906 15.658 7.16574 15.6242C7.01221 15.6125 6.86411 15.6008 6.71559 15.5896C6.5458 15.5762 6.45318 15.484 6.46278 15.3376C6.47195 15.2003 6.57291 15.1165 6.73478 15.1223C6.91167 15.1286 7.08897 15.1353 7.26419 15.1565C7.3735 15.1699 7.42356 15.1273 7.46486 15.0347C7.53453 14.8783 7.61296 14.7252 7.69223 14.5733C7.76482 14.434 7.8929 14.3827 8.01388 14.4377C8.13904 14.4949 8.17992 14.6346 8.11025 14.7836C8.04934 14.9137 7.98343 15.0418 7.90666 15.1974L7.90625 15.197Z" fill="white"/>
<path d="M17.4173 9.47523C17.3443 9.26413 17.1337 9.08224 17.3952 8.91203C17.5304 8.824 17.6197 8.88783 17.8479 9.22617C17.9326 9.08641 18.0168 8.9671 18.0803 8.83735C18.1654 8.6638 18.263 8.5983 18.4015 8.65003C18.5429 8.70302 18.6022 8.84569 18.5137 9.01257C18.3982 9.22993 18.2526 9.43101 18.0961 9.67548C18.1378 9.74807 18.2067 9.86697 18.2559 9.95166C18.5208 9.93456 18.7569 9.91036 18.9926 9.90911C19.0732 9.90869 19.1779 9.94499 19.2279 10.0021C19.2747 10.056 19.2884 10.1653 19.2722 10.2408C19.2492 10.3484 19.1512 10.3847 19.0406 10.3826C18.8725 10.3793 18.7044 10.3818 18.5183 10.3818C18.5976 10.587 18.8137 10.7764 18.5559 10.9295C18.2868 11.0893 18.23 10.7956 18.0865 10.6279C18.0035 10.7714 17.9217 10.8958 17.8571 11.0288C17.7774 11.1924 17.6627 11.2595 17.5275 11.202C17.3998 11.1473 17.3535 11.0192 17.4207 10.8574C17.4703 10.7385 17.5308 10.6212 17.6047 10.5157C17.6781 10.4102 17.774 10.3205 17.8662 10.217C17.802 10.1052 17.7348 9.98921 17.6923 9.91537C17.3986 9.92329 17.137 9.94332 16.8763 9.93289C16.7081 9.92621 16.6264 9.80523 16.6493 9.66046C16.6714 9.52237 16.7886 9.45938 16.958 9.47273C17.1032 9.48441 17.2501 9.47523 17.4178 9.47523H17.4173Z" fill="white"/>
<path d="M14.8625 17.9437C14.6501 17.988 14.5383 17.9104 14.5266 17.7652C14.5149 17.6204 14.6063 17.5311 14.7945 17.5107C15.2767 17.4581 15.6593 17.2379 15.9388 16.8394C16.0331 16.7047 16.1562 16.6722 16.2726 16.7447C16.391 16.819 16.424 16.9663 16.3239 17.0977C16.2454 17.2003 16.2575 17.275 16.3218 17.3718C16.3965 17.484 16.4641 17.6016 16.5245 17.7222C16.6017 17.8766 16.6789 17.9984 16.8925 17.9675C17.021 17.9492 17.0965 18.0589 17.1044 18.189C17.1128 18.3217 17.0085 18.4177 16.8508 18.4277C16.4465 18.4535 16.1153 18.6321 15.8353 18.915C15.7774 18.9734 15.7327 19.0451 15.6822 19.1115C15.5921 19.2299 15.4678 19.2616 15.3564 19.1932C15.2446 19.1248 15.2008 18.983 15.2897 18.8686C15.3894 18.7402 15.3635 18.6434 15.2838 18.5241C15.1891 18.3818 15.1161 18.2245 15.0222 18.0818C14.9851 18.0255 14.9167 17.9901 14.8625 17.945V17.9437ZM15.4282 17.8403C15.5321 18.0197 15.6318 18.1916 15.7315 18.3634C15.8929 18.2696 16.0398 18.1845 16.1987 18.0918C16.0978 17.917 15.9981 17.7443 15.8958 17.5683C15.8086 17.6229 15.7398 17.6688 15.6685 17.7101C15.593 17.7539 15.5154 17.7931 15.4278 17.8403H15.4282Z" fill="white"/>
<path d="M18.5625 15.4579C18.7845 15.4079 18.9935 15.4187 19.1917 15.5214C19.3306 15.5931 19.3848 15.7183 19.3314 15.8413C19.2784 15.964 19.1512 16.0049 19.0002 15.9481C18.7586 15.8572 18.5642 15.9114 18.4587 16.0988C18.351 16.2894 18.4011 16.4738 18.6055 16.6419C18.7236 16.7391 18.7511 16.861 18.6793 16.9694C18.6047 17.0825 18.4678 17.1054 18.336 17.0232C18.142 16.9018 18.0252 16.7216 17.9551 16.498C17.676 16.5597 17.4153 16.5268 17.1846 16.3528C17.0023 16.2151 16.8946 16.0303 16.8516 15.8063C16.772 15.3904 17.0356 14.9623 17.452 14.8347C17.9201 14.6912 18.3201 14.9123 18.5621 15.4575L18.5625 15.4579ZM18.1036 15.662C18.1036 15.4408 17.9292 15.2673 17.7069 15.2673C17.4858 15.2673 17.3089 15.4425 17.3089 15.6611C17.3089 15.8797 17.487 16.057 17.706 16.0566C17.9272 16.0566 18.1032 15.8814 18.1036 15.662Z" fill="white"/>
<path d="M12.4028 6.96325C12.4916 6.7897 12.57 6.64494 12.6401 6.49684C12.6956 6.37919 12.7841 6.32412 12.9117 6.32579C12.9584 6.32662 13.006 6.32037 13.0519 6.32662C13.2964 6.35833 13.492 6.3116 13.6159 6.06338C13.6789 5.93655 13.8358 5.92362 13.9409 5.99704C14.0465 6.07089 14.0865 6.22274 13.9885 6.32579C13.8058 6.51686 13.8216 6.70168 13.9126 6.92863C13.9847 7.10843 14.0173 7.30994 14.0348 7.50476C14.0565 7.74673 13.9434 7.93864 13.7336 8.06421C13.5237 8.18979 13.3085 8.18603 13.097 8.06546C12.9497 7.98119 12.9042 7.85061 12.9735 7.72754C13.0394 7.60989 13.1608 7.58236 13.3122 7.65036C13.4783 7.72504 13.5938 7.65537 13.563 7.47848C13.5267 7.26989 13.462 7.06588 13.3969 6.86396C13.3861 6.83017 13.3085 6.79596 13.2642 6.7993C13.165 6.80681 13.0419 6.73797 12.9739 6.87523C12.8658 7.09425 12.7544 7.3116 12.6456 7.52979C12.5947 7.632 12.5333 7.71878 12.4036 7.7192C12.2734 7.71961 12.2121 7.63326 12.1608 7.53146C12.0256 7.26238 11.8884 6.99371 11.754 6.7242C11.6714 6.55816 11.6981 6.42425 11.8233 6.35708C11.9543 6.28657 12.0853 6.34498 12.1729 6.51394C12.2459 6.65453 12.3172 6.79638 12.4032 6.96409L12.4028 6.96325Z" fill="white"/>
<path d="M9.91128 19.1448C9.48575 19.1469 9.1253 18.8945 8.99764 18.5328C8.87373 18.1807 8.98011 17.8348 9.30719 17.5812C9.44611 17.4736 9.60465 17.3918 9.75233 17.2954C9.80865 17.2587 9.86622 17.2203 9.91211 17.1723C9.98637 17.0943 9.97469 17.0238 9.87206 16.9775C9.85329 16.9692 9.83243 16.9658 9.81282 16.9596C9.64344 16.9053 9.57044 16.8006 9.60798 16.6663C9.64762 16.5232 9.77402 16.4619 9.94465 16.5086C10.1808 16.5737 10.3581 16.7068 10.4157 16.9562C10.4716 17.1999 10.3744 17.3993 10.1933 17.5511C10.0711 17.6538 9.92588 17.7285 9.79113 17.8165C9.72605 17.859 9.65805 17.8987 9.59714 17.9466C9.4386 18.0714 9.38854 18.2099 9.43735 18.3676C9.48908 18.534 9.66597 18.6663 9.84954 18.6763C10.0189 18.6855 10.1437 18.6041 10.2187 18.4227C10.2663 18.3079 10.303 18.1886 10.3397 18.0697C10.4036 17.864 10.5442 17.8061 10.7352 17.9108C10.7899 17.9408 10.8462 17.97 10.8925 18.0105C11.0172 18.1194 10.9972 18.3342 10.8445 18.3847C10.7311 18.4222 10.6952 18.4932 10.6589 18.5866C10.52 18.9441 10.2542 19.126 9.9117 19.1452L9.91128 19.1448Z" fill="white"/>
<path d="M9.5838 8.14226C9.44028 8.0801 9.36519 7.97998 9.41024 7.83104C9.45155 7.69379 9.56419 7.65916 9.70812 7.6771C9.75234 7.51314 9.79656 7.35044 9.84662 7.16604C9.78321 7.19483 9.74358 7.21569 9.70144 7.23071C9.58129 7.27368 9.48242 7.23697 9.41942 7.13142C9.35559 7.0242 9.36853 6.90655 9.47199 6.83939C9.68976 6.69879 9.91463 6.56613 10.1466 6.45015C10.2609 6.39299 10.3694 6.45015 10.4357 6.56488C10.5425 6.74927 10.651 6.93284 10.7548 7.11848C10.8395 7.26951 10.8132 7.398 10.6898 7.47059C10.5729 7.53943 10.4599 7.50355 10.3585 7.36629C10.3464 7.35002 10.3339 7.33375 10.3014 7.29078C10.2525 7.46892 10.21 7.62495 10.1654 7.78932C10.3043 7.85566 10.386 7.95703 10.3368 8.11264C10.293 8.25032 10.1729 8.27243 10.0377 8.27117C9.98221 8.47685 9.92798 8.68211 9.87124 8.88694C9.82201 9.06425 9.71145 9.14185 9.57003 9.1018C9.42693 9.06091 9.37353 8.94243 9.41984 8.76304C9.47282 8.55778 9.52831 8.35294 9.5838 8.1431V8.14226Z" fill="white"/>
<path d="M18.58 13.1054C18.4399 13.1054 18.2993 13.1104 18.1591 13.1041C18.0022 13.0971 17.9017 12.9982 17.9038 12.8668C17.9063 12.7337 18.0068 12.6419 18.1666 12.6398C18.4369 12.6361 18.7073 12.6419 18.9772 12.6361C19.1407 12.6327 19.2421 12.5426 19.2409 12.4091C19.2396 12.2685 19.1595 12.1955 19.0231 12.1692C18.8404 12.1338 18.7528 12.0291 18.7799 11.8914C18.8074 11.7512 18.9234 11.687 19.1082 11.7095C19.5825 11.7675 19.8625 12.3006 19.628 12.7224C19.5634 12.8388 19.5709 12.9106 19.6318 13.024C19.8671 13.46 19.56 14.0019 19.0698 14.0357C18.9092 14.047 18.7999 13.9744 18.7782 13.8422C18.7573 13.7124 18.8425 13.6094 18.9993 13.5747C19.1695 13.5376 19.2505 13.4542 19.2421 13.324C19.2334 13.1851 19.1345 13.1096 18.9543 13.1067C18.8295 13.1046 18.7048 13.1067 18.58 13.1067C18.58 13.1062 18.58 13.1058 18.58 13.1054Z" fill="white"/>
<path d="M6.46825 12.1986C6.46825 12.1131 6.46408 12.0246 6.46909 11.937C6.47743 11.7927 6.57505 11.7005 6.70855 11.7042C6.83496 11.7075 6.92841 11.7972 6.93425 11.9353C6.94051 12.0859 6.93801 12.237 6.93509 12.3876C6.93258 12.5261 6.8625 12.6133 6.72274 12.6325C6.57756 12.6521 6.46909 12.7146 6.47117 12.8748C6.47326 13.0355 6.5859 13.0918 6.72941 13.1118C6.86166 13.1302 6.93091 13.2149 6.93467 13.3463C6.93884 13.4969 6.93968 13.6479 6.93467 13.7985C6.92966 13.9449 6.83413 14.0388 6.70188 14.0392C6.56963 14.0392 6.47743 13.9453 6.46867 13.7989C6.46575 13.7472 6.47827 13.6921 6.46492 13.6437C6.45073 13.592 6.42695 13.5248 6.38607 13.5015C6.13367 13.3559 5.99516 13.1431 6.00267 12.8527C6.01018 12.5695 6.15286 12.3625 6.40818 12.2357C6.42653 12.2265 6.44364 12.2144 6.46825 12.1998V12.1986Z" fill="white"/>
<path d="M13.071 17.6445C13.1991 17.6833 13.4402 17.7422 13.6693 17.8314C13.8291 17.8936 13.8725 18.0354 13.8078 18.1593C13.7423 18.2853 13.6125 18.3187 13.4586 18.2424C13.1624 18.0951 12.8591 18.0851 12.5516 18.1969C12.4899 18.2194 12.4269 18.2557 12.3814 18.302C12.2951 18.3896 12.3314 18.4918 12.4507 18.5219C12.6472 18.5715 12.7223 18.6662 12.6851 18.8177C12.6505 18.9574 12.5137 19.0187 12.3305 18.9766C12.089 18.9211 11.9313 18.773 11.8816 18.5319C11.8287 18.2741 11.9188 18.0588 12.1274 17.8999C12.3697 17.7155 12.6555 17.6671 13.0715 17.6449L13.071 17.6445Z" fill="white"/>
<path d="M12.7269 19.8893C12.5346 19.8296 12.2939 19.7691 12.0648 19.679C11.913 19.6193 11.8725 19.4833 11.9317 19.3615C11.9947 19.2322 12.1261 19.1934 12.2772 19.2693C12.5567 19.4099 12.8445 19.4279 13.1399 19.3357C13.2033 19.3161 13.2738 19.2914 13.3193 19.2468C13.3619 19.2055 13.3931 19.1346 13.3936 19.0766C13.3936 19.0482 13.3097 19.0228 13.268 18.9902C13.1954 18.9335 13.0928 18.8851 13.0632 18.8096C13.0035 18.6556 13.1349 18.5159 13.3122 18.5259C13.5296 18.538 13.7031 18.6335 13.8053 18.8304C13.9121 19.0365 13.8984 19.243 13.777 19.4391C13.6606 19.6273 13.4778 19.727 13.273 19.7825C13.1136 19.8259 12.948 19.8467 12.7265 19.8889L12.7269 19.8893Z" fill="white"/>
<path d="M16.4703 7.96629C16.3018 8.0055 16.177 7.91623 16.1165 7.73308C16.0514 7.53658 15.9476 7.43145 15.7202 7.49111C15.5041 7.54743 15.3652 7.44731 15.2876 7.23955C15.2404 7.11356 15.167 6.99799 15.1123 6.87451C15.0514 6.73725 15.0927 6.61627 15.2129 6.55536C15.3301 6.4957 15.4791 6.53033 15.5224 6.66883C15.6167 6.96796 15.794 7.07184 16.0973 7.00217C16.2267 6.97255 16.3243 7.05682 16.3585 7.17613C16.434 7.44063 16.5871 7.52866 16.8608 7.47484C17.0485 7.43813 17.167 7.54409 17.1724 7.6922C17.1778 7.83779 17.069 7.92624 16.8741 7.9375C16.7494 7.94459 16.6251 7.95544 16.4699 7.96671L16.4703 7.96629Z" fill="white"/>
<path d="M16.1758 8.76722C16.1136 8.77097 16.0506 8.77139 15.9888 8.77848C15.8332 8.79684 15.7177 8.73843 15.671 8.5895C15.5942 8.34711 15.4553 8.23948 15.1929 8.30581C15.0289 8.34711 14.9163 8.26618 14.8491 8.11015C14.7899 7.97206 14.7152 7.84023 14.6518 7.70381C14.5833 7.55612 14.6184 7.43347 14.7415 7.36881C14.8633 7.30456 15.0097 7.34294 15.0606 7.49146C15.1557 7.76805 15.3126 7.89029 15.6105 7.81478C15.7348 7.78307 15.8433 7.84732 15.8812 7.97164C15.963 8.23989 16.1144 8.34961 16.4052 8.28662C16.58 8.24866 16.6968 8.35754 16.7039 8.50105C16.711 8.6429 16.6034 8.73843 16.4244 8.74886C16.3414 8.75387 16.2584 8.75846 16.1753 8.76347C16.1753 8.76472 16.1753 8.76639 16.1753 8.76764L16.1758 8.76722Z" fill="white"/>
<path d="M7.40481 12.8393C7.40481 12.5327 7.40356 12.2256 7.40523 11.919C7.40606 11.7392 7.49868 11.6336 7.64553 11.6378C7.78528 11.6416 7.87248 11.7446 7.87289 11.9165C7.87415 12.5302 7.87415 13.1434 7.87289 13.7571C7.87289 13.9382 7.78111 14.0412 7.63259 14.0375C7.49117 14.0337 7.40648 13.9332 7.40564 13.7601C7.40397 13.4534 7.40523 13.1464 7.40523 12.8397L7.40481 12.8393Z" fill="white"/>
</g>
<defs>
<linearGradient id="paint0_linear_1366_519" x1="0" y1="12.875" x2="25.7425" y2="12.875" gradientUnits="userSpaceOnUse">
<stop stop-color="#657DE9"/>
<stop offset="1" stop-color="#764CA5"/>
</linearGradient>
<clipPath id="clip0_1366_519">
<rect width="15.9925" height="16" fill="white" transform="translate(4.875 4.875)"/>
</clipPath>
</defs>
</svg>
