<svg width="19" height="18" viewBox="0 0 19 18" fill="none" xmlns="http://www.w3.org/2000/svg">
<path d="M11 8.25H6.5M8 11.25H6.5M12.5 5.25H6.5M15.5 5.1V12.9C15.5 14.1602 15.5 14.7901 15.2548 15.2715C15.0391 15.6949 14.6949 16.0391 14.2715 16.2548C13.7901 16.5 13.1601 16.5 11.9 16.5H7.1C5.83988 16.5 5.20982 16.5 4.72852 16.2548C4.30516 16.0391 3.96095 15.6949 3.74524 15.2715C3.5 14.7901 3.5 14.1602 3.5 12.9V5.1C3.5 3.83988 3.5 3.20982 3.74524 2.72852C3.96095 2.30516 4.30516 1.96095 4.72852 1.74524C5.20982 1.5 5.83988 1.5 7.1 1.5H11.9C13.1601 1.5 13.7901 1.5 14.2715 1.74524C14.6949 1.96095 15.0391 2.30516 15.2548 2.72852C15.5 3.20982 15.5 3.83988 15.5 5.1Z" stroke="white" stroke-opacity="0.8" stroke-linecap="round" stroke-linejoin="round"/>
</svg>
