<svg width="118" height="100" viewBox="0 0 118 100" fill="none" xmlns="http://www.w3.org/2000/svg">
<path d="M110.38 73.6997C110.84 70.8469 108.901 68.161 106.048 67.7006C103.195 67.2403 100.509 69.1798 100.049 72.0327C99.5884 74.8855 101.528 77.5714 104.381 78.0318C107.234 78.4921 109.92 76.5526 110.38 73.6997Z" fill="#9F79D1"/>
<g opacity="0.9">
<path d="M110.38 73.6997C110.84 70.8469 108.901 68.161 106.048 67.7006C103.195 67.2403 100.509 69.1798 100.049 72.0327C99.5884 74.8855 101.528 77.5714 104.381 78.0318C107.234 78.4921 109.92 76.5526 110.38 73.6997Z" fill="white"/>
</g>
<path d="M115.222 79.5618C116.583 79.5618 117.686 78.4587 117.686 77.098C117.686 75.7373 116.583 74.6343 115.222 74.6343C113.862 74.6343 112.759 75.7373 112.759 77.098C112.759 78.4587 113.862 79.5618 115.222 79.5618Z" fill="#9F79D1"/>
<g opacity="0.9">
<path d="M115.222 79.5618C116.583 79.5618 117.686 78.4587 117.686 77.098C117.686 75.7373 116.583 74.6343 115.222 74.6343C113.862 74.6343 112.759 75.7373 112.759 77.098C112.759 78.4587 113.862 79.5618 115.222 79.5618Z" fill="white"/>
</g>
<path d="M49.8184 37.9495C49.8184 37.9495 49.7407 37.9061 49.5933 37.8151C49.4429 37.7211 49.2252 37.5851 48.941 37.4076C48.3668 37.0513 47.5108 36.5392 46.3784 35.9358C45.2393 35.3471 43.8239 34.659 42.1061 34.0507C40.3917 33.4473 38.3631 32.9213 36.0748 32.7944C35.5042 32.7375 34.9177 32.7809 34.3194 32.7839C34.0201 32.7878 33.7201 32.8394 33.4157 32.865C33.1122 32.9015 32.802 32.9144 32.4979 32.988C32.1917 33.0485 31.8827 33.1097 31.5705 33.1718C31.2582 33.2336 30.9556 33.3469 30.6433 33.4334C30.0121 33.5914 29.4147 33.882 28.7893 34.1261C27.5695 34.6858 26.3891 35.4514 25.336 36.4202C24.2771 37.3844 23.3494 38.5473 22.5666 39.84C21.0041 42.4355 20.0573 45.5398 19.6432 48.8038C19.5431 49.6215 19.472 50.4501 19.4325 51.2872C19.399 52.1245 19.3951 52.9697 19.4228 53.8202C19.4816 55.5211 19.7068 57.2383 19.9386 58.9732C20.8826 65.9103 22.5075 72.4332 24.8097 78.0483C25.9732 80.8472 27.2732 83.4322 28.7423 85.6937C30.2002 87.9612 31.7839 89.9267 33.4046 91.5481C35.0232 93.1724 36.6761 94.4468 38.2173 95.4149C38.5907 95.6765 38.9862 95.8718 39.3491 96.0895C39.5326 96.195 39.7126 96.2984 39.8889 96.3996C40.071 96.4904 40.2491 96.5793 40.4239 96.6661C40.7742 96.8376 41.1066 97.0076 41.4285 97.1592C41.7568 97.2966 42.069 97.4275 42.3647 97.5513C42.9501 97.8151 43.4981 97.9763 43.9622 98.1448C44.4255 98.3175 44.8294 98.4251 45.1552 98.5153C45.4774 98.6069 45.724 98.6768 45.8949 98.7253C46.0613 98.7736 46.1457 98.8022 46.1457 98.8022C46.1457 98.8022 46.0589 98.7841 45.891 98.741C45.7192 98.6958 45.4711 98.6307 45.1468 98.5457C44.8195 98.4604 44.4134 98.3576 43.9478 98.1891C43.4812 98.0249 42.9308 97.8678 42.3421 97.6077C42.0446 97.4856 41.7309 97.3566 41.4008 97.221C41.0771 97.0712 40.7428 96.9027 40.3905 96.7327C40.2147 96.6465 40.0354 96.5582 39.8524 96.4684C39.6749 96.3677 39.4941 96.2649 39.3093 96.1603C38.9443 95.9439 38.5464 95.7495 38.1705 95.4891C36.6198 94.5248 34.9557 93.252 33.3265 91.6267C31.6952 90.0048 30.1008 88.036 28.6332 85.7642C27.1544 83.4982 25.8463 80.9081 24.6762 78.1034C22.3607 72.4772 20.7286 65.9423 19.7833 58.9946C19.5515 57.2585 19.3261 55.5371 19.267 53.826C19.2396 52.9712 19.2438 52.1221 19.2779 51.2805C19.3182 50.4393 19.39 49.6068 19.491 48.7848C19.9096 45.5042 20.8645 42.3812 22.443 39.7659C23.2339 38.4635 24.1722 37.291 25.2432 36.3189C26.3084 35.342 27.5026 34.5707 28.7353 34.0082C29.3671 33.7629 29.9702 33.4717 30.6071 33.3135C30.9224 33.227 31.2277 33.1139 31.5427 33.0522C31.8577 32.9907 32.1697 32.9295 32.4783 32.8692C32.7852 32.796 33.0977 32.7836 33.4037 32.7477C33.7105 32.7224 34.0128 32.6718 34.3142 32.6685C34.9171 32.6669 35.5075 32.6254 36.0814 32.6844C38.3836 32.8195 40.4188 33.3557 42.1363 33.9691C43.8567 34.5873 45.2713 35.285 46.4079 35.883C47.5379 36.4958 48.3894 37.0167 48.9588 37.382C49.2394 37.5652 49.4543 37.7057 49.6029 37.8031C49.7464 37.8971 49.8184 37.9495 49.8184 37.9495Z" fill="#9F79D1"/>
<path d="M102.411 60.897C102.411 60.897 102.873 61.303 103.691 62.1398C104.508 62.9768 105.687 64.2391 107.106 65.9493C108.518 67.6629 110.2 69.8108 111.837 72.5151C112.644 73.8702 113.472 75.3517 114.117 77.0272C114.291 77.4405 114.414 77.8799 114.568 78.3143C114.73 78.7444 114.827 79.2161 114.849 79.692C114.895 80.6493 114.65 81.6256 114.228 82.529C113.799 83.429 113.229 84.3001 112.458 85.0156C111.682 85.7237 110.72 86.2493 109.677 86.5685C107.573 87.1982 105.239 87.0791 102.957 86.6014C101.811 86.3563 100.666 86.0169 99.534 85.591C98.9662 85.3804 98.4134 85.1266 97.8461 84.8924C97.2806 84.6545 96.7098 84.4173 96.1506 84.1427C93.8807 83.117 91.6291 81.8806 89.3878 80.5098C88.2605 79.8334 87.1624 79.0811 86.0475 78.3275C85.5023 77.933 84.954 77.536 84.4027 77.1373C83.8505 76.7394 83.3212 76.305 82.7747 75.887C80.6154 74.1819 78.5034 72.324 76.4619 70.3208C72.3859 66.3065 68.6185 61.6979 65.2622 56.6471C61.896 51.5972 59.1164 46.3441 56.7693 41.1311C54.4143 35.9176 52.5257 30.7251 50.9269 25.721C50.1357 23.2171 49.4289 20.7449 49.022 18.283C48.6133 15.8264 48.4927 13.3787 48.8261 11.0553C49.1613 8.73716 49.9293 6.55673 51.0852 4.71026C51.6627 3.78793 52.3385 2.9518 53.0953 2.23233C53.47 1.86822 53.8745 1.5448 54.2856 1.24278C54.4984 1.10112 54.7025 0.95071 54.9186 0.818389L55.2529 0.635129L55.6013 0.488943C56.5417 0.133273 57.5258 0.0250649 58.4714 0.00185597C59.4202 -0.014119 60.3431 0.0741957 61.2275 0.221889C62.9983 0.518783 64.6166 1.04566 66.0703 1.66416C68.9736 2.9289 71.1941 4.58095 72.7871 6.1257C73.1949 6.50398 73.5442 6.89702 73.8827 7.2548C74.2004 7.63157 74.513 7.97097 74.7677 8.31548C74.8988 8.48458 75.0248 8.64704 75.1459 8.80317C75.2596 8.96443 75.3687 9.11905 75.4727 9.26645C75.5761 9.41444 75.6746 9.5555 75.7681 9.68963C75.8552 9.82798 75.9381 9.9588 76.0161 10.0827C76.3341 10.5743 76.5478 10.9658 76.6904 11.2296C76.8348 11.4924 76.9053 11.6286 76.9053 11.6286C76.9053 11.6286 76.8254 11.4972 76.6765 11.2374C76.5297 10.9764 76.3115 10.5875 75.9896 10.0996C75.9106 9.97658 75.8271 9.84637 75.7388 9.70922C75.6442 9.576 75.545 9.43584 75.4407 9.28875C75.3358 9.14226 75.2261 8.98854 75.1116 8.82849C74.9898 8.67356 74.8629 8.512 74.7312 8.34412C74.4756 8.00171 74.1615 7.66473 73.8429 7.29037C73.5035 6.935 73.1533 6.54467 72.7449 6.16911C71.1501 4.63521 68.9314 2.99641 66.036 1.74403C64.5865 1.13186 62.9736 0.611015 61.2118 0.319547C60.332 0.174567 59.4148 0.0886638 58.4738 0.106447C57.5367 0.131163 56.5625 0.24118 55.642 0.591424C55.1733 0.749667 54.7697 1.04746 54.3525 1.33381C53.9462 1.63341 53.5462 1.95442 53.1758 2.31552C52.4277 3.02897 51.7595 3.85846 51.1883 4.77356C50.0453 6.60525 49.2854 8.77092 48.9554 11.0728C48.6275 13.379 48.7492 15.8135 49.1588 18.2592C49.5664 20.7103 50.2735 23.1755 51.0656 25.6761C52.6667 30.6744 54.5566 35.8606 56.9103 41.0666C59.2565 46.2724 62.0332 51.5173 65.394 56.5588C68.7448 61.6011 72.504 66.2016 76.5707 70.2095C78.6074 72.2097 80.7143 74.0649 82.8682 75.7676C83.4131 76.1848 83.9412 76.6188 84.4919 77.0161C85.0417 77.4146 85.5888 77.8109 86.1325 78.2049C87.2447 78.9575 88.3398 79.7092 89.4644 80.3847C91.6996 81.7543 93.9452 82.9898 96.2091 84.0155C96.7667 84.2901 97.3361 84.5271 97.9001 84.7652C98.4652 84.9991 99.0183 85.2538 99.5819 85.4635C100.708 85.8885 101.846 86.227 102.984 86.4721C105.252 86.9501 107.567 87.0689 109.642 86.4507C110.671 86.1375 111.617 85.6221 112.379 84.9279C113.137 84.228 113.703 83.3678 114.127 82.4798C114.545 81.5895 114.787 80.6307 114.743 79.6948C114.722 79.227 114.631 78.7736 114.47 78.3423C114.318 77.9101 114.196 77.4727 114.024 77.061C113.386 75.3918 112.564 73.9118 111.762 72.5579C110.136 69.8551 108.463 67.7036 107.059 65.9858C105.648 64.2711 104.478 63.003 103.669 62.1593C103.264 61.7377 102.949 61.4215 102.734 61.2129C102.519 61.007 102.411 60.897 102.411 60.897Z" fill="#9F79D1"/>
<path d="M107.665 29.9502C107.839 28.6897 106.06 27.6528 104.723 27.5452C104.085 27.4936 103.423 27.5913 102.819 27.3806C101.511 26.9246 100.988 25.2342 99.7119 24.6956C98.7573 24.2929 97.6587 24.6513 96.7333 25.117C95.808 25.5827 94.8935 26.1689 93.8599 26.2349C92.9608 26.2925 91.9842 25.9591 91.1975 26.3983C90.6113 26.7256 90.3041 27.4011 89.7637 27.7996C89.235 28.1896 88.5454 28.2722 87.8895 28.3078C87.2336 28.3433 86.5545 28.35 85.9574 28.6237C85.36 28.897 84.866 29.5285 84.9899 30.1738L107.665 29.9502Z" fill="#9F79D1"/>
<g opacity="0.6">
<path d="M107.665 29.9502C107.839 28.6897 106.06 27.6528 104.723 27.5452C104.085 27.4936 103.423 27.5913 102.819 27.3806C101.511 26.9246 100.988 25.2342 99.7119 24.6956C98.7573 24.2929 97.6587 24.6513 96.7333 25.117C95.808 25.5827 94.8935 26.1689 93.8599 26.2349C92.9608 26.2925 91.9842 25.9591 91.1975 26.3983C90.6113 26.7256 90.3041 27.4011 89.7637 27.7996C89.235 28.1896 88.5454 28.2722 87.8895 28.3078C87.2336 28.3433 86.5545 28.35 85.9574 28.6237C85.36 28.897 84.866 29.5285 84.9899 30.1738L107.665 29.9502Z" fill="white"/>
</g>
<path d="M37.9794 82.9964C38.131 81.8944 36.576 80.988 35.4075 80.894C34.8501 80.8491 34.2714 80.9344 33.7433 80.7502C32.5995 80.3515 32.1425 78.8739 31.0267 78.4031C30.1924 78.0511 29.2318 78.3645 28.4228 78.7717C27.6138 79.179 26.8144 79.6911 25.9108 79.7489C25.1247 79.7993 24.2711 79.5078 23.5833 79.8918C23.0708 80.1778 22.8023 80.7686 22.33 81.1168C21.8679 81.4577 21.2651 81.5297 20.6918 81.561C20.1185 81.5924 19.5247 81.5981 19.0026 81.8371C18.4806 82.0762 18.0487 82.6283 18.1569 83.1923L37.9794 82.9964Z" fill="#9F79D1"/>
<g opacity="0.6">
<path d="M37.9794 82.9964C38.131 81.8944 36.576 80.988 35.4075 80.894C34.8501 80.8491 34.2714 80.9344 33.7433 80.7502C32.5995 80.3515 32.1425 78.8739 31.0267 78.4031C30.1924 78.0511 29.2318 78.3645 28.4228 78.7717C27.6138 79.179 26.8144 79.6911 25.9108 79.7489C25.1247 79.7993 24.2711 79.5078 23.5833 79.8918C23.0708 80.1778 22.8023 80.7686 22.33 81.1168C21.8679 81.4577 21.2651 81.5297 20.6918 81.561C20.1185 81.5924 19.5247 81.5981 19.0026 81.8371C18.4806 82.0762 18.0487 82.6283 18.1569 83.1923L37.9794 82.9964Z" fill="white"/>
</g>
<path d="M56.2621 60.5956C56.3486 59.9669 55.4612 59.4494 54.7942 59.3957C54.4762 59.3701 54.1459 59.4186 53.8444 59.3137C53.1916 59.0861 52.9309 58.2428 52.294 57.9742C51.8177 57.7735 51.2695 57.9522 50.808 58.1846C50.3462 58.417 49.8902 58.7094 49.3745 58.7422C48.926 58.7709 48.4386 58.6045 48.0461 58.8236C47.7538 58.987 47.6003 59.324 47.3309 59.5229C47.0671 59.7173 46.7232 59.7586 46.3959 59.7764C46.0685 59.7942 45.7298 59.7975 45.432 59.934C45.1339 60.0706 44.8876 60.3855 44.9494 60.7075L56.2621 60.5956Z" fill="#9F79D1"/>
<g opacity="0.6">
<path d="M56.2621 60.5956C56.3486 59.9669 55.4612 59.4494 54.7942 59.3957C54.4762 59.3701 54.1459 59.4186 53.8444 59.3137C53.1916 59.0861 52.9309 58.2428 52.294 57.9742C51.8177 57.7735 51.2695 57.9522 50.808 58.1846C50.3462 58.417 49.8902 58.7094 49.3745 58.7422C48.926 58.7709 48.4386 58.6045 48.0461 58.8236C47.7538 58.987 47.6003 59.324 47.3309 59.5229C47.0671 59.7173 46.7232 59.7586 46.3959 59.7764C46.0685 59.7942 45.7298 59.7975 45.432 59.934C45.1339 60.0706 44.8876 60.3855 44.9494 60.7075L56.2621 60.5956Z" fill="white"/>
</g>
<path d="M29.2771 69.883C31.6063 64.7886 29.3646 58.7704 24.2701 56.4411C19.1755 54.1117 13.1573 56.3532 10.828 61.4476C8.49874 66.542 10.7404 72.5602 15.835 74.8895C20.9295 77.2189 26.9478 74.9774 29.2771 69.883Z" fill="#9F79D1"/>
<g opacity="0.7">
<path d="M29.2771 69.883C31.6063 64.7886 29.3646 58.7704 24.2701 56.4411C19.1755 54.1117 13.1573 56.3532 10.828 61.4476C8.49874 66.542 10.7404 72.5602 15.835 74.8895C20.9295 77.2189 26.9478 74.9774 29.2771 69.883Z" fill="white"/>
</g>
<path d="M9.95511 64.7281C9.93974 64.9092 -1.07065 69.9133 0.459637 72.3427C1.98992 74.7718 12.4352 73.5936 22.2064 70.1228C31.9777 66.652 41.5536 61.6328 40.3459 58.9879C39.1381 56.3433 27.5707 58.849 27.5707 58.849L28.4526 59.9732C28.4526 59.9732 35.5 58.3058 36.8151 60.3774C38.1305 62.4491 30.9791 66.2186 21.7835 68.9874C12.588 71.7562 4.19929 73.0197 3.61605 71.1702C3.03312 69.3207 9.92829 66.2605 9.92829 66.2605L9.95511 64.7281Z" fill="#9F79D1"/>
<g opacity="0.5">
<path d="M9.95511 64.7281C9.93974 64.9092 -1.07065 69.9133 0.459637 72.3427C1.98992 74.7718 12.4352 73.5936 22.2064 70.1228C31.9777 66.652 41.5536 61.6328 40.3459 58.9879C39.1381 56.3433 27.5707 58.849 27.5707 58.849L28.4526 59.9732C28.4526 59.9732 35.5 58.3058 36.8151 60.3774C38.1305 62.4491 30.9791 66.2186 21.7835 68.9874C12.588 71.7562 4.19929 73.0197 3.61605 71.1702C3.03312 69.3207 9.92829 66.2605 9.92829 66.2605L9.95511 64.7281Z" fill="white"/>
</g>
<path d="M17.1534 57.0703C17.1983 57.1896 16.3559 57.5125 15.2334 58.3588C14.1167 59.1886 12.7422 60.6418 11.9971 62.6251C11.2566 64.6111 11.3397 66.6095 11.6375 67.9688C11.9287 69.3445 12.3522 70.1405 12.2401 70.2011C12.168 70.2509 11.555 69.5362 11.1007 68.109C10.8744 67.4001 10.7107 66.5154 10.7044 65.5226C10.6965 64.5312 10.8632 63.4326 11.262 62.3499C11.6716 61.2717 12.2672 60.3337 12.9237 59.5913C13.5802 58.8462 14.284 58.2865 14.9203 57.9004C16.2001 57.1224 17.1317 56.9856 17.1534 57.0703Z" fill="white"/>
<path d="M95.3604 46.2442C95.4472 42.5899 98.4798 39.6978 102.134 39.7846C105.788 39.8714 108.681 42.904 108.594 46.5583C108.507 50.2127 105.474 53.1047 101.82 53.0182C98.1657 52.9314 95.2736 49.8986 95.3604 46.2442Z" fill="#9F79D1"/>
<g opacity="0.6">
<path d="M95.3604 46.2442C95.4472 42.5899 98.4798 39.6978 102.134 39.7846C105.788 39.8714 108.681 42.904 108.594 46.5583C108.507 50.2127 105.474 53.1047 101.82 53.0182C98.1657 52.9314 95.2736 49.8986 95.3604 46.2442Z" fill="white"/>
</g>
<path d="M104.134 43.8663C104.148 43.2704 104.643 42.7986 105.238 42.8128C105.834 42.827 106.306 43.3216 106.292 43.9175C106.278 44.5134 105.783 44.9851 105.187 44.9709C104.591 44.9568 104.12 44.4622 104.134 43.8663Z" fill="#9F79D1"/>
<path d="M106.293 46.3864C106.301 46.0398 106.589 45.7652 106.935 45.7736C107.282 45.7818 107.557 46.0696 107.548 46.4162C107.54 46.7629 107.252 47.0375 106.905 47.029C106.559 47.0209 106.284 46.733 106.293 46.3864Z" fill="#9F79D1"/>
<g opacity="0.8">
<path d="M104.134 43.8663C104.148 43.2704 104.643 42.7986 105.238 42.8128C105.834 42.827 106.306 43.3216 106.292 43.9175C106.278 44.5134 105.783 44.9851 105.187 44.9709C104.591 44.9568 104.12 44.4622 104.134 43.8663Z" fill="white"/>
</g>
<g opacity="0.8">
<path d="M106.293 46.3864C106.301 46.0398 106.589 45.7652 106.935 45.7736C107.282 45.7818 107.557 46.0696 107.548 46.4162C107.54 46.7629 107.252 47.0375 106.905 47.029C106.559 47.0209 106.284 46.733 106.293 46.3864Z" fill="white"/>
</g>
<path d="M56.0392 29.1632C56.085 27.2281 57.691 25.6969 59.6261 25.7427C61.5611 25.7885 63.0923 27.3945 63.0465 29.3295C63.0007 31.2646 61.3948 32.7958 59.4597 32.75C57.5246 32.7042 55.9931 31.0982 56.0392 29.1632Z" fill="#9F79D1"/>
<g opacity="0.6">
<path d="M56.0392 29.1632C56.085 27.2281 57.691 25.6969 59.6261 25.7427C61.5611 25.7885 63.0923 27.3945 63.0465 29.3295C63.0007 31.2646 61.3948 32.7958 59.4597 32.75C57.5246 32.7042 55.9931 31.0982 56.0392 29.1632Z" fill="white"/>
</g>
<path d="M60.6847 27.9043C60.6923 27.5887 60.9542 27.3388 61.2698 27.3464C61.5854 27.3539 61.8352 27.6158 61.8277 27.9314C61.8202 28.247 61.5582 28.4969 61.2427 28.4893C60.9271 28.4818 60.6772 28.2199 60.6847 27.9043Z" fill="#9F79D1"/>
<path d="M61.828 29.2383C61.8322 29.0547 61.9847 28.9094 62.1683 28.9137C62.3518 28.9179 62.4971 29.0704 62.4929 29.254C62.4887 29.4375 62.3362 29.5828 62.1526 29.5786C61.9687 29.5741 61.8235 29.4218 61.828 29.2383Z" fill="#9F79D1"/>
<g opacity="0.8">
<path d="M60.6847 27.9043C60.6923 27.5887 60.9542 27.3388 61.2698 27.3464C61.5854 27.3539 61.8352 27.6158 61.8277 27.9314C61.8202 28.247 61.5582 28.4969 61.2427 28.4893C60.9271 28.4818 60.6772 28.2199 60.6847 27.9043Z" fill="white"/>
</g>
<g opacity="0.8">
<path d="M61.828 29.2383C61.8322 29.0547 61.9847 28.9094 62.1683 28.9137C62.3518 28.9179 62.4971 29.0704 62.4929 29.254C62.4887 29.4375 62.3362 29.5828 62.1526 29.5786C61.9687 29.5741 61.8235 29.4218 61.828 29.2383Z" fill="white"/>
</g>
<path d="M64.733 15.9287L64.8243 16.0806C64.9271 16.2512 65.0766 16.389 65.255 16.4773L65.4142 16.556L65.2622 16.6473C65.0916 16.7501 64.9539 16.8996 64.8656 17.078L64.7869 17.2372L64.6956 17.0852C64.5928 16.9146 64.4436 16.7769 64.2649 16.6886L64.1057 16.6099L64.2576 16.5186C64.4282 16.4158 64.566 16.2663 64.6543 16.0879L64.733 15.9287Z" fill="white"/>
<path d="M91.6062 37.8608L91.7994 38.1818C92.0161 38.542 92.3317 38.8326 92.7085 39.0189L93.0443 39.185L92.7233 39.3782C92.3631 39.5949 92.0725 39.9105 91.8862 40.2872L91.7202 40.623L91.5269 40.302C91.3102 39.9418 90.9947 39.6512 90.6179 39.465L90.2821 39.2989L90.6031 39.1057C90.9633 38.889 91.2539 38.5734 91.4401 38.1966L91.6062 37.8608Z" fill="white"/>
<path d="M40.3717 70.7593L40.5649 71.0803C40.7816 71.4405 41.0972 71.731 41.474 71.9173L41.8098 72.0834L41.4888 72.2766C41.1286 72.4933 40.838 72.8089 40.6517 73.1857L40.4857 73.5214L40.2925 73.2004C40.0757 72.8403 39.7602 72.5497 39.3834 72.3634L39.0476 72.1973L39.3686 72.0041C39.7288 71.7874 40.0194 71.4718 40.2056 71.0951L40.3717 70.7593Z" fill="white"/>
<path d="M62.3271 19.3096L62.4184 19.4615C62.5212 19.6321 62.6707 19.7698 62.8491 19.8581L63.0083 19.9368L62.8564 20.0284C62.6858 20.1312 62.548 20.2807 62.4597 20.4592L62.381 20.6183L62.2897 20.4664C62.1869 20.2958 62.0374 20.1581 61.859 20.0697L61.6998 19.9911L61.8517 19.8994C62.0223 19.7967 62.1601 19.6472 62.2484 19.4687L62.3271 19.3096Z" fill="#9F79D1"/>
<g opacity="0.8">
<path d="M62.3271 19.3096L62.4184 19.4615C62.5212 19.6321 62.6707 19.7698 62.8491 19.8581L63.0083 19.9368L62.8564 20.0284C62.6858 20.1312 62.548 20.2807 62.4597 20.4592L62.381 20.6183L62.2897 20.4664C62.1869 20.2958 62.0374 20.1581 61.859 20.0697L61.6998 19.9911L61.8517 19.8994C62.0223 19.7967 62.1601 19.6472 62.2484 19.4687L62.3271 19.3096Z" fill="white"/>
</g>
<path d="M87.3168 67.3267L87.5745 67.755C87.8636 68.2357 88.2847 68.6233 88.7874 68.872L89.2353 69.0936L88.807 69.3513C88.3263 69.6403 87.9386 70.0614 87.69 70.5642L87.4684 71.0121L87.2107 70.5837C86.9214 70.103 86.5006 69.7154 85.9978 69.467L85.5499 69.2455L85.9782 68.9878C86.459 68.6987 86.8463 68.2776 87.095 67.7749L87.3168 67.3267Z" fill="#9F79D1"/>
<g opacity="0.8">
<path d="M87.3168 67.3267L87.5745 67.755C87.8636 68.2357 88.2847 68.6233 88.7874 68.872L89.2353 69.0936L88.807 69.3513C88.3263 69.6403 87.9386 70.0614 87.69 70.5642L87.4684 71.0121L87.2107 70.5837C86.9214 70.103 86.5006 69.7154 85.9978 69.467L85.5499 69.2455L85.9782 68.9878C86.459 68.6987 86.8463 68.2776 87.095 67.7749L87.3168 67.3267Z" fill="white"/>
</g>
<path d="M85.2335 64.6182L85.3797 64.8614C85.544 65.1345 85.783 65.3545 86.0684 65.4956L86.3228 65.6213L86.0796 65.7675C85.8065 65.9317 85.5865 66.1708 85.4451 66.4562L85.3194 66.7106L85.1732 66.4673C85.009 66.1943 84.7699 65.9742 84.4845 65.8332L84.2301 65.7075L84.4733 65.561C84.7464 65.3967 84.9665 65.1577 85.1075 64.8723L85.2335 64.6182Z" fill="#9F79D1"/>
<g opacity="0.8">
<path d="M85.2335 64.6182L85.3797 64.8614C85.544 65.1345 85.783 65.3545 86.0684 65.4956L86.3228 65.6213L86.0796 65.7675C85.8065 65.9317 85.5865 66.1708 85.4451 66.4562L85.3194 66.7106L85.1732 66.4673C85.009 66.1943 84.7699 65.9742 84.4845 65.8332L84.2301 65.7075L84.4733 65.561C84.7464 65.3967 84.9665 65.1577 85.1075 64.8723L85.2335 64.6182Z" fill="white"/>
</g>
<path d="M49.571 43.2451L49.6623 43.397C49.7651 43.5676 49.9146 43.7054 50.093 43.7937L50.2522 43.8724L50.1003 43.964C49.9297 44.0668 49.7919 44.216 49.7036 44.3947L49.6249 44.5539L49.5336 44.4019C49.4308 44.2313 49.2816 44.0936 49.1029 44.0053L48.9437 43.9266L49.0956 43.835C49.2662 43.7322 49.404 43.583 49.4923 43.4043L49.571 43.2451Z" fill="#9F79D1"/>
<g opacity="0.8">
<path d="M49.571 43.2451L49.6623 43.397C49.7651 43.5676 49.9146 43.7054 50.093 43.7937L50.2522 43.8724L50.1003 43.964C49.9297 44.0668 49.7919 44.216 49.7036 44.3947L49.6249 44.5539L49.5336 44.4019C49.4308 44.2313 49.2816 44.0936 49.1029 44.0053L48.9437 43.9266L49.0956 43.835C49.2662 43.7322 49.404 43.583 49.4923 43.4043L49.571 43.2451Z" fill="white"/>
</g>
<path d="M36.8163 40.1993C36.8371 38.4849 35.4641 37.0785 33.75 37.0574C32.0355 37.0366 30.6291 38.4095 30.608 40.1237C30.593 41.3649 31.3088 42.4442 32.3553 42.9536C32.3508 43.3214 32.3457 43.7367 32.3457 43.7367L35.0663 43.7699C35.0663 43.7699 35.088 43.3307 35.0988 42.9383C36.1052 42.4352 36.8018 41.4017 36.8163 40.1993Z" fill="#9F79D1"/>
<path d="M34.083 43.7454C34.083 43.7454 34.0836 43.7324 34.0866 43.7071C34.0899 43.6803 34.0948 43.6432 34.1008 43.5953C34.1141 43.497 34.1333 43.3524 34.1629 43.1664C34.1927 42.9807 34.2322 42.7534 34.2946 42.493C34.3582 42.2335 34.4441 41.939 34.5867 41.6325C34.6581 41.4794 34.7404 41.3229 34.8477 41.171C34.9029 41.0969 34.9713 41.0245 35.0623 40.9829C35.153 40.9407 35.2661 40.9422 35.3568 40.9962C35.4017 41.023 35.4397 41.0673 35.4535 41.1201C35.4695 41.1722 35.4635 41.231 35.4388 41.2792C35.3896 41.3769 35.2974 41.4441 35.1964 41.483C34.9906 41.5523 34.7546 41.5312 34.5517 41.4293C34.3483 41.3277 34.1867 41.1345 34.1198 40.9061C34.0875 40.7927 34.071 40.6686 34.1059 40.5477C34.1367 40.4277 34.2551 40.3213 34.3905 40.3355C34.4577 40.3412 34.5183 40.3879 34.5472 40.447C34.5776 40.5058 34.5846 40.5748 34.5698 40.6387C34.5381 40.7677 34.4438 40.8636 34.3477 40.9443C34.1502 41.1038 33.8826 41.1903 33.6215 41.1454C33.3623 41.1008 33.1311 40.9263 33.0269 40.6906C32.972 40.5748 32.9602 40.4347 33.0106 40.3144C33.0359 40.255 33.0838 40.1999 33.1483 40.1788C33.2119 40.1552 33.2834 40.1676 33.3391 40.1986C33.3958 40.2294 33.4416 40.2794 33.4684 40.3364C33.4965 40.3931 33.5091 40.4551 33.5136 40.5157C33.5209 40.6375 33.5022 40.7581 33.4621 40.8699C33.3837 41.0938 33.2207 41.2819 33.0181 41.385C32.8165 41.4896 32.5835 41.5149 32.3746 41.4655C32.2715 41.4414 32.1663 41.3989 32.097 41.3139C32.0292 41.231 32.0114 41.1011 32.0834 41.0146C32.119 40.973 32.1723 40.9513 32.2239 40.948C32.2754 40.9449 32.3267 40.9561 32.3716 40.9787C32.4632 41.0254 32.5184 41.1113 32.5591 41.1939C32.635 41.3633 32.6956 41.5276 32.7571 41.6846C32.9976 42.3134 33.1676 42.8309 33.2812 43.1896C33.3379 43.3689 33.3798 43.5088 33.4078 43.6037C33.4211 43.6501 33.4314 43.6863 33.4389 43.7119C33.4458 43.7364 33.4482 43.7493 33.4482 43.7493C33.4482 43.7493 33.4431 43.7373 33.4353 43.7131C33.4271 43.6875 33.4157 43.652 33.4006 43.6058C33.3696 43.51 33.3247 43.3716 33.2671 43.1938C33.1492 42.8366 32.9756 42.3206 32.7321 41.694C32.6703 41.5381 32.6079 41.3721 32.5328 41.2066C32.4933 41.1267 32.4397 41.0462 32.3583 41.0055C32.2793 40.9654 32.1681 40.9645 32.1078 41.0345C32.0485 41.1044 32.0623 41.2201 32.1229 41.2925C32.1847 41.3681 32.283 41.4091 32.3827 41.432C32.5838 41.4791 32.8086 41.454 33.0024 41.3531C33.1966 41.2536 33.353 41.0727 33.428 40.8569C33.4663 40.7496 33.4841 40.633 33.4769 40.5175C33.4699 40.4039 33.4238 40.2848 33.3213 40.2306C33.2722 40.2035 33.2128 40.1938 33.1607 40.2134C33.1079 40.2309 33.0678 40.2758 33.0449 40.3286C33.0003 40.4368 33.0094 40.5655 33.0615 40.6743C33.1601 40.897 33.3816 41.0646 33.6282 41.1068C33.8765 41.1496 34.134 41.0667 34.3238 40.9136C34.4167 40.8358 34.5059 40.743 34.533 40.6288C34.5463 40.573 34.5397 40.5127 34.5137 40.463C34.4887 40.4129 34.4408 40.3765 34.3862 40.3714C34.332 40.3653 34.275 40.3852 34.2313 40.4193C34.187 40.453 34.1575 40.5031 34.1412 40.5573C34.1089 40.6664 34.124 40.7861 34.1547 40.8946C34.2186 41.1134 34.3733 41.2991 34.5677 41.3968C34.7612 41.495 34.9909 41.5152 35.1847 41.4501C35.279 41.4146 35.3661 41.35 35.4092 41.2638C35.4551 41.1782 35.4219 41.0676 35.3402 41.0218C35.2606 40.9739 35.1563 40.9715 35.0747 41.0095C34.9906 41.0474 34.9249 41.1152 34.8712 41.1873C34.7657 41.335 34.6825 41.4914 34.6111 41.6424C34.4679 41.9456 34.3805 42.2383 34.3151 42.4966C34.2509 42.7555 34.2093 42.9819 34.1774 43.1673C34.1475 43.3517 34.1243 43.4955 34.1083 43.595C34.1008 43.6426 34.0948 43.6797 34.0905 43.7062C34.086 43.7327 34.083 43.7454 34.083 43.7454Z" fill="#263238"/>
<path d="M34.8511 44.2715L32.5151 44.2431C32.4184 44.2419 32.3409 44.1627 32.3418 44.0656C32.343 43.9689 32.4226 43.8914 32.5193 43.8926L34.8553 43.9209C34.9521 43.9221 35.0295 44.0017 35.0286 44.0985C35.0274 44.1949 34.9478 44.2727 34.8511 44.2715Z" fill="#263238"/>
<path d="M34.8492 44.4248L32.5132 44.3965C32.4165 44.3953 32.3369 44.4728 32.3357 44.5698C32.3345 44.6666 32.412 44.7461 32.509 44.7473L32.7655 44.7504L33.098 45.402C33.136 45.4765 33.2122 45.5238 33.296 45.525L34.1306 45.5352C34.215 45.5361 34.2931 45.49 34.3326 45.4153L34.6711 44.7739L34.8453 44.776C34.942 44.7772 35.0216 44.6997 35.0228 44.603C35.024 44.5062 34.946 44.4257 34.8492 44.4248Z" fill="#263238"/>
<g opacity="0.2">
<path d="M31.7422 38.1596C31.9532 37.9694 32.1736 37.8368 32.3689 37.7539C32.5642 37.6704 32.7315 37.6312 32.849 37.6207C32.9666 37.6098 33.0335 37.6222 33.0389 37.6469C33.0516 37.7035 32.8153 37.784 32.4958 37.992C32.1775 38.1955 31.7772 38.5532 31.5322 39.0626C31.2886 39.5729 31.2606 40.1091 31.3016 40.4847C31.3399 40.8642 31.4252 41.0987 31.373 41.1243C31.3504 41.1358 31.2992 41.0914 31.2338 40.9929C31.1684 40.8949 31.0942 40.7397 31.0366 40.5353C30.9788 40.3313 30.9441 40.0766 30.9601 39.7927C30.9754 39.5096 31.0463 39.198 31.1882 38.898" fill="white"/>
</g>
<g opacity="0.2">
<path d="M33.7834 37.7899C33.5866 37.7857 33.4136 37.7299 33.3949 37.6253C33.3868 37.5735 33.4238 37.5189 33.4956 37.4767C33.5667 37.4345 33.6725 37.4065 33.7901 37.4083C33.9076 37.4104 34.0125 37.442 34.0821 37.4867C34.1521 37.5313 34.1873 37.587 34.1777 37.6386" fill="white"/>
</g>
<path d="M34.2879 45.4689C34.2852 45.4746 34.2268 45.4472 34.1282 45.4177C34.0299 45.3878 33.8892 45.3607 33.7324 45.3628C33.5757 45.3658 33.4361 45.3978 33.3388 45.4309C33.2411 45.4638 33.1839 45.4933 33.1808 45.4876C33.1787 45.484 33.2321 45.4457 33.3294 45.4056C33.4265 45.3652 33.57 45.3278 33.7318 45.3248C33.8937 45.3224 34.0384 45.355 34.1366 45.392C34.2355 45.4291 34.2901 45.4656 34.2879 45.4689Z" fill="#455A64"/>
<path d="M34.6756 44.7807C34.6753 44.7913 34.253 44.7946 33.7321 44.7883C33.211 44.7819 32.789 44.7684 32.7893 44.7578C32.7893 44.7473 33.2116 44.7439 33.7327 44.7503C34.2533 44.7566 34.6756 44.7702 34.6756 44.7807Z" fill="#455A64"/>
<path d="M34.5261 45.0565C34.5264 45.0616 34.4384 45.0697 34.2958 45.077C34.1533 45.0842 33.9561 45.0899 33.7385 45.0905C33.5209 45.0908 33.3238 45.086 33.1812 45.0794C33.0386 45.0727 32.9506 45.0649 32.9509 45.0598C32.9512 45.0543 33.0392 45.0528 33.1818 45.0525C33.3358 45.0525 33.5269 45.0525 33.7385 45.0525C33.9501 45.0516 34.1412 45.051 34.2952 45.0504C34.4375 45.0498 34.5258 45.051 34.5261 45.0565Z" fill="#455A64"/>
<path d="M67.6618 78.3486C67.4472 78.5632 65.6219 88.5479 65.6219 88.5479L52.9721 89.5236L52.5839 93.3971L67.9874 94.6808C69.423 94.8005 70.7788 94.0047 71.3744 92.693L76.3926 81.6407L67.6618 78.3486Z" fill="#FFBE9D"/>
<path d="M56.186 89.2603L47.5071 89.6651L47.4833 98.3093C48.3092 98.2611 50.0046 93.1898 50.0046 93.1898L55.5362 93.6428L56.186 89.2603Z" fill="#9F79D1"/>
<g opacity="0.4">
<path d="M56.186 89.2603L47.5071 89.6651L47.4833 98.3093C48.3092 98.2611 50.0046 93.1898 50.0046 93.1898L55.5362 93.6428L56.186 89.2603Z" fill="white"/>
</g>
<path d="M67.0853 91.3172C67.0645 91.3494 66.4677 90.8819 66.0373 90.0714C65.6002 89.2642 65.5414 88.5083 65.5797 88.5089C65.6276 88.4989 65.753 89.219 66.1756 89.9973C66.5898 90.7794 67.1199 91.2828 67.0853 91.3172Z" fill="#EB996E"/>
<path d="M65.8949 37.4492C65.8949 37.8296 67.7965 44.5487 67.7965 44.5487L60.2304 53.1942L44.9764 54.9448L44.5887 51.4792L56.9992 48.6926L65.8949 37.4492Z" fill="#FFBE9D"/>
<path d="M44.5889 51.4794L41.2356 50.857L36.6592 49.2095C36.6592 49.2095 36.243 49.5121 36.6592 49.9874C36.8702 50.2286 39.1305 51.1774 39.1305 51.1774L37.483 51.4978C37.483 51.4978 36.7509 53.3096 36.8422 53.6394C36.9338 53.9691 37.1626 54.1463 37.1626 54.1463C37.1626 54.1463 37.0408 55.0126 37.4529 55.1498C37.8649 55.2869 38.7366 55.3487 39.0112 55.0283C39.2858 54.7079 38.856 54.1463 38.856 54.1463L40.1831 53.6394C40.1831 53.6394 41.2814 54.2895 41.8306 54.6096C42.3798 54.93 44.9765 54.9448 44.9765 54.9448L44.5889 51.4794Z" fill="#FFBE9D"/>
<path d="M42.4045 54.0962C42.4036 54.1028 42.3475 54.0986 42.2414 54.0838C42.1371 54.063 41.9837 54.0247 41.8004 53.9448C41.4315 53.7896 40.9405 53.4891 40.426 53.0261L40.5122 53.0295C40.1879 53.2902 39.8123 53.5509 39.3686 53.7649C39.1462 53.8689 38.905 53.962 38.638 53.9979C38.5048 54.0106 38.3664 54.0193 38.2229 53.9801C38.0816 53.9445 37.936 53.8339 37.8845 53.682C37.8441 53.5705 37.8392 53.462 37.8597 53.3483L37.8649 53.3194L37.8914 53.301C38.7438 52.713 39.5281 52.1722 40.1773 51.7243L40.2032 51.7065L40.2316 51.7159C40.8073 51.9025 41.2907 52.0592 41.6636 52.1801C42.0039 52.2949 42.1935 52.3651 42.1896 52.3775C42.1859 52.3899 41.9894 52.3425 41.6428 52.2482C41.266 52.1409 40.7771 52.0016 40.1951 51.8359L40.2494 51.8274C39.6052 52.2825 38.8273 52.832 37.9812 53.4297L38.0129 53.3827C37.9993 53.4584 38.0029 53.553 38.0315 53.6269C38.1045 53.8424 38.3854 53.8749 38.6196 53.8436C38.8598 53.8125 39.0907 53.7272 39.3053 53.629C39.7342 53.4276 40.111 53.1747 40.4299 52.9285L40.4754 52.8935L40.5164 52.9318C41.0074 53.3924 41.4821 53.7061 41.8318 53.8761C42.1811 54.0543 42.4084 54.0763 42.4045 54.0962Z" fill="#EB996E"/>
<path d="M36.8873 53.5217C36.8952 53.4873 37.0968 53.5811 37.4036 53.5265C37.7198 53.4867 38.0408 53.1395 38.2322 52.6904C38.3178 52.4969 38.3817 52.2985 38.4236 52.121L38.4393 52.0547L38.5032 52.0616C38.8519 52.099 39.1524 52.1237 39.3637 52.1349C39.5786 52.1499 39.6896 52.1273 39.6983 52.1352C39.7125 52.156 39.5808 52.2175 39.3646 52.2259C39.1476 52.2407 38.8438 52.2358 38.4887 52.2087L38.5683 52.1493C38.5285 52.3449 38.4661 52.5478 38.3757 52.754C38.2705 52.9906 38.1346 53.2055 37.967 53.3652C37.8033 53.5289 37.5968 53.6208 37.4217 53.6359C37.334 53.6528 37.2553 53.6428 37.1872 53.6323C37.1179 53.6281 37.0627 53.6082 37.0184 53.5895C36.9292 53.5554 36.8834 53.5319 36.8873 53.5217Z" fill="#EB996E"/>
<path d="M38.7293 53.9565C38.7293 53.9477 38.7854 53.9465 38.8282 54.0204C38.8719 54.0849 38.8662 54.2383 38.7498 54.3299C38.6383 54.4213 38.4969 54.465 38.3369 54.5132C38.1756 54.5551 37.989 54.5843 37.791 54.5617C37.5936 54.5406 37.4076 54.4631 37.2738 54.3504C37.1397 54.238 37.0553 54.1078 36.9956 53.9981C36.8804 53.7753 36.8425 53.6285 36.8596 53.6198C36.881 53.6086 36.9567 53.7428 37.0902 53.9399C37.1583 54.0366 37.2449 54.1476 37.3636 54.2368C37.4818 54.326 37.6361 54.3866 37.8088 54.4056C38.1497 54.4378 38.4978 54.342 38.6817 54.2425C38.7709 54.1864 38.7845 54.0996 38.7718 54.043C38.7589 53.9875 38.7239 53.9676 38.7293 53.9565Z" fill="#EB996E"/>
<path d="M39.5495 51.4389C39.5308 51.4781 38.9222 51.224 38.1904 50.8716C37.4583 50.5193 36.8804 50.2019 36.8991 50.1627C36.9178 50.1235 37.5264 50.3776 38.2585 50.7299C38.99 51.0823 39.5682 51.3997 39.5495 51.4389Z" fill="#EB996E"/>
<path d="M86.8806 43.4727L88.1831 53.9935L95.8477 62.4618L93.5497 64.3978L83.8382 55.9657L81.6827 44.1065L86.8806 43.4727Z" fill="#FFBE9D"/>
<path d="M93.1935 63.1466C93.2966 63.2081 93.3192 64.3083 93.8855 64.9473C94.4519 65.586 96.1784 66.0658 96.1784 66.0658C96.1784 66.0658 96.8047 67.1931 96.9711 67.9205C96.9711 67.9205 96.0319 68.4428 96.0822 68.7741C96.1326 69.1053 96.2758 69.2982 96.5805 69.3829C96.8852 69.4676 97.7756 69.2554 98.2346 69.0987C98.694 68.9419 99.3122 67.7881 99.3122 67.7881L98.7133 65.2391L95.1882 61.6772L93.1935 63.1466Z" fill="#FFBE9D"/>
<path d="M95.923 64.3366C95.9303 64.3284 96.024 64.3972 96.1868 64.5301C96.3495 64.6627 96.581 64.8592 96.8622 65.1079C97.1426 65.3584 97.4762 65.6538 97.8253 66.0134C97.906 66.1053 98.0139 66.196 98.0592 66.3537C98.0815 66.4302 98.0736 66.524 98.0347 66.5981C97.9956 66.6726 97.9398 66.7277 97.8741 66.7729C97.7403 66.8615 97.5679 66.8811 97.415 66.8365C97.3391 66.8169 97.2628 66.7726 97.205 66.7301L97.0313 66.6129C96.5545 66.3099 96.0674 66.0646 95.609 65.8988C95.14 65.7418 94.7165 65.5712 94.3915 65.3729C94.0633 65.1802 93.8324 64.9608 93.7176 64.7785C93.6585 64.6886 93.6262 64.6112 93.6067 64.5596C93.5877 64.5078 93.5744 64.4846 93.5783 64.4801C93.5961 64.4668 93.6458 64.5807 93.7676 64.7429C93.8918 64.9057 94.1212 65.1016 94.447 65.2764C94.7704 65.4572 95.1837 65.6119 95.6566 65.762C96.1331 65.9262 96.6277 66.1707 97.1166 66.4809C97.1775 66.52 97.2375 66.5604 97.2963 66.6023C97.3523 66.643 97.3994 66.6698 97.4584 66.6864C97.5724 66.7202 97.6969 66.7051 97.7897 66.6445C97.8859 66.5806 97.9431 66.4854 97.9142 66.3916C97.891 66.2931 97.8008 66.2039 97.7198 66.1125C97.3837 65.755 97.0564 65.4497 96.7872 65.1902C96.5361 64.9497 96.3224 64.745 96.1461 64.5762C95.996 64.4291 95.9158 64.3447 95.923 64.3366Z" fill="#EB996E"/>
<path d="M97.7647 66.7447C97.7858 66.7405 97.8394 66.903 97.9084 67.1694C97.9422 67.3053 97.9835 67.4557 98.0203 67.645C98.0402 67.7418 98.0176 67.8792 97.9404 67.9697C97.8678 68.0622 97.7737 68.1219 97.6875 68.18C97.5175 68.2889 97.3819 68.4224 97.3104 68.5701C97.2363 68.7178 97.2429 68.867 97.2969 68.9797C97.4057 69.2172 97.6073 69.2142 97.6007 69.2362C97.6019 69.2446 97.5573 69.2639 97.4735 69.2477C97.3909 69.2323 97.2761 69.1636 97.1986 69.0312C97.1169 68.904 97.0934 68.694 97.1787 68.5104C97.2583 68.3247 97.4183 68.1662 97.6004 68.0498C97.7815 67.9362 97.9087 67.8253 97.8768 67.6634C97.8509 67.5055 97.8256 67.3493 97.7999 67.1923C97.7586 66.9195 97.7436 66.7489 97.7647 66.7447Z" fill="#EB996E"/>
<path d="M97.3126 69.3802C97.3095 69.3905 97.2568 69.3875 97.163 69.3691C97.0705 69.3486 96.9307 69.3181 96.779 69.2166C96.7052 69.1647 96.6292 69.0942 96.5759 68.9947C96.5213 68.8965 96.5005 68.7659 96.5265 68.643C96.572 68.3892 96.7875 68.1827 97.0202 68.0606C97.1371 67.9943 97.2568 67.9506 97.3373 67.8867C97.4211 67.8243 97.4482 67.7454 97.4419 67.6444C97.4229 67.4391 97.3629 67.2453 97.3035 67.0949C97.1805 66.7896 97.0488 66.625 97.069 66.6096C97.0814 66.5973 97.2477 66.7392 97.4048 67.0497C97.481 67.2064 97.5552 67.3963 97.5859 67.6344C97.6064 67.7541 97.5513 67.9253 97.4331 68.0073C97.3225 68.0953 97.2016 68.1369 97.0961 68.1984C96.8788 68.3138 96.71 68.4793 96.6678 68.6734C96.6175 68.8651 96.7245 69.0318 96.8457 69.1286C96.9674 69.2268 97.0961 69.2741 97.1808 69.3115C97.2673 69.3465 97.3156 69.3694 97.3126 69.3802Z" fill="#EB996E"/>
<path d="M54.7802 75.8438C54.7802 75.8438 47.5574 81.4335 46.6218 81.9266C45.6863 82.4197 36.8892 92.1602 36.8892 92.1602L38.8215 95.9533L59.0742 80.2091L54.7802 75.8438Z" fill="#FFBE9D"/>
<path d="M36.9284 91.3765L32.3364 96.0306L27.6427 98.6647C27.3045 98.8546 27.1975 99.291 27.41 99.6156C27.5291 99.7974 27.7265 99.9101 27.9435 99.9183C29.3252 99.9695 34.4083 100.133 34.7251 99.773C35.0922 99.3567 39.8949 95.1851 39.8949 95.1851L36.9284 91.3765Z" fill="#9F79D1"/>
<g opacity="0.4">
<path d="M36.9284 91.3765L32.3364 96.0306L27.6427 98.6647C27.3045 98.8546 27.1975 99.291 27.41 99.6156C27.5291 99.7974 27.7265 99.9101 27.9435 99.9183C29.3252 99.9695 34.4083 100.133 34.7251 99.773C35.0922 99.3567 39.8949 95.1851 39.8949 95.1851L36.9284 91.3765Z" fill="white"/>
</g>
<path d="M82.4326 40.6953C82.4432 40.6935 82.4688 40.7821 82.5059 40.9449C82.5442 41.1074 82.5879 41.3446 82.6325 41.6394C82.722 42.2286 82.798 43.0521 82.7904 43.9636C82.7814 44.8751 82.6906 45.697 82.5906 46.2848C82.5408 46.5787 82.4926 46.8153 82.4516 46.9768C82.4115 47.1387 82.3844 47.227 82.3739 47.2249C82.35 47.2201 82.4097 46.8572 82.4809 46.2691C82.5523 45.681 82.6249 44.8654 82.6337 43.9621C82.6412 43.059 82.5833 42.2425 82.5225 41.6532C82.4619 41.0637 82.4088 40.6996 82.4326 40.6953Z" fill="#263238"/>
<path d="M72.385 34.551C72.385 34.551 68.2972 34.8106 66.7229 35.8125C65.1486 36.8144 61.5072 41.8697 61.5072 41.8697L66.3226 45.1919L67.3037 52.3436L67.3565 52.7285L80.9735 53.7904L82.6738 46.3258L88.2177 44.9909C88.2177 44.9909 86.1153 38.9143 85.1987 37.5143C83.8059 35.3863 77.8204 34.4302 77.8204 34.4302L72.385 34.551Z" fill="#9F79D1"/>
<path d="M67.5253 52.7417C67.5253 52.7417 64.1482 55.6576 62.976 56.8153C61.2365 58.5334 59.5034 62.6043 57.4996 66.8265C55.4958 71.0487 47.266 74.1262 45.6914 76.8455C44.1171 79.5649 46.2318 83.3025 47.9815 84.3249C52.0853 86.7232 64.5919 85.2553 68.0778 86.3745C70.8402 87.2612 73.7166 91.3728 75.2834 89.4408C76.6274 87.7833 78.6481 79.9941 80.2501 71.3462C81.3711 65.2947 80.9738 53.79 80.9738 53.79L67.5253 52.7417Z" fill="#9F79D1"/>
<path d="M81.0127 53.7112C81.0133 53.7166 80.9663 53.7274 80.8759 53.7434C80.7668 53.7606 80.636 53.7814 80.4786 53.8061C80.1335 53.8594 79.6314 53.917 79.0089 53.9704C77.765 54.0783 76.0343 54.1316 74.1311 53.9966C72.2274 53.8582 70.522 53.558 69.3064 53.2732C68.6981 53.1315 68.2092 53.0025 67.8756 52.9C67.7237 52.853 67.5971 52.8138 67.4916 52.781C67.4042 52.752 67.3592 52.7346 67.3608 52.7291C67.3623 52.724 67.4102 52.7312 67.5003 52.7502C67.6076 52.775 67.7366 52.8048 67.8915 52.8407C68.2297 52.9248 68.7213 53.0369 69.3305 53.1644C70.5485 53.4206 72.2479 53.7021 74.1429 53.8399C76.0373 53.9743 77.7593 53.9387 79.0014 53.8594C79.6226 53.8206 80.1254 53.7799 80.472 53.7452C80.6302 53.7319 80.7623 53.7211 80.8723 53.7118C80.9633 53.7063 81.0118 53.7057 81.0127 53.7112Z" fill="#263238"/>
<path d="M65.8151 41.228C65.8624 41.2289 65.8522 42.176 66.0038 43.3286C66.15 44.4821 66.4007 45.3951 66.3549 45.4084C66.3353 45.4141 66.2476 45.1925 66.1433 44.8221C66.039 44.452 65.9236 43.9317 65.8479 43.3488C65.7729 42.7658 65.7524 42.2332 65.7593 41.8489C65.7663 41.464 65.7949 41.2274 65.8151 41.228Z" fill="#263238"/>
<path d="M66.5089 59.6153C66.4995 59.6099 66.5456 59.5111 66.6373 59.3365C66.728 59.1617 66.8691 58.914 67.0511 58.6122C67.4149 58.0091 67.9572 57.1974 68.6326 56.3592C69.3096 55.5215 69.9899 54.8207 70.5056 54.3409C70.7636 54.101 70.9777 53.9126 71.1308 53.7884C71.2833 53.6636 71.3707 53.5985 71.3779 53.6066C71.3939 53.625 71.0765 53.9222 70.5828 54.4205C70.0891 54.9184 69.4266 55.6258 68.7547 56.4577C68.0841 57.2902 67.531 58.0863 67.1446 58.6716C66.7581 59.2573 66.5297 59.6274 66.5089 59.6153Z" fill="#263238"/>
<path d="M67.608 64.7598C67.5974 64.7568 67.6318 64.595 67.7032 64.3047C67.7737 64.0141 67.885 63.5961 68.0302 63.0815C68.3202 62.0525 68.7566 60.6404 69.3022 59.1026C69.849 57.5644 70.4012 56.1936 70.8256 55.2122C71.0375 54.7215 71.2147 54.3266 71.3434 54.0569C71.4712 53.7865 71.5468 53.6394 71.5568 53.6436C71.5667 53.6479 71.5101 53.8037 71.3995 54.081C71.2777 54.3845 71.1191 54.7791 70.928 55.2547C70.5308 56.2458 69.9961 57.6202 69.4502 59.155C68.9055 60.6898 68.4534 62.0935 68.1366 63.1129C67.985 63.6021 67.859 64.0087 67.762 64.321C67.6728 64.6061 67.6185 64.7625 67.608 64.7598Z" fill="#263238"/>
<path d="M78.8344 63.624C78.8398 63.624 78.8416 63.7051 78.8401 63.8588C78.8365 64.0276 78.8317 64.2513 78.8257 64.5319C78.8193 64.8243 78.8073 65.1817 78.7792 65.5959C78.753 66.0103 78.7322 66.4829 78.6807 67.0032C78.5978 68.0455 78.4534 69.2831 78.2482 70.6506C78.0329 72.0163 77.7514 73.5113 77.384 75.0648C77.0093 76.6168 76.5843 78.0781 76.1584 79.3938C75.7229 80.7064 75.2922 81.8756 74.8946 82.8425C74.7053 83.3299 74.51 83.761 74.346 84.1422C74.1836 84.5244 74.0329 84.8488 73.9063 85.1122C73.7848 85.3651 73.688 85.5667 73.6148 85.7189C73.5467 85.857 73.5084 85.9281 73.5036 85.9257C73.4988 85.9233 73.5274 85.8476 73.5862 85.7054C73.6525 85.5505 73.7405 85.3446 73.8505 85.0869C73.9684 84.8198 74.1106 84.4922 74.2652 84.1073C74.4211 83.7233 74.6089 83.2898 74.7912 82.8009C75.1749 81.8304 75.5936 80.6603 76.0204 79.3485C76.4375 78.0338 76.8571 76.5755 77.2309 75.0278C77.5971 73.4788 77.8825 71.9889 78.105 70.6277C78.3175 69.265 78.473 68.0319 78.5698 66.9929C78.6282 66.4742 78.6566 66.0031 78.6912 65.5899C78.7274 65.1766 78.7488 64.8203 78.7642 64.5286C78.7826 64.2489 78.797 64.0255 78.8082 63.8573C78.8202 63.7045 78.829 63.624 78.8344 63.624Z" fill="#263238"/>
<g opacity="0.3">
<path d="M71.3779 53.6064C69.2014 55.2045 67.7709 57.8033 67.4731 60.4871C67.4505 60.6909 67.4354 60.904 67.5111 61.0945C67.5867 61.285 67.7799 61.4441 67.9828 61.414C68.1968 61.382 68.3285 61.1689 68.4286 60.9769C69.6626 58.6093 70.3995 56.1242 71.5567 53.6435" fill="black"/>
</g>
<g opacity="0.3">
<path d="M82.6208 41.2637C83.0135 41.8147 83.4096 42.3711 83.6751 42.9938C83.9404 43.6162 84.0682 44.3188 83.903 44.9753C83.7378 45.6315 83.2417 46.2259 82.5846 46.3877C82.7127 44.6929 82.9391 42.8844 82.5433 41.2637" fill="black"/>
</g>
<g opacity="0.3">
<path d="M46.0654 82.2129C48.3191 84.0346 50.8522 85.0158 53.7395 85.265C56.6267 85.5143 59.5333 85.1252 62.3729 84.5473C64.6462 84.0847 67.1615 83.5358 69.1638 84.7074C70.7245 85.6207 70.8053 86.9032 71.56 88.5468C68.5673 85.926 66.1026 85.9182 61.8972 85.8745C58.2134 85.8362 54.4059 85.926 50.7666 85.2521C48.0735 84.7529 47.1279 83.9997 46.0654 82.2129Z" fill="black"/>
</g>
<path d="M69.2277 43.8442C69.1864 43.8578 69.0041 43.4183 68.8202 42.8625C68.6363 42.3067 68.5206 41.8449 68.5616 41.8314C68.6026 41.8178 68.7852 42.2573 68.9691 42.8131C69.153 43.3689 69.2687 43.8306 69.2277 43.8442Z" fill="#FAFAFA"/>
<path d="M76.1684 45.44C76.2007 45.4689 75.8525 45.9084 75.3908 46.4214C74.929 46.9344 74.5287 47.3268 74.4965 47.2979C74.4642 47.269 74.8123 46.8295 75.2741 46.3165C75.7356 45.8035 76.1362 45.411 76.1684 45.44Z" fill="#FAFAFA"/>
<path d="M79.7106 40.8226C79.6783 40.8516 79.3582 40.5483 78.9959 40.145C78.6333 39.7417 78.3656 39.3915 78.3979 39.3623C78.4301 39.3333 78.75 39.6365 79.1126 40.0398C79.4752 40.4434 79.7428 40.7937 79.7106 40.8226Z" fill="#FAFAFA"/>
<path d="M84.3433 38.4589C84.3126 38.4897 84.0058 38.232 83.6582 37.8838C83.3104 37.5354 83.0533 37.2285 83.084 37.1978C83.1148 37.1671 83.4213 37.4248 83.7691 37.7729C84.117 38.121 84.3741 38.4282 84.3433 38.4589Z" fill="#FAFAFA"/>
<path d="M85.4145 43.7944C85.375 43.7763 85.4995 43.4221 85.6924 43.0038C85.8853 42.5851 86.0734 42.2605 86.1129 42.2786C86.1524 42.2966 86.0279 42.6508 85.835 43.0692C85.6421 43.4878 85.4537 43.8125 85.4145 43.7944Z" fill="#FAFAFA"/>
<path d="M78.0383 52.154C78.0003 52.1332 78.1649 51.7574 78.4063 51.3146C78.6477 50.8715 78.8741 50.5294 78.9121 50.5502C78.9501 50.571 78.7855 50.9469 78.5441 51.3897C78.3029 51.8324 78.0763 52.1748 78.0383 52.154Z" fill="#FAFAFA"/>
<path d="M69.7452 51.4497C69.7069 51.4705 69.426 51.0253 69.1176 50.4559C68.809 49.8862 68.5898 49.4079 68.6281 49.3874C68.6661 49.3669 68.9473 49.8115 69.2557 50.3812C69.564 50.9505 69.7831 51.4289 69.7452 51.4497Z" fill="#FAFAFA"/>
<path d="M72.4242 39.6437C72.391 39.6718 71.9808 39.2432 71.5073 38.6864C71.0337 38.1294 70.6769 37.6556 70.71 37.6273C70.7429 37.5992 71.1534 38.0279 71.6269 38.5846C72.1001 39.1416 72.4573 39.6157 72.4242 39.6437Z" fill="#FAFAFA"/>
<path d="M66.3573 39.0056C66.3748 39.0469 65.9652 39.2558 65.4814 39.5455C64.9965 39.8333 64.6182 40.0946 64.5899 40.0597C64.563 40.0277 64.9051 39.7052 65.401 39.4107C65.8956 39.1144 66.3417 38.9668 66.3573 39.0056Z" fill="#FAFAFA"/>
<path d="M74.9456 58.5061C74.9046 58.52 74.6933 58.0037 74.4742 57.3529C74.2548 56.7022 74.1104 56.1636 74.1514 56.1497C74.1924 56.1358 74.4033 56.6521 74.6228 57.3029C74.8422 57.9537 74.9866 58.4923 74.9456 58.5061Z" fill="#FAFAFA"/>
<path d="M68.6737 61.0341C68.6354 61.0546 68.4352 60.755 68.2264 60.3656C68.0175 59.9755 67.8794 59.6431 67.9174 59.6226C67.9557 59.6021 68.1558 59.9014 68.3647 60.2914C68.5736 60.6808 68.7119 61.0136 68.6737 61.0341Z" fill="#FAFAFA"/>
<path d="M65.9006 56.8428C65.9142 56.8841 65.4512 57.0746 64.8662 57.2687C64.2811 57.4628 63.7958 57.5867 63.7823 57.5457C63.7687 57.5044 64.2317 57.3139 64.8167 57.1198C65.4018 56.9257 65.8871 56.8018 65.9006 56.8428Z" fill="#FAFAFA"/>
<path d="M62.5758 66.5782C62.5312 66.5773 62.5077 66.0462 62.4513 65.3958C62.3968 64.7447 62.3302 64.2175 62.3742 64.2091C62.4152 64.2006 62.5526 64.7221 62.6078 65.3825C62.665 66.0426 62.6177 66.5797 62.5758 66.5782Z" fill="#FAFAFA"/>
<path d="M69.5686 71.129C69.5397 71.1591 69.1602 70.8351 68.7831 70.3525C68.4042 69.8709 68.1803 69.4254 68.2165 69.4043C68.255 69.3811 68.5348 69.7832 68.9067 70.2558C69.2768 70.7293 69.6003 71.097 69.5686 71.129Z" fill="#FAFAFA"/>
<path d="M75.4746 66.3278C75.4324 66.338 75.2871 65.8829 75.15 65.312C75.0128 64.7405 74.9357 64.2694 74.9778 64.2594C75.02 64.2492 75.1653 64.704 75.3025 65.2755C75.4396 65.8464 75.5168 66.3178 75.4746 66.3278Z" fill="#FAFAFA"/>
<path d="M80.4895 59.3432C80.5157 59.3779 80.1398 59.7077 79.65 60.0799C79.1599 60.4525 78.7419 60.7261 78.7156 60.6918C78.6894 60.6574 79.0653 60.3274 79.5551 59.9551C80.0449 59.5826 80.4633 59.3089 80.4895 59.3432Z" fill="#FAFAFA"/>
<path d="M76.5756 75.657C76.5322 75.6718 76.3516 75.2203 76.0523 74.7066C75.756 74.1912 75.4549 73.8096 75.4893 73.7795C75.5185 73.7509 75.8823 74.0963 76.1882 74.628C76.4969 75.1582 76.6147 75.6458 76.5756 75.657Z" fill="#FAFAFA"/>
<path d="M77.8828 80.7002C77.8428 80.7164 77.6634 80.3686 77.4823 79.9231C77.3011 79.4776 77.1872 79.1033 77.2273 79.087C77.2674 79.0707 77.4467 79.4185 77.6278 79.864C77.809 80.3095 77.9229 80.6839 77.8828 80.7002Z" fill="#FAFAFA"/>
<path d="M80.0648 68.8926C80.0883 68.9291 79.9153 69.0822 79.6781 69.2347C79.4412 69.3872 79.2299 69.4816 79.2064 69.4451C79.1829 69.4086 79.3559 69.2555 79.5931 69.1027C79.8303 68.9502 80.0416 68.8561 80.0648 68.8926Z" fill="#FAFAFA"/>
<path d="M74.4669 88.5086C74.428 88.5233 74.2689 88.18 74.201 87.7228C74.1314 87.2655 74.1827 86.8909 74.2243 86.8936C74.2692 86.8951 74.2888 87.2592 74.3563 87.6996C74.4214 88.1399 74.5094 88.4938 74.4669 88.5086Z" fill="#FAFAFA"/>
<path d="M72.5432 81.7666C72.5589 81.807 72.1222 82.0141 71.5679 82.2293C71.0132 82.4445 70.5512 82.5862 70.5358 82.5458C70.5201 82.5054 70.9569 82.2983 71.5112 82.0831C72.0655 81.8679 72.5276 81.7263 72.5432 81.7666Z" fill="#FAFAFA"/>
<path d="M66.7001 78.2234C66.6555 78.2255 66.6018 77.7712 66.5093 77.2175C66.4185 76.6635 66.3227 76.2162 66.3655 76.2039C66.4056 76.1915 66.5714 76.6271 66.6642 77.1919C66.7585 77.7565 66.742 78.2221 66.7001 78.2234Z" fill="#FAFAFA"/>
<path d="M60.3112 80.808C60.3232 80.8481 59.8313 81.0271 59.1972 81.1323C58.563 81.2393 58.0397 81.2306 58.0382 81.1887C58.0358 81.1441 58.5473 81.0832 59.1712 80.9777C59.7955 80.874 60.2991 80.7649 60.3112 80.808Z" fill="#FAFAFA"/>
<path d="M60.0815 72.8352C60.0393 72.8256 60.1499 72.1854 60.3289 71.4053C60.508 70.6252 60.6873 70.0007 60.7295 70.0104C60.7717 70.02 60.6611 70.6602 60.4821 71.4403C60.303 72.2203 60.1237 72.8449 60.0815 72.8352Z" fill="#FAFAFA"/>
<path d="M53.8085 76.5553C53.7784 76.5864 53.3926 76.262 52.9474 75.8304C52.5019 75.3988 52.1652 75.0238 52.1954 74.9928C52.2255 74.9617 52.611 75.2861 53.0568 75.7177C53.5017 76.149 53.8387 76.524 53.8085 76.5553Z" fill="#FAFAFA"/>
<path d="M50.0802 80.7415C50.042 80.7569 49.8361 80.3081 49.7351 79.7122C49.6314 79.1163 49.676 78.6247 49.717 78.6265C49.7626 78.6268 49.7888 79.106 49.8898 79.6856C49.9877 80.2653 50.123 80.7261 50.0802 80.7415Z" fill="#FAFAFA"/>
<path d="M54.5511 84.3587C54.54 84.4006 53.8778 84.2601 53.0721 84.0452C52.2661 83.8303 51.6223 83.622 51.6334 83.5801C51.6446 83.5382 52.3068 83.6787 53.1128 83.8936C53.9179 84.1085 54.5623 84.3168 54.5511 84.3587Z" fill="#FAFAFA"/>
<path d="M81.0782 21.0675C81.2994 20.6362 81.9734 20.6871 82.3363 21.0084C82.6995 21.3297 82.8704 21.8102 83.1444 22.2102C83.9883 23.4423 85.7769 23.7513 87.1746 23.2244C88.572 22.6975 89.6221 21.5124 90.4124 20.2452C90.646 19.8709 90.8657 19.4754 90.9399 19.0405C91.014 18.6055 90.9194 18.1197 90.5996 17.8158C90.2795 17.512 89.7119 17.4659 89.4087 17.7866C90.1586 17.1141 90.2756 15.8491 89.6619 15.0506C89.0482 14.2522 87.7955 14.0397 86.9528 14.591C87.092 14.1009 86.9039 13.5345 86.4994 13.2247C86.0949 12.9148 85.4993 12.8811 85.0623 13.1433C84.4185 13.5294 84.2458 14.3628 84.0595 15.0901C83.8732 15.8175 83.4823 16.6412 82.739 16.747C82.2986 16.8097 81.8733 16.5909 81.4384 16.498C80.5558 16.3103 79.5783 16.6937 79.0593 17.4318C78.5403 18.17 78.5098 19.2195 78.9852 19.9866" fill="#101010"/>
<path d="M82.3058 13.2645C82.3076 13.2594 82.3435 13.269 82.4107 13.2926C82.477 13.3176 82.5732 13.3613 82.6883 13.4333C82.9141 13.5762 83.2291 13.8508 83.4102 14.3144C83.497 14.5443 83.5431 14.8213 83.4958 15.1128C83.4446 15.4006 83.3105 15.6972 83.0832 15.9384C82.8598 16.1783 82.5352 16.3667 82.169 16.3914C81.8046 16.4215 81.4453 16.3124 81.1005 16.2033C80.7545 16.0945 80.4172 15.9875 80.0901 16.002C79.7643 16.0134 79.4698 16.1632 79.2525 16.3718C78.8076 16.7965 78.6572 17.3716 78.6379 17.834C78.6153 18.3036 78.6756 18.687 78.7097 18.9504C78.7464 19.2142 78.766 19.3609 78.7549 19.363C78.7446 19.3649 78.7048 19.2226 78.6494 18.9607C78.5969 18.699 78.5186 18.3153 78.527 17.8295C78.533 17.3523 78.6759 16.7338 79.1527 16.2672C79.3851 16.0372 79.7173 15.863 80.0832 15.8483C80.4482 15.8308 80.8027 15.9456 81.1478 16.0532C81.4926 16.1629 81.8317 16.2633 82.1575 16.2377C82.4813 16.2181 82.7712 16.0544 82.9786 15.8383C83.1884 15.6216 83.3159 15.3512 83.368 15.0896C83.4166 14.8259 83.381 14.5693 83.3065 14.3517C83.1501 13.9129 82.8628 13.6362 82.6543 13.483C82.4412 13.3287 82.2998 13.2787 82.3058 13.2645Z" fill="#101010"/>
<path d="M90.0284 17.6055C90.0338 17.6058 90.0338 17.651 90.0287 17.7381C90.0284 17.7821 90.0209 17.8355 90.0061 17.8976C89.9955 17.9609 89.9775 18.0323 89.9473 18.1104C89.8466 18.4263 89.5567 18.8494 89.0473 19.1656C88.7938 19.3218 88.4897 19.4565 88.144 19.5261C87.7976 19.5966 87.4175 19.5994 87.0284 19.5445C86.2447 19.4387 85.446 19.0945 84.6385 18.7207C83.8316 18.3467 83.0467 18.0121 82.2896 17.9114C81.9134 17.859 81.5484 17.8626 81.2205 17.9298C80.891 17.9961 80.5998 18.1254 80.3563 18.2746C79.8674 18.577 79.5868 18.9772 79.4807 19.2781C79.3686 19.5801 79.3752 19.7666 79.3571 19.7645C79.3517 19.7645 79.3502 19.7193 79.3529 19.6319C79.352 19.5879 79.358 19.5346 79.3707 19.4719C79.3794 19.4083 79.3954 19.3362 79.4231 19.2576C79.515 18.939 79.7942 18.5082 80.2966 18.1806C80.5468 18.019 80.8479 17.8777 81.1927 17.8023C81.5381 17.7258 81.9182 17.7176 82.3083 17.7677C83.0934 17.8644 83.8958 18.2035 84.7039 18.5779C85.5111 18.9519 86.293 19.2916 87.0489 19.4013C87.4245 19.4583 87.7895 19.4598 88.1186 19.3983C88.4493 19.3377 88.7429 19.2145 88.9897 19.0707C89.4852 18.7792 89.7758 18.3862 89.8904 18.0884C90.0112 17.7897 90.0103 17.6028 90.0284 17.6055Z" fill="#455A64"/>
<path d="M86.6064 14.3629C86.6116 14.361 86.6275 14.3972 86.6535 14.4681C86.6824 14.5383 86.7092 14.6468 86.7348 14.7888C86.7785 15.0715 86.7813 15.5055 86.5956 15.9941C86.4132 16.474 86.0205 17.0192 85.3767 17.3047C84.7383 17.5964 83.9546 17.5931 83.1857 17.5024C82.4125 17.4068 81.6849 17.2736 81.0239 17.3297C80.696 17.3556 80.3864 17.4252 80.1209 17.5392C79.8568 17.6582 79.6371 17.8249 79.4653 18.0024C79.116 18.3599 78.9879 18.7671 78.9779 19.0414C78.968 19.3199 79.0325 19.4703 79.015 19.4749C79.0099 19.4767 78.9942 19.4405 78.9689 19.3688C78.9442 19.2973 78.9188 19.1858 78.9167 19.0402C78.9077 18.7518 79.0267 18.3129 79.3842 17.9268C79.56 17.7348 79.7878 17.553 80.0672 17.4207C80.3494 17.2932 80.6704 17.2167 81.0119 17.1856C81.6976 17.1199 82.44 17.2528 83.2038 17.3466C83.9642 17.4367 84.716 17.4403 85.3185 17.1726C85.9225 16.9137 86.3047 16.408 86.4928 15.9528C86.6836 15.4905 86.699 15.0736 86.6746 14.7966C86.6453 14.5172 86.5908 14.3677 86.6064 14.3629Z" fill="#455A64"/>
<path d="M77.7505 31.6799C78.6903 31.9391 79.7474 31.7287 80.5163 31.1295C81.2852 30.5303 81.7472 29.5564 81.7252 28.5816C81.7047 27.6716 81.2933 26.7442 81.576 25.8788C81.7702 25.2847 82.2684 24.8218 82.4354 24.2192C82.6847 23.3201 82.1409 22.4113 81.6219 21.6361C81.2888 21.1388 80.9488 20.6336 80.4846 20.2556C80.0204 19.8777 79.405 19.6392 78.8196 19.7637" fill="#101010"/>
<path d="M69.3589 19.8438C69.4095 20.5307 68.9559 21.1444 68.4986 21.6598C68.0414 22.1752 67.5329 22.7123 67.434 23.3941C67.2589 24.6022 68.4417 25.7241 68.1978 26.9204C68.067 27.5615 67.5422 28.0763 67.4485 28.724C67.3581 29.3504 67.6936 29.9635 68.1098 30.4403C68.5258 30.9171 69.033 31.3147 69.4008 31.8295C69.4008 31.8295 70.167 33.0867 72.5258 32.2819" fill="#101010"/>
<path d="M79.9173 20.8944C79.9351 20.2714 79.3588 19.79 78.7789 19.5619C78.1989 19.3337 77.5542 19.2478 77.0373 18.8997C76.5794 18.5916 76.2717 18.1109 75.8844 17.7181C74.9337 16.7545 73.4493 16.3548 72.1435 16.7111C70.8375 17.0674 69.7617 18.1654 69.4323 19.4784C69.2096 20.3657 69.3618 21.4147 70.061 22.0042C70.8728 22.6884 72.0763 22.5365 73.1162 22.3237C74.1564 22.1109 75.3334 21.9008 76.2021 22.5118C76.7256 22.8801 77.0258 23.4794 77.3462 24.034C77.6663 24.5886 78.0681 25.1546 78.6737 25.3632C79.2792 25.5718 80.1012 25.2116 80.1247 24.5717" fill="#101010"/>
<path d="M77.1998 36.2977C77.5594 35.9604 77.7716 35.4969 77.7945 35.0043L78.391 22.0815C78.4028 21.5404 77.9986 21.0802 77.4605 21.022L71.9311 19.6114C70.1597 19.42 68.9766 21.5992 68.8606 23.3773C68.7319 25.3527 68.6523 27.7695 68.8832 29.244C69.3474 32.209 71.6182 32.5912 71.6182 32.5912C71.6191 32.5761 71.6107 33.169 71.6481 35.8121C71.6481 35.8121 72.2337 37.753 74.1745 37.753C75.4263 37.753 76.5557 36.9021 77.1998 36.2977Z" fill="#FFBE9D"/>
<path d="M69.592 25.2978C69.5845 25.4986 69.7482 25.6704 69.9577 25.6821C70.1668 25.6939 70.3426 25.5411 70.3504 25.3403C70.3579 25.1396 70.1943 24.9675 69.9851 24.9557C69.7756 24.944 69.5996 25.0971 69.592 25.2978Z" fill="#101010"/>
<path d="M69.382 24.4438C69.429 24.4935 69.7175 24.281 70.1265 24.2828C70.5352 24.2789 70.8348 24.4899 70.8794 24.4402C70.9011 24.4181 70.8535 24.3283 70.723 24.2331C70.5946 24.1381 70.3752 24.0453 70.1205 24.0459C69.8658 24.0468 69.6512 24.1399 69.5276 24.2358C69.4016 24.3319 69.3588 24.4215 69.382 24.4438Z" fill="#101010"/>
<path d="M73.5054 25.4008C73.4978 25.6016 73.6615 25.7734 73.871 25.7851C74.0802 25.7969 74.2562 25.6441 74.2637 25.4433C74.2713 25.2426 74.1076 25.0705 73.8984 25.0587C73.6886 25.047 73.5129 25.2001 73.5054 25.4008Z" fill="#101010"/>
<path d="M73.4026 24.7211C73.4496 24.7708 73.7387 24.5583 74.1474 24.5602C74.5561 24.5562 74.8557 24.7672 74.9003 24.7175C74.922 24.6955 74.8747 24.6057 74.7439 24.5104C74.6155 24.4155 74.3964 24.3226 74.1414 24.3232C73.8867 24.3241 73.6721 24.4176 73.5485 24.5131C73.4228 24.6093 73.3797 24.6988 73.4026 24.7211Z" fill="#101010"/>
<path d="M71.9115 27.7513C71.9136 27.7281 71.6592 27.6835 71.2475 27.6298C71.1432 27.6187 71.0443 27.5979 71.0268 27.5264C71.0024 27.4508 71.0464 27.3384 71.0973 27.2169C71.1962 26.9643 71.2996 26.6997 71.4081 26.4224C71.8397 25.2908 72.1523 24.3604 72.1065 24.3435C72.0607 24.3266 71.674 25.23 71.2423 26.3615C71.1383 26.6406 71.0392 26.9064 70.9445 27.1608C70.9047 27.2793 70.8363 27.414 70.8894 27.5707C70.9174 27.6488 70.994 27.7058 71.0609 27.7239C71.1278 27.7444 71.1866 27.7459 71.2381 27.7489C71.6526 27.7721 71.9097 27.7745 71.9115 27.7513Z" fill="#101010"/>
<path d="M71.6182 32.5911C71.6182 32.5911 73.612 32.7241 75.5902 31.541C75.5902 31.541 74.5844 33.5768 71.6182 33.2928V32.5911Z" fill="#EB996E"/>
<path d="M73.2202 24.004C73.2603 24.1152 73.6687 24.0634 74.1486 24.1224C74.6296 24.1719 75.0164 24.3129 75.0803 24.2135C75.1089 24.1659 75.0417 24.061 74.8852 23.9531C74.7303 23.8451 74.4832 23.7424 74.195 23.7098C73.9069 23.6776 73.6431 23.7228 73.468 23.7936C73.292 23.8641 73.2031 23.9512 73.2202 24.004Z" fill="#101010"/>
<path d="M69.5349 23.4519C69.6066 23.545 69.8887 23.4492 70.2275 23.4453C70.5663 23.4296 70.8533 23.5092 70.9196 23.4121C70.9488 23.3651 70.9036 23.2719 70.7785 23.1836C70.6552 23.0956 70.4488 23.0236 70.2158 23.0302C69.9831 23.0371 69.7811 23.1209 69.663 23.2159C69.5427 23.3111 69.5032 23.4067 69.5349 23.4519Z" fill="#101010"/>
<path d="M79.5301 30.7744C78.715 30.9387 77.8271 30.6882 77.2179 30.1221C76.6091 29.5561 76.2944 28.6889 76.3987 27.8639C76.4909 27.136 76.8833 26.3951 76.6311 25.7061C76.2974 24.7952 75.0203 24.5149 74.6815 23.6058C74.4847 23.0775 74.6613 22.4596 74.4383 21.9417C74.2285 21.4549 73.7161 21.1746 73.2175 20.9941C72.719 20.8138 72.1843 20.6893 71.7656 20.3641C71.347 20.0386 71.0859 19.4246 71.356 18.9683C73.5672 19.2332 75.7467 19.7628 77.8331 20.5419C78.3169 20.7225 78.8251 20.9398 79.1111 21.3696C79.4137 21.8245 79.3993 22.4125 79.3736 22.9584C79.2494 25.6199 79.1253 28.2814 79.0011 30.9429" fill="#101010"/>
<path d="M81.0965 21.1437C81.0965 21.1437 81.1312 21.1777 81.146 21.2648C81.1635 21.3501 81.1393 21.4915 81.0317 21.6211C80.9272 21.748 80.746 21.8755 80.5013 21.8894C80.2574 21.8951 80.0054 21.7884 79.7501 21.6645C79.4951 21.5361 79.2142 21.4225 78.8851 21.4092C78.5589 21.389 78.2075 21.4387 77.8386 21.5045C77.4696 21.569 77.0775 21.6537 76.6552 21.657C76.2389 21.6624 75.7699 21.5376 75.4414 21.2139C75.1089 20.8986 74.9197 20.4974 74.7424 20.13C74.5667 19.7596 74.4021 19.4018 74.1767 19.113C73.7381 18.515 72.9915 18.3508 72.4658 18.4888C71.9239 18.6253 71.5975 18.9949 71.4341 19.2523C71.2677 19.5193 71.2318 19.6966 71.2168 19.6914C71.2119 19.6902 71.218 19.6462 71.2394 19.5639C71.2623 19.4826 71.3039 19.3635 71.3826 19.2215C71.536 18.9466 71.8612 18.5452 72.4387 18.3833C72.7226 18.3064 73.0581 18.3004 73.3909 18.4023C73.7251 18.4975 74.0495 18.7176 74.2882 19.0253C74.5308 19.33 74.7014 19.6972 74.8784 20.0649C75.0559 20.4308 75.2425 20.8148 75.5463 21.1015C75.8456 21.3947 76.2607 21.5078 76.6555 21.5063C77.0549 21.5054 77.4419 21.4264 77.8144 21.3646C78.1867 21.3025 78.5502 21.2549 78.8944 21.282C79.2404 21.3007 79.55 21.4333 79.7981 21.5668C80.0488 21.6971 80.2848 21.801 80.4991 21.8035C80.7113 21.8001 80.8859 21.6916 80.9862 21.5819C81.0902 21.4698 81.121 21.3474 81.1149 21.2681C81.1116 21.1871 81.0878 21.147 81.0965 21.1437Z" fill="#455A64"/>
<path d="M81.4299 21.4256C81.3913 21.4581 80.9386 20.7025 80.0265 20.1885C79.1225 19.6596 78.2418 19.6496 78.2506 19.5999C78.2503 19.5827 78.4673 19.5592 78.8148 19.6065C79.1614 19.6526 79.6362 19.7877 80.1034 20.055C80.5693 20.3239 80.9253 20.6657 81.1399 20.9415C81.3557 21.2179 81.4449 21.4171 81.4299 21.4256Z" fill="#9F79D1"/>
<path d="M78.1034 19.4472C78.1079 19.4499 78.0938 19.4794 78.0618 19.5343C78.0248 19.5849 77.9687 19.6624 77.871 19.7356C77.6826 19.8848 77.3261 20.0211 76.8902 19.9536C76.4514 19.8873 76.0023 19.5864 75.6074 19.1889C75.2059 18.7982 74.834 18.2949 74.2887 17.9853C73.7444 17.6791 73.1081 17.633 72.5872 17.7689C72.0591 17.9009 71.6568 18.2195 71.3997 18.5384C71.1389 18.8597 71.0123 19.1789 70.9475 19.4011C70.883 19.625 70.8707 19.7555 70.8574 19.7543C70.8523 19.7537 70.8511 19.7212 70.8535 19.6585C70.855 19.5958 70.8655 19.5036 70.8906 19.3869C70.9394 19.1548 71.0545 18.8175 71.3159 18.4727C71.5727 18.1315 71.9919 17.7831 72.552 17.6345C73.1032 17.4832 73.779 17.526 74.3626 17.8539C74.9464 18.1879 75.3171 18.7051 75.7057 19.0909C76.0867 19.4852 76.5056 19.7748 76.9086 19.849C77.311 19.9246 77.6501 19.8143 77.837 19.688C78.0284 19.5593 78.0911 19.4378 78.1034 19.4472Z" fill="#455A64"/>
<path d="M77.9669 32.0465C77.9657 32.0525 78.011 32.0649 78.0987 32.083C78.1864 32.1005 78.3178 32.1179 78.4884 32.1222C78.8263 32.1294 79.336 32.0791 79.8903 31.8063C80.4428 31.5443 81.0284 31.0343 81.3844 30.2959C81.7458 29.5692 81.8805 28.6221 81.6376 27.7131C81.5312 27.2624 81.3971 26.8341 81.3769 26.4146C81.3452 25.9929 81.4802 25.6092 81.6701 25.2629C81.8561 24.9177 82.0502 24.5726 82.1289 24.2127C82.2154 23.8571 82.2106 23.5107 82.1578 23.2075C82.0502 22.5965 81.7708 22.161 81.5456 21.9087C81.4332 21.78 81.3325 21.6929 81.2611 21.6389C81.1891 21.5856 81.1499 21.56 81.146 21.5651C81.1348 21.5784 81.2864 21.6908 81.4926 21.9524C81.6961 22.211 81.9477 22.6417 82.0348 23.2271C82.0776 23.5177 82.0746 23.8453 81.9872 24.1784C81.9076 24.5141 81.722 24.8351 81.5267 25.1875C81.4317 25.3647 81.3389 25.5543 81.2771 25.7638C81.2171 25.9739 81.1939 26.199 81.2044 26.423C81.2243 26.8736 81.3624 27.311 81.4661 27.7537C81.7 28.6309 81.5752 29.5237 81.2382 30.2257C80.9057 30.9349 80.3593 31.4286 79.8342 31.6957C79.3082 31.9724 78.8181 32.0408 78.4878 32.0543C78.1544 32.064 77.9694 32.0305 77.9669 32.0465Z" fill="#455A64"/>
<path d="M71.721 29.0227C71.7897 29.1969 71.8602 29.3741 71.9757 29.5218C72.0911 29.6695 72.2599 29.7865 72.4471 29.7955C72.6466 29.8052 72.8392 29.687 72.9504 29.5209C73.0617 29.3552 73.0996 29.1481 73.0906 28.9485C73.0825 28.768 72.9999 28.5528 72.8205 28.5314C72.7458 28.5226 72.6725 28.5513 72.6026 28.5796C72.2882 28.7071 71.9742 28.8346 71.6598 28.9621" fill="#EB996E"/>
<path d="M72.0976 29.7986C72.1024 29.7691 72.3091 29.8532 72.6003 29.7365C72.7411 29.6799 72.8954 29.5675 72.9804 29.3911C73.0654 29.2169 73.0823 28.9809 72.9928 28.7744C72.972 28.7229 72.9409 28.6756 72.9105 28.6334C72.8731 28.5942 72.88 28.596 72.8393 28.602C72.8011 28.6123 72.739 28.6415 72.6883 28.6614C72.6359 28.6828 72.584 28.7039 72.5334 28.7244C72.3315 28.8061 72.1488 28.8772 71.9945 28.9351C71.6858 29.0505 71.4902 29.1111 71.4812 29.0897C71.4721 29.0683 71.6509 28.9691 71.9478 28.8257C72.0961 28.7539 72.2739 28.6713 72.4725 28.5818C72.5226 28.5595 72.5735 28.5366 72.625 28.5134C72.6802 28.4908 72.7221 28.4661 72.7971 28.4426C72.8339 28.4323 72.8861 28.4263 72.937 28.4465C72.9867 28.4667 73.0178 28.5004 73.041 28.5288C73.0832 28.5848 73.1203 28.6427 73.1471 28.7075C73.258 28.9652 73.2312 29.2504 73.1181 29.462C73.003 29.6778 72.8065 29.7992 72.6395 29.849C72.4698 29.9011 72.3239 29.8888 72.2311 29.865C72.1379 29.8396 72.0939 29.808 72.0976 29.7986Z" fill="#101010"/>
</svg>
