<svg width="26" height="27" viewBox="0 0 26 27" fill="none" xmlns="http://www.w3.org/2000/svg">
<rect y="0.5" width="25.75" height="25.75" rx="12.875" fill="url(#paint0_linear_163_505)"/>
<path d="M6.875 12.708H8.875C9.22862 12.708 9.56776 12.8485 9.81781 13.0985C10.0679 13.3486 10.2083 13.6877 10.2083 14.0413V16.0413C10.2083 16.395 10.0679 16.7341 9.81781 16.9842C9.56776 17.2342 9.22862 17.3747 8.875 17.3747H8.20833C7.85471 17.3747 7.51557 17.2342 7.26552 16.9842C7.01548 16.7341 6.875 16.395 6.875 16.0413V12.708ZM6.875 12.708C6.875 11.9201 7.03019 11.1399 7.33172 10.4119C7.63325 9.68395 8.07521 9.02252 8.63236 8.46537C9.18951 7.90822 9.85095 7.46626 10.5789 7.16473C11.3069 6.8632 12.0871 6.70801 12.875 6.70801C13.6629 6.70801 14.4431 6.8632 15.1711 7.16473C15.8991 7.46626 16.5605 7.90822 17.1176 8.46537C17.6748 9.02252 18.1167 9.68395 18.4183 10.4119C18.7198 11.1399 18.875 11.9201 18.875 12.708M18.875 12.708V16.0413C18.875 16.395 18.7345 16.7341 18.4845 16.9842C18.2344 17.2342 17.8953 17.3747 17.5417 17.3747H16.875C16.5214 17.3747 16.1822 17.2342 15.9322 16.9842C15.6821 16.7341 15.5417 16.395 15.5417 16.0413V14.0413C15.5417 13.6877 15.6821 13.3486 15.9322 13.0985C16.1822 12.8485 16.5214 12.708 16.875 12.708H18.875Z" stroke="white" stroke-linecap="round" stroke-linejoin="round"/>
<path d="M18.875 16.042V17.3753C18.875 18.0826 18.594 18.7608 18.094 19.2609C17.5939 19.761 16.9156 20.042 16.2083 20.042H12.875" stroke="white" stroke-linecap="round" stroke-linejoin="round"/>
<defs>
<linearGradient id="paint0_linear_163_505" x1="0" y1="13.375" x2="25.75" y2="13.375" gradientUnits="userSpaceOnUse">
<stop stop-color="#657DE9"/>
<stop offset="1" stop-color="#764CA5"/>
</linearGradient>
</defs>
</svg>
