<svg width="61" height="41" viewBox="0 0 61 41" fill="none" xmlns="http://www.w3.org/2000/svg">
<g clip-path="url(#clip0_170_590)">
<path d="M34.5126 39.7786C34.4855 39.5282 34.4539 39.2904 34.4343 39.051C34.2843 37.2186 34.621 35.4725 35.3847 33.8072C35.771 32.9642 36.2035 32.1424 36.5743 31.2934C36.9441 30.4464 37.1704 29.5558 37.206 28.625C37.209 28.5438 37.206 28.4625 37.206 28.339C37.1157 28.4038 37.0545 28.4414 37.0003 28.4866C35.0093 30.1594 33.0184 31.8323 31.0289 33.5071C30.7284 33.76 30.4358 34.0224 30.1388 34.2798C29.8628 34.5187 29.771 34.5207 29.4935 34.2828C28.1418 33.1233 26.7941 31.9587 25.4383 30.8037C23.9807 29.5618 22.5146 28.3305 21.055 27.0912C19.7765 26.0059 19.0751 24.61 18.8814 22.9572C18.7033 21.4369 18.9878 20.0014 19.8152 18.7073C20.9145 16.9883 22.483 15.9768 24.5236 15.7374C26.0364 15.5598 27.4248 15.9301 28.7153 16.7144C28.7725 16.749 28.8302 16.7826 28.8889 16.8142C28.902 16.8212 28.92 16.8182 28.9607 16.8227V9.46749C28.8578 9.46749 28.7454 9.46749 28.633 9.46749C25.5472 9.46649 22.4614 9.46599 19.3756 9.46348C19.1754 9.46348 18.9692 9.47251 18.777 9.42836C18.0756 9.26729 17.7484 8.47502 18.1002 7.80768C18.201 7.61601 18.3295 7.43839 18.4388 7.25073C19.4313 5.54025 19.0535 3.35159 17.5527 2.11426C15.9938 0.828757 13.8347 0.853845 12.3084 2.17547C10.777 3.50161 10.4549 5.69027 11.5392 7.40327C11.6195 7.53021 11.7073 7.65264 11.7871 7.78059C12.0219 8.15791 12.0565 8.54777 11.8423 8.94567C11.6315 9.33653 11.2883 9.46448 10.8598 9.46398C7.64005 9.46047 4.42028 9.46398 1.20101 9.46599C1.15083 9.46599 1.10016 9.471 1.05048 9.46599C0.856805 9.44391 0.794587 9.51968 0.795089 9.72038C0.800608 13.1238 0.799103 16.5277 0.797096 19.9311C0.797096 20.1153 0.813152 20.2889 0.999303 20.3817C1.18997 20.477 1.3711 20.4459 1.53919 20.318C4.0269 18.4198 8.41275 19.6762 8.90447 23.613C9.31842 26.9261 6.49253 29.3797 3.52514 28.9883C2.83122 28.8965 2.19248 28.6843 1.63603 28.2482C1.55926 28.188 1.46343 28.1419 1.3696 28.1168C1.00081 28.0184 0.803618 28.1689 0.803117 28.5493C0.80111 30.4725 0.802113 32.3962 0.801611 34.3195C0.801611 36.042 0.800106 37.765 0.798601 39.4876C0.798601 39.8092 0.796092 39.8107 1.12876 39.8107C8.33749 39.8107 15.5462 39.8112 22.7549 39.8112C24.7118 39.8112 26.6686 39.8102 28.6255 39.8082C28.7399 39.8082 28.8543 39.7976 28.9863 39.7911C28.9863 39.6848 28.9863 39.6025 28.9863 39.5202C28.9893 38.2658 28.9908 37.0114 28.9993 35.757C28.9998 35.6551 29.0209 35.5046 29.0866 35.4635C29.193 35.3967 29.3566 35.3591 29.473 35.3917C29.5553 35.4148 29.6446 35.5714 29.6516 35.6737C29.6742 36.0149 29.6606 36.3591 29.6606 36.7018C29.6606 37.8142 29.6611 38.9261 29.6596 40.0385C29.6596 40.3812 29.5753 40.474 29.2321 40.4755C27.9692 40.4815 26.7068 40.482 25.4439 40.482C17.2316 40.482 9.01937 40.4805 0.807131 40.4795C0.748425 40.4795 0.690222 40.4795 0.631516 40.478C0.229108 40.4715 0.128255 40.3712 0.128255 39.9728C0.128255 38.894 0.12976 37.8152 0.12976 36.7364C0.12976 34.0355 0.129258 31.334 0.130262 28.6331C0.130262 27.9933 0.430312 27.5663 0.966689 27.4565C1.31491 27.3852 1.65811 27.4248 1.94913 27.6416C4.18646 29.3064 7.75394 27.9376 8.22158 24.8167C8.46744 23.177 7.89143 21.7951 6.51561 20.8463C5.1699 19.9186 3.73187 19.8458 2.28029 20.6501C2.1709 20.7108 2.06905 20.7851 1.96769 20.8589C1.57231 21.1449 1.14481 21.19 0.713302 20.9783C0.28681 20.768 0.125244 20.3827 0.125244 19.9221C0.125244 17.3295 0.126248 14.7369 0.127753 12.1449C0.128255 11.2081 0.130262 10.2718 0.134276 9.33503C0.136283 8.88746 0.213051 8.8122 0.660618 8.8117C3.96368 8.80768 7.26724 8.80467 10.5703 8.80066C10.6957 8.80066 10.8217 8.80166 10.9461 8.78962C11.2647 8.75901 11.4052 8.51064 11.2652 8.21762C11.212 8.10573 11.1348 8.00437 11.063 7.90151C9.12825 5.13232 10.7123 0.90954 14.4599 0.53523C16.3887 0.342555 17.9446 1.06057 18.9521 2.72138C19.9993 4.44792 19.9541 6.2116 18.8337 7.92058C18.77 8.01792 18.7033 8.11827 18.6671 8.22665C18.5663 8.5272 18.7223 8.76303 19.0369 8.79715C19.1443 8.80869 19.2542 8.80568 19.3626 8.80568C22.6155 8.80869 25.8688 8.81069 29.1217 8.8132C29.5909 8.8132 29.6596 8.88144 29.6591 9.34757C29.6576 12.1238 29.6551 14.9005 29.6531 17.6767C29.6531 17.7269 29.6656 17.7816 29.6496 17.8263C29.6129 17.9291 29.5618 18.0275 29.5171 18.1273C29.4263 18.0791 29.3189 18.049 29.2472 17.9808C26.7379 15.5789 22.4343 15.8102 20.3957 19.04C19.0108 21.2347 19.2301 24.1745 20.9602 26.0736C21.3239 26.4725 21.762 26.8052 22.1744 27.1579C24.5773 29.2111 26.9817 31.2623 29.3887 33.3114C29.909 33.7545 29.7419 33.6958 30.2286 33.3325C30.5452 33.0957 30.6355 32.8273 30.6305 32.4414C30.6084 30.7525 30.6245 29.0631 30.6165 27.3737C30.6145 26.9562 30.7158 26.599 31.1167 26.4168C31.5442 26.2226 31.9562 26.2984 32.3054 26.611C32.8513 27.0987 33.4855 27.3702 34.2136 27.3852C34.4077 27.3892 34.6421 27.326 34.7926 27.2091C35.4925 26.6672 36.2191 26.1449 36.8453 25.5242C38.2206 24.1619 38.6942 22.5026 38.0685 20.6516C37.1915 18.0576 33.9085 17.0882 31.6942 18.7088C31.051 19.18 30.5698 19.7746 30.2291 20.4901C30.186 20.5804 30.1478 20.6747 30.0941 20.7585C29.9431 20.9958 29.6521 21.0039 29.4955 20.769C29.4173 20.6521 29.3661 20.5167 29.3039 20.3892C28.1709 18.0636 25.476 17.2246 23.2748 18.5116C21.8036 19.3722 21.0244 21.1343 21.348 22.8614C21.5417 23.8955 21.9863 24.8107 22.769 25.5101C23.5904 26.2447 24.4705 26.9131 25.3259 27.609C25.6059 27.8368 25.9306 27.8328 26.2572 27.76C26.8944 27.6175 27.4664 27.33 27.9923 26.9462C28.1338 26.8428 28.2718 26.7294 28.4268 26.6501C29.0159 26.3486 29.6471 26.7189 29.6541 27.3797C29.6661 28.5337 29.6606 29.6878 29.6616 30.8418C29.6616 31.0676 29.6591 31.2934 29.6606 31.5192C29.6616 31.7339 29.5442 31.8528 29.344 31.8659C29.1388 31.8794 29.0144 31.765 28.9968 31.5538C28.9878 31.4454 28.9858 31.3365 28.9858 31.2282C28.9843 30.0325 28.9863 28.8363 28.9777 27.6406C28.9767 27.5132 28.914 27.3862 28.8794 27.2588C28.7459 27.3104 28.5904 27.3345 28.482 27.4188C27.8026 27.9502 27.0409 28.2889 26.1945 28.4419C25.8011 28.5132 25.4238 28.476 25.0886 28.2447C23.924 27.4409 22.7539 26.6266 21.8709 25.5091C20.5864 23.8829 20.2005 22.0546 21.0204 20.0987C21.9075 17.9818 24.2191 16.8584 26.5016 17.3707C27.8598 17.6757 28.9015 18.4299 29.621 19.6245C29.6671 19.7013 29.7198 19.7746 29.7886 19.8784C29.8668 19.7615 29.9291 19.6747 29.9843 19.5844C31.0083 17.907 33.0555 16.9763 34.9562 17.325C37.0565 17.7103 38.5467 19.1484 38.9095 21.2031C39.1845 22.7615 38.7936 24.179 37.8202 25.4173C37.4925 25.8343 37.0916 26.198 36.6972 26.5568C36.3019 26.9166 35.8638 27.2287 35.4619 27.5809C34.924 28.0525 34.3169 28.1509 33.636 28.0019C32.9717 27.8564 32.3581 27.6165 31.8377 27.1659C31.764 27.1022 31.6737 27.043 31.5808 27.0184C31.4218 26.9763 31.2973 27.0164 31.2978 27.2211C31.3014 28.902 31.3034 30.5829 31.3064 32.2638C31.3064 32.2798 31.3159 32.2954 31.33 32.3385C31.3877 32.3039 31.4449 32.2788 31.4905 32.2402C33.6772 30.3972 35.8503 28.5382 38.052 26.7139C40.3139 24.8393 41.0284 21.1102 39.064 18.469C37.8553 16.8438 36.192 16.0927 34.1714 16.1569C33.066 16.192 32.0625 16.5568 31.1478 17.1785C31.0435 17.2492 30.8618 17.3099 30.77 17.2648C30.6842 17.2226 30.632 17.034 30.6315 16.9095C30.6235 14.3671 30.6245 11.8247 30.624 9.28285C30.624 8.899 30.7078 8.8137 31.0961 8.8132C34.4745 8.81069 37.8533 8.80969 41.2316 8.80819C41.2984 8.80819 41.3656 8.80919 41.4323 8.80819C41.8488 8.80166 42.0103 8.51315 41.8001 8.14988C41.6119 7.82524 41.3867 7.51767 41.2371 7.17647C39.9271 4.18551 41.8443 0.863378 45.0881 0.530714C46.8964 0.345566 48.3962 0.982796 49.4343 2.48505C50.5111 4.04301 50.5939 5.71988 49.7775 7.43137C49.6882 7.61852 49.5643 7.79012 49.4464 7.96222C49.3124 8.15691 49.2151 8.3561 49.3239 8.59193C49.4353 8.83277 49.6636 8.80317 49.8694 8.80367C53.1393 8.80718 56.4092 8.80869 59.6787 8.81069C59.9381 8.81069 60.197 8.81019 60.4564 8.81421C60.7695 8.81922 60.8719 8.92208 60.8724 9.2422C60.8739 10.6135 60.8724 11.9853 60.8729 13.3566C60.8729 15.5056 60.8744 17.6552 60.8739 19.8042C60.8739 19.9713 60.8814 20.1419 60.8503 20.3039C60.7028 21.0736 59.8533 21.3972 59.1574 20.9346C58.7474 20.6622 58.3159 20.456 57.8392 20.3436C55.7539 19.8508 53.5999 21.1363 53.0294 23.2643C52.5894 24.9065 53.0279 26.3421 54.2989 27.4645C55.4905 28.5172 56.8789 28.7826 58.3897 28.2377C58.6696 28.1368 58.9321 27.9788 59.1875 27.8227C59.5683 27.5894 59.9572 27.5382 60.353 27.746C60.7439 27.9512 60.8699 28.3125 60.8699 28.7344C60.8709 32.4976 60.8734 36.2608 60.8739 40.0244C60.8739 40.3917 60.775 40.476 60.3515 40.4765C57.199 40.482 54.046 40.4861 50.8934 40.4911C50.5422 40.4916 50.191 40.4961 49.8397 40.4991C49.3731 40.5036 48.9727 40.3641 48.7504 39.9251C48.5251 39.4805 48.5909 39.0425 48.8844 38.6506C49.4519 37.8945 49.7309 37.04 49.7404 36.1047C49.7655 33.7164 47.8874 31.8278 45.4986 31.8202C42.4975 31.8112 40.4358 34.7701 41.5041 37.5744C41.6511 37.9597 41.8849 38.316 42.1067 38.6677C42.3189 39.0044 42.4308 39.3486 42.3044 39.7359C42.1634 40.1674 41.8533 40.4173 41.4062 40.465C41.1167 40.4961 40.8217 40.4856 40.5292 40.4856C37.4434 40.4835 34.3576 40.48 31.2718 40.4765C31.1965 40.4765 31.1212 40.4765 31.046 40.4735C30.7389 40.4625 30.6255 40.3506 30.625 40.0435C30.6235 38.7726 30.6245 37.5011 30.6245 36.2302C30.6245 35.8875 30.6325 35.5443 30.6215 35.2016C30.6135 34.9482 30.774 34.8207 30.9592 34.7194C31.1147 34.6341 31.2602 34.7194 31.2943 34.8975C31.3084 34.9702 31.3039 35.0475 31.3034 35.1223C31.3014 36.6025 31.2999 38.0826 31.2938 39.5628C31.2933 39.7124 31.2908 39.8167 31.495 39.8147C32.4398 39.8047 33.3852 39.8082 34.33 39.8047C34.3862 39.8047 34.4419 39.7881 34.5116 39.7771L34.5126 39.7786ZM51.048 21.9692C51.0048 21.9758 50.9858 21.9738 50.9727 21.9813C50.9291 22.0059 50.8869 22.0335 50.8458 22.0611C49.4524 23.0019 47.9311 23.2738 46.2999 22.8975C45.1107 22.623 44.1528 21.9577 43.3425 21.0631C43.199 20.9045 43.1639 20.7344 43.333 20.5779C43.4945 20.4284 43.6666 20.4514 43.8257 20.5964C43.8563 20.6245 43.8849 20.6557 43.9125 20.6868C45.1383 22.0546 46.6727 22.5949 48.4725 22.3059C49.8162 22.0902 50.9356 21.466 51.6426 20.2492C51.8588 19.8769 52.048 19.4856 52.2146 19.0882C52.6521 18.0445 52.8769 16.9467 52.9005 15.8197C52.9145 15.1459 52.8332 14.47 52.7936 13.7951C52.7815 13.5874 52.8638 13.4544 53.0791 13.4289C53.2868 13.4043 53.4193 13.4916 53.4504 13.7053C53.483 13.9286 53.5191 14.1514 53.5392 14.3757C53.7133 16.3155 53.3741 18.171 52.614 19.9562C52.1689 21.0014 51.6942 22.0335 51.4138 23.1419C50.9235 25.0786 51.044 26.9306 52.196 28.62C52.623 29.2462 53.1197 29.8283 53.6135 30.4058C55.5828 32.7108 56.7274 35.3536 56.9115 38.3922C56.9396 38.8554 56.9155 39.3215 56.9155 39.7941C57.0259 39.8037 57.0826 39.8132 57.1398 39.8132C58.0766 39.8132 59.0129 39.8057 59.9496 39.8167C60.1824 39.8192 60.2226 39.7294 60.2216 39.5212C60.2131 37.8403 60.2146 36.1594 60.2141 34.4785C60.2141 32.5884 60.2166 30.6988 60.2141 28.8087C60.2141 28.6276 60.2246 28.4314 60.0179 28.33C59.8217 28.2337 59.6646 28.3265 59.5076 28.4324C58.4815 29.1238 57.3425 29.3124 56.1508 29.0907C53.5643 28.6095 51.9431 26.3551 52.2467 23.7159C52.5638 20.9592 55.336 19.032 58.0344 19.6898C58.5763 19.8217 59.0766 20.035 59.5347 20.3601C59.6526 20.4439 59.8668 20.4896 59.9893 20.4389C60.0931 20.3957 60.1333 20.19 60.192 20.052C60.21 20.0094 60.1975 19.9527 60.198 19.9025C60.205 16.5408 60.2115 13.1795 60.2186 9.81772C60.2191 9.47251 60.2206 9.471 59.8844 9.4705C57.9276 9.46799 55.9707 9.46549 54.0139 9.46398C52.5753 9.46298 51.1373 9.469 49.6987 9.46047C49.0936 9.45696 48.7148 9.12529 48.615 8.5548C48.5482 8.17296 48.6912 7.85836 48.9045 7.55078C50.6441 5.0415 49.1298 1.61551 46.1057 1.20909C43.2296 0.822234 40.8683 3.5272 41.6385 6.32249C41.785 6.85385 42.0445 7.32499 42.3525 7.77758C42.5969 8.13633 42.6235 8.52971 42.4278 8.92008C42.2316 9.31145 41.9005 9.48556 41.4649 9.4685C41.348 9.46398 41.2306 9.46749 41.1137 9.46749C37.9361 9.46699 34.7585 9.46749 31.5808 9.46348C31.3897 9.46348 31.2753 9.47552 31.2773 9.7254C31.2938 11.8242 31.2963 13.9231 31.3034 16.0219C31.3034 16.0952 31.3114 16.1684 31.3179 16.2773C31.4158 16.2307 31.488 16.196 31.5608 16.1614C33.4504 15.2558 35.3751 15.2116 37.2467 16.1248C40.9321 17.9236 41.762 22.3436 39.9276 25.4836C39.4403 26.3175 38.768 26.9677 38.0289 27.5628C37.9045 27.6627 37.8638 27.7675 37.8699 27.9261C37.9035 28.8097 37.7815 29.6732 37.5432 30.5262C37.2301 31.6466 36.6767 32.6602 36.1709 33.6948C35.2632 35.5523 34.8784 37.4951 35.1558 39.5583C35.186 39.7831 35.2713 39.8227 35.472 39.8217C37.3365 39.8132 39.2015 39.8137 41.0665 39.8107C41.1664 39.8107 41.2682 39.8087 41.3661 39.7921C41.634 39.7465 41.7695 39.5387 41.6902 39.2788C41.6571 39.17 41.5964 39.0636 41.5261 38.9728C40.9998 38.2959 40.6982 37.5342 40.5954 36.6817C40.195 33.3707 43.0771 30.6115 46.343 31.2156C50.2617 31.9401 51.4378 36.3235 49.4705 38.9622C49.4158 39.0355 49.3631 39.1128 49.3249 39.1955C49.1804 39.5101 49.33 39.7721 49.6707 39.8057C49.7534 39.8137 49.8377 39.8117 49.9215 39.8117C51.8367 39.8127 53.7514 39.8137 55.6666 39.8132C56.2637 39.8132 56.2627 39.8112 56.2607 39.2021C56.2537 36.9472 55.7449 34.8162 54.5477 32.8985C53.9622 31.9602 53.2467 31.0992 52.5573 30.2297C52.0159 29.5468 51.4609 28.8754 51.0987 28.0776C50.3475 26.4228 50.3129 24.7159 50.771 22.9803C50.8593 22.6456 50.9531 22.312 51.047 21.9677L51.048 21.9692Z" fill="url(#paint0_linear_170_590)"/>
<path d="M47.9433 25.8834C47.9422 25.626 48.0702 25.4729 48.2744 25.4639C48.4922 25.4544 48.6056 25.5743 48.6176 25.778C48.7516 27.9812 49.8845 29.6511 51.4325 31.1107C51.9297 31.5793 52.4154 32.066 52.8559 32.5873C53.4234 33.2587 53.7747 34.0555 54.015 34.8989C54.0903 35.1629 54.015 35.3335 53.8168 35.3886C53.598 35.4494 53.441 35.35 53.3632 35.0786C52.9919 33.7765 52.2473 32.7213 51.2443 31.8307C50.455 31.1297 49.7275 30.3711 49.155 29.4765C48.4475 28.3711 48.0637 27.1578 47.9427 25.8834H47.9433Z" fill="url(#paint1_linear_170_590)"/>
</g>
<defs>
<linearGradient id="paint0_linear_170_590" x1="0.125244" y1="20.4994" x2="60.8747" y2="20.4994" gradientUnits="userSpaceOnUse">
<stop stop-color="#27F1A3"/>
<stop offset="1" stop-color="#17A6EF"/>
</linearGradient>
<linearGradient id="paint1_linear_170_590" x1="47.9427" y1="30.4346" x2="54.0437" y2="30.4346" gradientUnits="userSpaceOnUse">
<stop stop-color="#27F1A3"/>
<stop offset="1" stop-color="#17A6EF"/>
</linearGradient>
<clipPath id="clip0_170_590">
<rect width="60.7496" height="40" fill="white" transform="translate(0.125244 0.5)"/>
</clipPath>
</defs>
</svg>
