<svg width="19" height="18" viewBox="0 0 19 18" fill="none" xmlns="http://www.w3.org/2000/svg">
<path d="M8.75 9H10.25C10.6478 9 11.0294 8.84196 11.3107 8.56066C11.592 8.27936 11.75 7.89782 11.75 7.5C11.75 7.10218 11.592 6.72064 11.3107 6.43934C11.0294 6.15804 10.6478 6 10.25 6H8C7.55 6 7.175 6.15 6.95 6.45L2.75 10.5" stroke="white" stroke-opacity="0.8" stroke-linecap="round" stroke-linejoin="round"/>
<path d="M5.75003 13.5L6.95003 12.45C7.17503 12.15 7.55003 12 8.00003 12H11C11.825 12 12.575 11.7 13.1 11.1L16.55 7.79996C16.8394 7.52646 17.0084 7.14918 17.0196 6.75114C17.0309 6.35309 16.8835 5.96688 16.61 5.67746C16.3365 5.38804 15.9593 5.21913 15.5612 5.20788C15.1632 5.19662 14.7769 5.34396 14.4875 5.61746L11.3375 8.54246" stroke="white" stroke-opacity="0.8" stroke-linecap="round" stroke-linejoin="round"/>
<path d="M1.99997 9.75L6.49997 14.25" stroke="white" stroke-opacity="0.8" stroke-linecap="round" stroke-linejoin="round"/>
</svg>
