<?xml version="1.0" encoding="UTF-8"?>
<!DOCTYPE svg PUBLIC "-//W3C//DTD SVG 1.1//EN" "http://www.w3.org/Graphics/SVG/1.1/DTD/svg11.dtd">
<!-- Creator: CorelDRAW -->
<svg xmlns="http://www.w3.org/2000/svg" xml:space="preserve" width="6.82666in" height="6.82666in" style="shape-rendering:geometricPrecision; text-rendering:geometricPrecision; image-rendering:optimizeQuality; fill-rule:evenodd; clip-rule:evenodd"
viewBox="0 0 6.82666 6.82666"
 xmlns:xlink="http://www.w3.org/1999/xlink">
 <defs>
  <style type="text/css">
   <![CDATA[
    .fil3 {fill:none}
    .fil0 {fill:#fff}
    .fil1 {fill:#fff}
    .fil2 {fill:#fff;fill-rule:nonzero}
   ]]>
  </style>
 </defs>
 <g id="Layer_x0020_1">
  <metadata id="CorelCorpID_0Corel-Layer"/>
  <path class="fil0" d="M1.428 2.00533c0,0 1.53601,-0.64 2.81601,-0.384 0,0 -1.58998,1.43212 -1.58998,2.84013l0.325134 -0.0878504c0,0 0.240843,-1.47227 2.67285,-3.52028l-4.096 0.255996 -0.128004 0.896004z"/>
  <path class="fil1" d="M1.17465 5.97333c0,0 0.948925,-1.5451 1.84493,-2.1851l0.0882559 0.335992 -1.93318 1.84911z"/>
  <path class="fil2" d="M4.21176 3.76828c0.284689,0.133618 0.503445,0.343319 0.627697,0.575665 0.133449,0.249547 0.160016,0.526252 0.0480551,0.770921 -0.112059,0.244886 -0.338902,0.405787 -0.615055,0.467949 -0.26087,0.0587126 -0.56787,0.0283858 -0.859169,-0.104906 -0.291268,-0.133291 -0.514969,-0.345913 -0.641177,-0.581917 -0.133453,-0.249551 -0.160016,-0.526248 -0.0480512,-0.770921l0.145 0.066252 -0.00966142 -0.00442126 -0.135335 -0.0618346 3.54331e-005 -7.87402e-005 -0.000527559 -0.000240157c0.00218898,-0.00478346 0.00458661,-0.0093937 0.00717323,-0.0138504 0.114224,-0.236917 0.337579,-0.392815 0.608362,-0.453772 0.257012,-0.0578504 0.558807,-0.0292677 0.846228,0.0990551 0.00931496,0.0032874 0.0181417,0.00735039 0.0264252,0.0120984zm0.346453 0.725665c-0.093122,-0.174138 -0.260551,-0.332961 -0.480933,-0.436567 -0.00397638,-0.00145669 -0.0079252,-0.00307087 -0.0118425,-0.0048622l0.000240157 -0.000523622c-0.226008,-0.103402 -0.46037,-0.127787 -0.656575,-0.083622 -0.176626,0.0397598 -0.319933,0.13565 -0.39002,0.278654 -0.0027126,0.00732677 -0.00598031,0.0144882 -0.00980709,0.0214331 -0.0624016,0.146693 -0.0412913,0.31789 0.0440787,0.477535 0.0947402,0.177157 0.266378,0.338469 0.492433,0.441913 0.226039,0.103429 0.460445,0.127831 0.656673,0.0836654 0.180949,-0.0407323 0.326937,-0.140358 0.395047,-0.289205 0.0682126,-0.149067 0.0481969,-0.324811 -0.0392953,-0.488421z"/>
 </g>
 <rect class="fil3" width="6.82666" height="6.82666"/>
</svg>
